<?xml version="1.0" encoding="UTF-8" standalone="no"?>
<!-- Created with Inkscape (http://www.inkscape.org/) -->

<svg
   width="903.41852"
   height="199.75348"
   viewBox="0 0 903.41852 199.75348"
   version="1.1"
   id="svg5"
   xml:space="preserve"
   sodipodi:docname="GoSmarter_logo_LightBG_INKSCAPE.svg"
   inkscape:version="1.3.2 (091e20e, 2023-11-25, custom)"
   xmlns:inkscape="http://www.inkscape.org/namespaces/inkscape"
   xmlns:sodipodi="http://sodipodi.sourceforge.net/DTD/sodipodi-0.dtd"
   xmlns="http://www.w3.org/2000/svg"
   xmlns:svg="http://www.w3.org/2000/svg"><sodipodi:namedview
     id="namedview1"
     pagecolor="#505050"
     bordercolor="#ffffff"
     borderopacity="1"
     inkscape:showpageshadow="0"
     inkscape:pageopacity="0"
     inkscape:pagecheckerboard="1"
     inkscape:deskcolor="#505050"
     inkscape:zoom="1.7229003"
     inkscape:cx="754.54165"
     inkscape:cy="95.478539"
     inkscape:window-width="3840"
     inkscape:window-height="2066"
     inkscape:window-x="-11"
     inkscape:window-y="-11"
     inkscape:window-maximized="1"
     inkscape:current-layer="svg5" /><defs
     id="defs2" /><path
     d="m 79.3061,186.2859 q -3.0777,0 -5.7157,-1.1541 -2.5831,-1.2091 -4.5067,-3.2426 -1.8686,-2.0885 -2.9128,-4.7265 -1.0442,-2.693 -1.0442,-5.6608 0,-3.0777 1.0442,-5.7158 1.0442,-2.693 2.9678,-4.7265 1.9236,-2.0884 4.5066,-3.2426 2.6381,-1.2091 5.7158,-1.2091 3.0777,0 5.6608,1.2091 2.5831,1.1542 4.5066,3.2426 1.9236,2.0335 2.9678,4.7265 1.0443,2.6381 1.0443,5.7158 0,2.9678 -1.0443,5.6608 -1.0442,2.638 -2.9678,4.7265 -1.8686,2.0335 -4.5066,3.2426 -2.5831,1.1541 -5.7158,1.1541 z M 68.9188,171.5568 q 0,3.1877 1.374,5.8257 1.429,2.5831 3.7922,4.122 2.3633,1.4839 5.2211,1.4839 2.8579,0 5.2212,-1.5389 2.3632,-1.5389 3.7921,-4.1769 1.429,-2.693 1.429,-5.8257 0,-3.1876 -1.429,-5.8256 -1.4289,-2.6381 -3.7921,-4.1769 -2.3633,-1.5389 -5.2212,-1.5389 -2.8578,0 -5.2211,1.5938 -2.3083,1.5938 -3.7372,4.2319 -1.429,2.5831 -1.429,5.8256 z m 45.5062,14.7291 q -3.5723,0 -6.4302,-1.8686 -2.8029,-1.8686 -4.4517,-4.6166 v 17.6419 h -3.7372 v -40.34 h 3.3525 v 5.5509 q 1.7037,-2.693 4.5616,-4.3418 2.8579,-1.7038 6.1005,-1.7038 2.9678,0 5.4409,1.2641 2.4732,1.2091 4.2869,3.2976 1.8136,2.0884 2.8029,4.7814 1.0442,2.6381 1.0442,5.4959 0,4.0121 -1.6488,7.4195 -1.5938,3.3525 -4.5066,5.386 -2.9129,2.0335 -6.815,2.0335 z m -1.0442,-3.2975 q 2.3632,0 4.2319,-0.9343 1.8686,-0.9893 3.1876,-2.6381 1.374,-1.6488 2.0884,-3.6823 0.7145,-2.0884 0.7145,-4.2868 0,-2.3083 -0.8244,-4.3967 -0.7694,-2.0885 -2.2533,-3.6823 -1.4839,-1.5938 -3.4075,-2.5281 -1.9235,-0.9343 -4.1769,-0.9343 -1.4289,0 -2.9678,0.5496 -1.5388,0.5496 -2.9678,1.5938 -1.3739,0.9893 -2.3083,2.2533 -0.9343,1.2641 -1.1541,2.693 v 8.7935 q 0.8793,2.0335 2.3632,3.6823 1.4839,1.5938 3.4075,2.5831 1.9785,0.9343 4.067,0.9343 z m 33.6351,1.3739 q -0.4397,0.1649 -1.374,0.6046 -0.9343,0.4397 -2.2533,0.7694 -1.319,0.3298 -2.8579,0.3298 -1.5938,0 -3.0227,-0.6046 -1.374,-0.6045 -2.1984,-1.8136 -0.8244,-1.2641 -0.8244,-3.0777 v -20.4998 h -3.9571 v -2.9678 h 3.9571 v -9.6728 h 3.7372 v 9.6728 h 6.5951 v 2.9678 h -6.5951 v 19.4555 q 0.1099,1.5389 1.0992,2.3083 1.0442,0.7694 2.3633,0.7694 1.5388,0 2.8029,-0.4946 1.264,-0.5496 1.5388,-0.7694 z m 4.6715,1.374 v -28.6337 h 3.7372 v 28.6337 z m 0,-34.6243 v -5.4959 h 3.7372 v 5.4959 z m 54.5745,34.6243 h -3.7372 v -15.9931 q 0,-5.0013 -1.5939,-7.3645 -1.5938,-2.3633 -4.7264,-2.3633 -3.2426,0 -5.8257,2.3083 -2.5281,2.3083 -3.5724,5.9356 v 17.477 h -3.7372 v -15.9931 q 0,-5.0563 -1.5389,-7.3645 -1.5388,-2.3633 -4.7264,-2.3633 -3.1877,0 -5.7708,2.2533 -2.583,2.2534 -3.6273,5.9356 v 17.532 h -3.7372 v -28.6337 h 3.4075 v 6.4852 q 1.8136,-3.3525 4.6165,-5.1662 2.8579,-1.8137 6.3204,-1.8137 3.5723,0 5.7707,2.0335 2.1983,2.0335 2.693,5.3311 1.9785,-3.6273 4.7265,-5.4959 2.8029,-1.8687 6.3203,-1.8687 2.4182,0 4.067,0.8794 1.7037,0.8793 2.693,2.5281 1.0442,1.5938 1.4839,3.9021 0.4946,2.2533 0.4946,5.0563 z m 7.9141,0 v -28.6337 h 3.7373 v 28.6337 z m 0,-34.6243 v -5.4959 h 3.7373 v 5.4959 z m 21.3792,35.1739 q -3.5174,0 -6.5401,-1.1541 -3.0228,-1.1542 -5.2212,-3.5174 l 1.5389,-2.6381 q 2.4182,2.2534 4.8364,3.2976 2.4732,0.9893 5.2211,0.9893 3.3525,0 5.441,-1.3191 2.0884,-1.3739 2.0884,-3.9021 0,-1.7037 -1.0442,-2.583 -0.9893,-0.9344 -2.9128,-1.4839 -1.8686,-0.6046 -4.5067,-1.2641 -2.9678,-0.8244 -5.0013,-1.7037 -1.9785,-0.9343 -3.0227,-2.3083 -0.9893,-1.429 -0.9893,-3.6823 0,-2.8029 1.374,-4.6166 1.4289,-1.8686 3.8471,-2.8029 2.4732,-0.9893 5.4959,-0.9893 3.2976,0 5.8257,1.0443 2.5281,1.0442 4.122,2.9128 l -1.8137,2.5281 q -1.5388,-1.7587 -3.6823,-2.583 -2.0884,-0.8794 -4.6715,-0.8794 -1.7587,0 -3.3525,0.4946 -1.5938,0.4397 -2.638,1.5389 -0.9893,1.0442 -0.9893,2.9128 0,1.5389 0.7694,2.4182 0.7695,0.8244 2.3083,1.429 1.5389,0.5496 3.7922,1.2091 3.2426,0.8793 5.6608,1.8136 2.4182,0.8794 3.7372,2.3083 1.319,1.429 1.319,4.012 0,4.0121 -3.0227,6.2654 -3.0228,2.2533 -7.9691,2.2533 z m 14.839,-8.7935 q 0,-2.693 1.5388,-4.6165 1.5389,-1.9786 4.2319,-3.0228 2.748,-1.0992 6.3203,-1.0992 2.0885,0 4.3418,0.3298 2.2533,0.3297 4.012,0.9893 v -2.4183 q 0,-3.6273 -2.1434,-5.7707 -2.1434,-2.1434 -5.9356,-2.1434 -2.3083,0 -4.5616,0.8794 -2.1984,0.8244 -4.6166,2.4731 l -1.4289,-2.638 q 2.8029,-1.9236 5.4959,-2.8579 2.693,-0.9893 5.4959,-0.9893 5.2761,0 8.3538,3.0228 3.0777,3.0228 3.0777,8.3538 v 13.2452 q 0,0.7694 0.3298,1.1541 0.3297,0.3298 1.0442,0.3847 v 2.9678 q -0.6045,0.055 -1.0442,0.1099 -0.4397,0.055 -0.6595,0 -1.374,-0.055 -2.0885,-0.8793 -0.7144,-0.8244 -0.7694,-1.7587 l -0.055,-2.0884 q -1.9235,2.4731 -5.0013,3.8471 -3.0777,1.319 -6.2653,1.319 -2.748,0 -5.0013,-1.1541 -2.1984,-1.2091 -3.4624,-3.1877 -1.2091,-2.0335 -1.2091,-4.4517 z m 19.1807,2.1984 q 0.6046,-0.7694 0.9343,-1.4839 0.3298,-0.7145 0.3298,-1.264 v -4.1769 q -1.8686,-0.7145 -3.9021,-1.0992 -1.9785,-0.3847 -4.012,-0.3847 -4.012,0 -6.4852,1.5938 -2.4732,1.5938 -2.4732,4.3417 0,1.5939 0.8244,3.0228 0.8244,1.374 2.4182,2.3083 1.5938,0.8793 3.7372,0.8793 2.693,0 5.0013,-1.0442 2.3633,-1.0442 3.6273,-2.693 z m 26.6003,4.6715 q -0.4397,0.1649 -1.374,0.6046 -0.9343,0.4397 -2.2533,0.7694 -1.319,0.3298 -2.8579,0.3298 -1.5938,0 -3.0227,-0.6046 -1.374,-0.6045 -2.1984,-1.8136 -0.8244,-1.2641 -0.8244,-3.0777 v -20.4998 h -3.9571 v -2.9678 h 3.9571 v -9.6728 h 3.7372 v 9.6728 h 6.5951 v 2.9678 h -6.5951 v 19.4555 q 0.11,1.5389 1.0992,2.3083 1.0442,0.7694 2.3633,0.7694 1.5388,0 2.8029,-0.4946 1.264,-0.5496 1.5388,-0.7694 z m 4.6715,1.374 v -28.6337 h 3.7372 v 28.6337 z m 0,-34.6243 v -5.4959 h 3.7372 v 5.4959 z m 24.1821,35.1739 q -3.0778,0 -5.7158,-1.1541 -2.5831,-1.2091 -4.5067,-3.2426 -1.8686,-2.0885 -2.9128,-4.7265 -1.0442,-2.693 -1.0442,-5.6608 0,-3.0777 1.0442,-5.7158 1.0442,-2.693 2.9678,-4.7265 1.9236,-2.0884 4.5067,-3.2426 2.638,-1.2091 5.7157,-1.2091 3.0777,0 5.6608,1.2091 2.5831,1.1542 4.5067,3.2426 1.9235,2.0335 2.9678,4.7265 1.0442,2.6381 1.0442,5.7158 0,2.9678 -1.0442,5.6608 -1.0443,2.638 -2.9678,4.7265 -1.8686,2.0335 -4.5067,3.2426 -2.5831,1.1541 -5.7157,1.1541 z m -10.3873,-14.7291 q 0,3.1877 1.3739,5.8257 1.429,2.5831 3.7922,4.122 2.3633,1.4839 5.2212,1.4839 2.8578,0 5.2211,-1.5389 2.3632,-1.5389 3.7922,-4.1769 1.4289,-2.693 1.4289,-5.8257 0,-3.1876 -1.4289,-5.8256 -1.429,-2.6381 -3.7922,-4.1769 -2.3633,-1.5389 -5.2211,-1.5389 -2.8579,0 -5.2212,1.5938 -2.3083,1.5938 -3.7372,4.2319 -1.4289,2.5831 -1.4289,5.8256 z m 54.9591,14.1795 h -3.7372 v -15.9931 q 0,-5.0563 -1.4839,-7.3645 -1.4839,-2.3633 -4.6715,-2.3633 -2.1984,0 -4.3418,1.0992 -2.1434,1.0442 -3.7922,2.9128 -1.5938,1.8137 -2.3083,4.1769 v 17.532 h -3.7372 v -28.6337 h 3.4075 v 6.4852 q 1.1541,-2.0885 3.0227,-3.6273 1.8686,-1.5939 4.2319,-2.4732 2.3632,-0.8794 4.8914,-0.8794 2.3632,0 4.012,0.8794 1.6487,0.8793 2.638,2.5281 0.9893,1.5938 1.429,3.9021 0.4396,2.2533 0.4396,5.0563 z m 23.3577,0 v -25.6659 h -3.9571 v -2.9678 h 3.9571 v -0.7694 q 0,-3.5174 0.9892,-6.0456 1.0443,-2.5281 2.9129,-3.8471 1.9235,-1.374 4.5066,-1.374 1.7038,0 3.2976,0.4946 1.5938,0.4947 2.7479,1.3191 l -1.1541,2.693 q -0.7145,-0.6046 -1.8686,-0.9343 -1.1542,-0.3298 -2.3083,-0.3298 -2.5831,0 -4.012,2.0335 -1.374,2.0335 -1.374,5.8806 v 0.8794 h 7.9141 v 2.9678 h -7.9141 v 25.6659 z m 28.0841,0.5496 q -3.0777,0 -5.7158,-1.1541 -2.5831,-1.2091 -4.5066,-3.2426 -1.8687,-2.0885 -2.9129,-4.7265 -1.0442,-2.693 -1.0442,-5.6608 0,-3.0777 1.0442,-5.7158 1.0442,-2.693 2.9678,-4.7265 1.9236,-2.0884 4.5067,-3.2426 2.638,-1.2091 5.7157,-1.2091 3.0777,0 5.6608,1.2091 2.5831,1.1542 4.5067,3.2426 1.9236,2.0335 2.9678,4.7265 1.0442,2.6381 1.0442,5.7158 0,2.9678 -1.0442,5.6608 -1.0442,2.638 -2.9678,4.7265 -1.8686,2.0335 -4.5067,3.2426 -2.5831,1.1541 -5.7157,1.1541 z m -10.3873,-14.7291 q 0,3.1877 1.374,5.8257 1.4289,2.5831 3.7921,4.122 2.3633,1.4839 5.2212,1.4839 2.8578,0 5.2211,-1.5389 2.3632,-1.5389 3.7922,-4.1769 1.4289,-2.693 1.4289,-5.8257 0,-3.1876 -1.4289,-5.8256 -1.429,-2.6381 -3.7922,-4.1769 -2.3633,-1.5389 -5.2211,-1.5389 -2.8579,0 -5.2212,1.5938 -2.3082,1.5938 -3.7372,4.2319 -1.4289,2.5831 -1.4289,5.8256 z m 45.1764,-11.1567 q -3.7372,0.11 -6.5951,2.0885 -2.8029,1.9785 -3.9571,5.4409 v 17.8068 h -3.7372 v -28.6337 h 3.5174 v 6.8699 q 1.4839,-3.0228 3.9021,-4.8914 2.4732,-1.8686 5.2211,-2.0884 0.5496,-0.055 0.9343,-0.055 0.4397,0 0.7145,0.055 z m 60.3451,25.3362 h -3.7372 v -15.9931 q 0,-5.0013 -1.5938,-7.3645 -1.5938,-2.3633 -4.7265,-2.3633 -3.2426,0 -5.8257,2.3083 -2.5281,2.3083 -3.5723,5.9356 v 17.477 h -3.7373 v -15.9931 q 0,-5.0563 -1.5388,-7.3645 -1.5389,-2.3633 -4.7265,-2.3633 -3.1876,0 -5.7707,2.2533 -2.5831,2.2534 -3.6273,5.9356 v 17.532 h -3.7373 v -28.6337 h 3.4075 v 6.4852 q 1.8137,-3.3525 4.6166,-5.1662 2.8579,-1.8137 6.3203,-1.8137 3.5723,0 5.7707,2.0335 2.1984,2.0335 2.693,5.3311 1.9785,-3.6273 4.7265,-5.4959 2.8029,-1.8687 6.3203,-1.8687 2.4182,0 4.067,0.8794 1.7037,0.8793 2.693,2.5281 1.0442,1.5938 1.4839,3.9021 0.4946,2.2533 0.4946,5.0563 z m 5.6059,-8.2439 q 0,-2.693 1.5389,-4.6165 1.5388,-1.9786 4.2318,-3.0228 2.748,-1.0992 6.3203,-1.0992 2.0885,0 4.3418,0.3298 2.2533,0.3297 4.012,0.9893 v -2.4183 q 0,-3.6273 -2.1434,-5.7707 -2.1434,-2.1434 -5.9356,-2.1434 -2.3083,0 -4.5616,0.8794 -2.1984,0.8244 -4.6166,2.4731 l -1.4289,-2.638 q 2.8029,-1.9236 5.4959,-2.8579 2.693,-0.9893 5.4959,-0.9893 5.2761,0 8.3538,3.0228 3.0777,3.0228 3.0777,8.3538 v 13.2452 q 0,0.7694 0.3298,1.1541 0.3298,0.3298 1.0442,0.3847 v 2.9678 q -0.6045,0.055 -1.0442,0.1099 -0.4397,0.055 -0.6595,0 -1.374,-0.055 -2.0885,-0.8793 -0.7144,-0.8244 -0.7694,-1.7587 l -0.055,-2.0884 q -1.9236,2.4731 -5.0013,3.8471 -3.0777,1.319 -6.2654,1.319 -2.7479,0 -5.0013,-1.1541 -2.1983,-1.2091 -3.4624,-3.1877 -1.2091,-2.0335 -1.2091,-4.4517 z m 19.1808,2.1984 q 0.6045,-0.7694 0.9343,-1.4839 0.3297,-0.7145 0.3297,-1.264 v -4.1769 q -1.8686,-0.7145 -3.9021,-1.0992 -1.9785,-0.3847 -4.012,-0.3847 -4.012,0 -6.4852,1.5938 -2.4732,1.5938 -2.4732,4.3417 0,1.5939 0.8244,3.0228 0.8244,1.374 2.4182,2.3083 1.5939,0.8793 3.7373,0.8793 2.693,0 5.0013,-1.0442 2.3632,-1.0442 3.6273,-2.693 z m 37.1524,6.0455 h -3.7373 v -15.9931 q 0,-5.0563 -1.4839,-7.3645 -1.4838,-2.3633 -4.6715,-2.3633 -2.1984,0 -4.3418,1.0992 -2.1434,1.0442 -3.7921,2.9128 -1.5939,1.8137 -2.3083,4.1769 v 17.532 h -3.7373 v -28.6337 h 3.4075 v 6.4852 q 1.1542,-2.0885 3.0228,-3.6273 1.8686,-1.5939 4.2318,-2.4732 2.3633,-0.8794 4.8914,-0.8794 2.3632,0 4.012,0.8794 1.6488,0.8793 2.6381,2.5281 0.9892,1.5938 1.4289,3.9021 0.4397,2.2533 0.4397,5.0563 z m 7.6942,-11.8162 v -16.8175 h 3.7373 v 16.158 q 0,4.8914 1.6487,7.3096 1.7038,2.4182 5.0013,2.4182 2.1984,0 4.2319,-0.9343 2.0884,-0.9893 3.6823,-2.748 1.5938,-1.8137 2.4182,-4.1769 v -18.0266 h 3.7372 v 24.1271 q 0,0.7694 0.3297,1.1541 0.3298,0.3298 0.9893,0.3847 v 2.9678 q -0.6595,0.055 -1.0442,0.055 -0.3847,0.055 -0.7145,0.055 -1.0992,-0.1099 -1.9236,-0.8793 -0.7694,-0.7694 -0.8243,-1.8686 l -0.11,-3.8472 q -1.8686,3.2976 -5.1112,5.1662 -3.1876,1.8686 -6.9248,1.8686 -4.5067,0 -6.815,-3.1327 -2.3083,-3.1326 -2.3083,-9.2331 z m 34.2946,11.8162 v -25.6659 h -3.957 v -2.9678 h 3.957 v -0.7694 q 0,-3.5174 0.9893,-6.0456 1.0442,-2.5281 2.9128,-3.8471 1.9236,-1.374 4.5067,-1.374 1.7037,0 3.2975,0.4946 1.5939,0.4947 2.748,1.3191 l -1.1541,2.693 q -0.7145,-0.6046 -1.8687,-0.9343 -1.1541,-0.3298 -2.3082,-0.3298 -2.5831,0 -4.0121,2.0335 -1.3739,2.0335 -1.3739,5.8806 v 0.8794 h 7.9141 v 2.9678 h -7.9141 v 25.6659 z m 14.3443,-8.2439 q 0,-2.693 1.5389,-4.6165 1.5388,-1.9786 4.2318,-3.0228 2.748,-1.0992 6.3203,-1.0992 2.0885,0 4.3418,0.3298 2.2533,0.3297 4.012,0.9893 v -2.4183 q 0,-3.6273 -2.1434,-5.7707 -2.1434,-2.1434 -5.9356,-2.1434 -2.3082,0 -4.5616,0.8794 -2.1983,0.8244 -4.6165,2.4731 l -1.429,-2.638 q 2.8029,-1.9236 5.4959,-2.8579 2.693,-0.9893 5.496,-0.9893 5.276,0 8.3538,3.0228 3.0777,3.0228 3.0777,8.3538 v 13.2452 q 0,0.7694 0.3297,1.1541 0.3298,0.3298 1.0442,0.3847 v 2.9678 q -0.6045,0.055 -1.0442,0.1099 -0.4397,0.055 -0.6595,0 -1.374,-0.055 -2.0884,-0.8793 -0.7145,-0.8244 -0.7695,-1.7587 l -0.055,-2.0884 q -1.9236,2.4731 -5.0013,3.8471 -3.0777,1.319 -6.2654,1.319 -2.7479,0 -5.0012,-1.1541 -2.1984,-1.2091 -3.4625,-3.1877 -1.2091,-2.0335 -1.2091,-4.4517 z m 19.1808,2.1984 q 0.6045,-0.7694 0.9343,-1.4839 0.3297,-0.7145 0.3297,-1.264 v -4.1769 q -1.8686,-0.7145 -3.9021,-1.0992 -1.9785,-0.3847 -4.012,-0.3847 -4.012,0 -6.4852,1.5938 -2.4731,1.5938 -2.4731,4.3417 0,1.5939 0.8244,3.0228 0.8243,1.374 2.4182,2.3083 1.5938,0.8793 3.7372,0.8793 2.693,0 5.0013,-1.0442 2.3632,-1.0442 3.6273,-2.693 z m 25.501,6.5951 q -3.1326,0 -5.7707,-1.1541 -2.5831,-1.2091 -4.5616,-3.2976 -1.9236,-2.0884 -3.0227,-4.7814 -1.0443,-2.693 -1.0443,-5.7158 0,-4.067 1.8137,-7.4195 1.8136,-3.3525 5.0562,-5.331 3.2426,-1.9786 7.4745,-1.9786 4.012,0 7.0897,1.8687 3.0777,1.8136 4.5616,4.9463 l -3.6273,1.1541 q -1.2091,-2.1983 -3.4074,-3.4074 -2.1435,-1.2641 -4.7815,-1.2641 -2.8579,0 -5.2211,1.4839 -2.3633,1.4839 -3.7922,4.067 -1.374,2.5831 -1.374,5.8806 0,3.2426 1.429,5.8806 1.4289,2.6381 3.7921,4.2319 2.3633,1.5389 5.2212,1.5389 1.8686,0 3.5723,-0.6595 1.7587,-0.6596 3.0228,-1.7587 1.319,-1.1542 1.7587,-2.4732 l 3.6822,1.0992 q -0.7694,2.0335 -2.5831,3.6822 -1.7586,1.5939 -4.1769,2.5282 -2.3632,0.8793 -5.1112,0.8793 z m 31.4917,-1.9236 q -0.4397,0.1649 -1.374,0.6046 -0.9343,0.4397 -2.2533,0.7694 -1.3191,0.3298 -2.8579,0.3298 -1.5938,0 -3.0228,-0.6046 -1.374,-0.6045 -2.1983,-1.8136 -0.8244,-1.2641 -0.8244,-3.0777 v -20.4998 h -3.9571 v -2.9678 h 3.9571 v -9.6728 h 3.7372 v 9.6728 h 6.5951 v 2.9678 h -6.5951 v 19.4555 q 0.1099,1.5389 1.0992,2.3083 1.0442,0.7694 2.3632,0.7694 1.5389,0 2.8029,-0.4946 1.2641,-0.5496 1.5389,-0.7694 z m 4.3966,-10.4422 v -16.8175 h 3.7373 v 16.158 q 0,4.8914 1.6487,7.3096 1.7038,2.4182 5.0013,2.4182 2.1984,0 4.2319,-0.9343 2.0884,-0.9893 3.6822,-2.748 1.5939,-1.8137 2.4182,-4.1769 v -18.0266 h 3.7373 v 24.1271 q 0,0.7694 0.3297,1.1541 0.3298,0.3298 0.9893,0.3847 v 2.9678 q -0.6595,0.055 -1.0442,0.055 -0.3847,0.055 -0.7145,0.055 -1.0992,-0.1099 -1.9236,-0.8793 -0.7694,-0.7694 -0.8244,-1.8686 l -0.1099,-3.8472 q -1.8686,3.2976 -5.1112,5.1662 -3.1876,1.8686 -6.9248,1.8686 -4.5067,0 -6.815,-3.1327 -2.3083,-3.1326 -2.3083,-9.2331 z m 47.21,-13.52 q -3.7373,0.11 -6.5951,2.0885 -2.803,1.9785 -3.9571,5.4409 v 17.8068 h -3.7372 v -28.6337 h 3.5174 v 6.8699 q 1.4839,-3.0228 3.9021,-4.8914 2.4731,-1.8686 5.2211,-2.0884 0.5496,-0.055 0.9343,-0.055 0.4397,0 0.7145,0.055 z m 16.4877,25.8858 q -3.0777,0 -5.7157,-1.1541 -2.6381,-1.2091 -4.5617,-3.2426 -1.9235,-2.0885 -3.0227,-4.7815 -1.0442,-2.693 -1.0442,-5.7707 0,-4.012 1.8136,-7.3645 1.8686,-3.3525 5.1112,-5.3311 3.2426,-2.0335 7.3646,-2.0335 4.2318,0 7.3645,2.0335 3.1876,2.0335 5.0013,5.386 1.8136,3.2976 1.8136,7.2547 0,0.4396 0,0.8793 0,0.3847 -0.055,0.6046 h -24.5118 q 0.2748,3.0777 1.7037,5.4959 1.4839,2.3632 3.7922,3.7922 2.3632,1.3739 5.1112,1.3739 2.8029,0 5.2761,-1.4289 2.5281,-1.4289 3.5174,-3.7372 l 3.2426,0.8793 q -0.8794,2.0335 -2.693,3.6823 -1.8137,1.6488 -4.2869,2.5831 -2.4182,0.8793 -5.2211,0.8793 z M 768.1644,170.073 h 21.1593 q -0.2198,-3.1327 -1.7037,-5.496 -1.4289,-2.3632 -3.7922,-3.6822 -2.3083,-1.374 -5.1112,-1.374 -2.8029,0 -5.1112,1.374 -2.3083,1.319 -3.7922,3.7372 -1.4289,2.3632 -1.6488,5.441 z m 44.7368,-9.6729 q -3.7372,0.11 -6.5951,2.0885 -2.8029,1.9785 -3.957,5.4409 v 17.8068 h -3.7373 v -28.6337 h 3.5174 v 6.8699 q 1.4839,-3.0228 3.9021,-4.8914 2.4732,-1.8686 5.2212,-2.0884 0.5495,-0.055 0.9343,-0.055 0.4396,0 0.7144,0.055 z m 14.3993,25.8858 q -3.5174,0 -6.5401,-1.1541 -3.0228,-1.1542 -5.2212,-3.5174 l 1.5389,-2.6381 q 2.4182,2.2534 4.8364,3.2976 2.4732,0.9893 5.2211,0.9893 3.3525,0 5.441,-1.3191 2.0884,-1.3739 2.0884,-3.9021 0,-1.7037 -1.0442,-2.583 -0.9892,-0.9344 -2.9128,-1.4839 -1.8686,-0.6046 -4.5067,-1.2641 -2.9678,-0.8244 -5.0013,-1.7037 -1.9785,-0.9343 -3.0227,-2.3083 -0.9893,-1.429 -0.9893,-3.6823 0,-2.8029 1.374,-4.6166 1.4289,-1.8686 3.8471,-2.8029 2.4732,-0.9893 5.496,-0.9893 3.2975,0 5.8256,1.0443 2.5282,1.0442 4.122,2.9128 l -1.8137,2.5281 q -1.5388,-1.7587 -3.6822,-2.583 -2.0885,-0.8794 -4.6716,-0.8794 -1.7587,0 -3.3525,0.4946 -1.5938,0.4397 -2.638,1.5389 -0.9893,1.0442 -0.9893,2.9128 0,1.5389 0.7694,2.4182 0.7695,0.8244 2.3083,1.429 1.5389,0.5496 3.7922,1.2091 3.2426,0.8793 5.6608,1.8136 2.4182,0.8794 3.7372,2.3083 1.3191,1.429 1.3191,4.012 0,4.0121 -3.0228,6.2654 -3.0228,2.2533 -7.9691,2.2533 z"
     id="slogan"
     style="font-size:54.9592px;font-family:Raleway;-inkscape-font-specification:Raleway;white-space:pre;fill:#2d3047;stroke-width:16.7427"
     aria-label="optimisation for manufacturers" /><path
     id="name"
     style="font-weight:bold;font-size:166.993px;font-family:Montserrat;-inkscape-font-specification:'Montserrat Bold';letter-spacing:0.0978471px;white-space:pre;fill:#2d3047;stroke-width:10;paint-order:markers stroke fill"
     d="M 68.068359 3.1582031 C 55.822238 3.1582031 44.80083 5.7754177 35.003906 11.007812 C 25.206983 16.128941 17.525379 23.308571 11.958984 32.548828 C 6.5038565 41.677752 3.7773438 52.031187 3.7773438 63.609375 C 3.7773437 75.187563 6.5038565 85.597633 11.958984 94.837891 C 17.525379 103.96681 25.1523 111.14644 34.837891 116.37891 C 44.523481 121.50003 55.433572 124.06055 67.568359 124.06055 C 76.029351 124.06055 84.433545 122.7813 92.783203 120.2207 C 101.13286 117.66017 108.48044 113.98635 114.82617 109.19922 L 114.82617 61.773438 L 92.359375 61.773438 L 92.359375 61.771484 L 73.634766 61.771484 L 73.634766 86.59375 L 90.111328 86.59375 L 90.111328 96.005859 C 83.876934 99.345723 76.863305 101.01563 69.070312 101.01562 C 61.722587 101.01562 55.154295 99.457107 49.365234 96.339844 C 43.687507 93.11138 39.234389 88.658263 36.005859 82.980469 C 32.777329 77.302741 31.164062 70.845768 31.164062 63.609375 C 31.164062 56.261716 32.777329 49.75006 36.005859 44.072266 C 39.234389 38.394538 43.744142 33.996103 49.533203 30.878906 C 55.322264 27.761709 61.945238 26.203125 69.404297 26.203125 C 81.205085 26.203125 91.281201 30.60156 99.630859 39.396484 L 116.99805 23.365234 C 111.32025 16.796841 104.30669 11.787134 95.957031 8.3359375 C 87.60744 4.8848076 78.310616 3.1582031 68.068359 3.1582031 z M 303.56055 3.1582031 C 292.87302 3.1582031 283.80079 4.773423 276.3418 8.0019531 C 268.99407 11.230417 263.48246 15.626898 259.80859 21.193359 C 256.1348 26.648487 254.29883 32.771507 254.29883 39.5625 C 254.29883 47.355492 256.30275 53.58983 260.31055 58.265625 C 264.42974 62.941487 269.32813 66.337927 275.00586 68.453125 C 280.68365 70.56839 287.9746 72.683564 296.88086 74.798828 C 302.66992 76.13476 307.23436 77.359391 310.57422 78.472656 C 314.02542 79.585922 316.80856 81.087871 318.92383 82.980469 C 321.15036 84.761734 322.26367 87.044928 322.26367 89.828125 C 322.26367 93.613321 320.4277 96.673854 316.75391 99.011719 C 313.08004 101.23832 307.40236 102.35156 299.7207 102.35156 C 292.81831 102.35156 285.91606 101.23832 279.01367 99.011719 C 272.11135 96.785188 266.15433 93.835972 261.14453 90.162109 L 251.96094 110.53516 C 257.19333 114.54295 264.09564 117.82619 272.66797 120.38672 C 281.35163 122.83598 290.31248 124.06055 299.55273 124.06055 C 310.24026 124.06055 319.31444 122.44728 326.77344 119.21875 C 334.2325 115.99022 339.79886 111.64849 343.47266 106.19336 C 347.25785 100.62696 349.15039 94.503945 349.15039 87.824219 C 349.15039 80.031227 347.08983 73.851571 342.9707 69.287109 C 338.96284 64.722647 334.12109 61.382843 328.44336 59.267578 C 322.76557 57.152314 315.47266 55.037073 306.56641 52.921875 C 297.99408 51.029277 291.59374 49.136739 287.36328 47.244141 C 283.24415 45.240209 281.18359 42.234358 281.18359 38.226562 C 281.18359 34.2187 282.96488 30.990213 286.52734 28.541016 C 290.20121 26.091751 295.82421 24.867187 303.39453 24.867188 C 314.19339 24.867188 324.99209 27.929607 335.79102 34.052734 L 344.14062 13.511719 C 338.79683 10.171855 332.56249 7.611343 325.4375 5.8300781 C 318.31244 4.0488799 311.01954 3.1582031 303.56055 3.1582031 z M 690.61914 13.011719 L 690.61914 34.886719 L 676.75977 34.886719 L 676.75977 54.925781 L 690.61914 54.925781 L 690.61914 91.832031 C 690.61914 102.40822 693.51367 110.42378 699.30273 115.87891 C 705.2032 121.33403 713.49802 124.06055 724.18555 124.06055 C 728.30468 124.06055 732.20114 123.61528 735.875 122.72461 C 739.6602 121.72268 742.83205 120.27541 745.39258 118.38281 L 738.37891 100.01367 C 735.48438 102.2402 731.97857 103.35352 727.85938 103.35352 C 724.29691 103.35352 721.5137 102.35152 719.50977 100.34766 C 717.61717 98.232392 716.66992 95.283243 716.66992 91.498047 L 716.66992 54.925781 L 739.04688 54.925781 L 739.04688 34.886719 L 716.66992 34.886719 L 716.66992 13.011719 L 690.61914 13.011719 z M 173.04492 31.546875 C 163.582 31.546875 155.06447 33.550731 147.49414 37.558594 C 140.03515 41.455057 134.19147 46.910102 129.96094 53.923828 C 125.73048 60.937554 123.61523 68.89843 123.61523 77.804688 C 123.61523 86.710945 125.73048 94.669867 129.96094 101.68359 C 134.19147 108.69732 140.03515 114.209 147.49414 118.2168 C 155.06447 122.11333 163.582 124.06055 173.04492 124.06055 C 182.50785 124.06055 190.96868 122.11333 198.42773 118.2168 C 205.88673 114.209 211.73243 108.69732 215.96289 101.68359 C 220.19342 94.669867 222.30859 86.710945 222.30859 77.804688 C 222.30859 68.89843 220.19342 60.937554 215.96289 53.923828 C 211.73243 46.910102 205.88673 41.455057 198.42773 37.558594 C 190.96868 33.550731 182.50785 31.546875 173.04492 31.546875 z M 559.17969 31.546875 C 551.94336 31.546875 544.87505 32.494121 537.97266 34.386719 C 531.1816 36.279317 525.33596 38.951147 520.4375 42.402344 L 529.78906 60.603516 C 533.01759 58.042985 536.91405 56.039062 541.47852 54.591797 C 546.15438 53.033198 550.8867 52.253906 555.67383 52.253906 C 562.57615 52.253906 567.75193 53.812491 571.20312 56.929688 C 574.65432 59.935551 576.38086 64.27735 576.38086 69.955078 L 555.67383 69.955078 C 542.53704 69.955078 532.79495 72.34959 526.44922 77.136719 C 520.21482 81.923847 517.09766 88.492139 517.09766 96.841797 C 517.09766 102.07426 518.4336 106.75001 521.10547 110.86914 C 523.77733 114.98834 527.61911 118.21682 532.62891 120.55469 C 537.75003 122.89262 543.76167 124.06055 550.66406 124.06055 C 564.02345 124.06055 573.15232 119.88677 578.05078 111.53711 L 578.05078 122.72461 L 602.43164 122.72461 L 602.43164 71.458984 C 602.43164 58.099531 598.70313 48.1348 591.24414 41.566406 C 583.78508 34.88668 573.09574 31.546875 559.17969 31.546875 z M 790.58008 31.546875 C 781.56249 31.546875 773.38093 33.550731 766.0332 37.558594 C 758.79688 41.455057 753.06249 46.966737 748.83203 54.091797 C 744.71284 61.105523 742.65234 69.009763 742.65234 77.804688 C 742.65234 86.710945 744.76947 94.669867 749 101.68359 C 753.23046 108.69732 759.24216 114.209 767.03516 118.2168 C 774.82815 122.11333 783.789 124.06055 793.91992 124.06055 C 810.17384 124.06055 822.5312 119.21879 830.99219 109.5332 L 817.13281 94.503906 C 814.01562 97.50977 810.61918 99.736329 806.94531 101.18359 C 803.38278 102.51953 799.26369 103.1875 794.58789 103.1875 C 787.7969 103.1875 782.11915 101.57228 777.55469 98.34375 C 772.99016 95.11522 770.09569 90.718738 768.87109 85.152344 L 836.83789 85.152344 C 837.17182 80.810548 837.33789 78.472672 837.33789 78.138672 C 837.33789 68.787081 835.27929 60.60357 831.16016 53.589844 C 827.15236 46.464851 821.586 41.009806 814.46094 37.224609 C 807.33594 33.439413 799.37507 31.546875 790.58008 31.546875 z M 413.37695 32.882812 C 407.58783 32.882812 402.24416 33.884741 397.3457 35.888672 C 392.55857 37.892537 388.49611 40.787069 385.15625 44.572266 L 385.15625 34.21875 L 360.27344 34.21875 L 360.27344 124.06055 L 386.32422 124.06055 L 386.32422 78.972656 C 386.32422 71.179664 388.10544 65.335916 391.66797 61.439453 C 395.23043 57.43159 400.0175 55.427734 406.0293 55.427734 C 417.38482 55.427734 423.0625 62.496046 423.0625 76.634766 L 423.0625 124.06055 L 449.11328 124.06055 L 449.11328 78.972656 C 449.11328 71.179664 450.89457 65.335916 454.45703 61.439453 C 458.01956 57.43159 462.86327 55.427734 468.98633 55.427734 C 474.44146 55.427734 478.61524 57.208955 481.50977 60.771484 C 484.51563 64.222681 486.01953 69.509773 486.01953 76.634766 L 486.01953 124.06055 L 512.07031 124.06055 L 512.07031 72.626953 C 512.07031 59.378833 508.73051 49.470671 502.05078 42.902344 C 495.48245 36.222617 486.57622 32.882812 475.33203 32.882812 C 468.6523 32.882812 462.47272 34.164079 456.79492 36.724609 C 451.22853 39.285207 446.60941 42.90233 442.93555 47.578125 C 439.81835 42.790996 435.69925 39.173874 430.57812 36.724609 C 425.45706 34.164079 419.72268 32.882812 413.37695 32.882812 z M 670.23047 32.882812 C 663.32814 32.882812 657.20512 33.996125 651.86133 36.222656 C 646.62887 38.449254 642.45313 41.734376 639.33594 46.076172 L 639.33594 34.21875 L 614.45508 34.21875 L 614.45508 124.06055 L 640.50586 124.06055 L 640.50586 81.644531 C 640.50586 73.29494 642.6211 67.060602 646.85156 62.941406 C 651.08209 58.710944 656.92773 56.595703 664.38672 56.595703 C 665.38865 56.595703 667.33594 56.707021 670.23047 56.929688 L 670.23047 32.882812 z M 899.64258 32.882812 C 892.74025 32.882812 886.61723 33.996125 881.27344 36.222656 C 876.04098 38.449254 871.86524 41.734376 868.74805 46.076172 L 868.74805 34.21875 L 843.86719 34.21875 L 843.86719 124.06055 L 869.91797 124.06055 L 869.91797 81.644531 C 869.91797 73.29494 872.03321 67.060602 876.26367 62.941406 C 880.49413 58.710944 886.33782 56.595703 893.79688 56.595703 C 894.79881 56.595703 896.74805 56.707021 899.64258 56.929688 L 899.64258 32.882812 z M 790.74805 51.251953 C 796.53711 51.251953 801.4355 52.978491 805.44336 56.429688 C 809.45116 59.769551 811.90035 64.27735 812.79102 69.955078 L 768.53711 69.955078 C 769.42778 64.166017 771.87697 59.601582 775.88477 56.261719 C 779.89263 52.921855 784.84765 51.251953 790.74805 51.251953 z M 173.04492 52.921875 C 179.72465 52.921875 185.17963 55.205002 189.41016 59.769531 C 193.75195 64.22266 195.92383 70.234362 195.92383 77.804688 C 195.92383 85.375013 193.75195 91.441397 189.41016 96.005859 C 185.17963 100.45905 179.72465 102.68555 173.04492 102.68555 C 166.36526 102.68555 160.85553 100.45905 156.51367 96.005859 C 152.17188 91.441397 150 85.375013 150 77.804688 C 150 70.234362 152.17188 64.22266 156.51367 59.769531 C 160.85553 55.205002 166.36526 52.921875 173.04492 52.921875 z M 558.51172 85.152344 L 576.38086 85.152344 L 576.38086 94.335938 C 574.93359 98.3438 572.4844 101.40629 569.0332 103.52148 C 565.58201 105.52542 561.62891 106.52734 557.17578 106.52734 C 552.61132 106.52734 548.9942 105.5801 546.32227 103.6875 C 543.76173 101.68357 542.48047 99.011672 542.48047 95.671875 C 542.48047 88.658149 547.8242 85.152344 558.51172 85.152344 z " /><path
     id="icon"
     style="fill:#ffba49;fill-opacity:1;stroke:none;stroke-width:2.24754;paint-order:markers stroke fill"
     d="M 247.4935,2.3106714 199.46689,73.529737 h 37.67988 l -7.36907,51.379693 48.02666,-71.218918 h -37.67991 z" /></svg>
