<?xml version="1.0" encoding="UTF-8" standalone="no"?>
<!-- Created with Inkscape (http://www.inkscape.org/) -->

<svg
   width="1200"
   height="628"
   viewBox="0 0 1200 628"
   version="1.1"
   id="svg5"
   xml:space="preserve"
   sodipodi:docname="GoSmarter_logo_banner_INKSCAPE.svg"
   inkscape:export-filename="GoSmarter_banner"
   inkscape:export-xdpi="96"
   inkscape:export-ydpi="96"
   inkscape:version="1.3.2 (091e20e, 2023-11-25, custom)"
   xmlns:inkscape="http://www.inkscape.org/namespaces/inkscape"
   xmlns:sodipodi="http://sodipodi.sourceforge.net/DTD/sodipodi-0.dtd"
   xmlns="http://www.w3.org/2000/svg"
   xmlns:svg="http://www.w3.org/2000/svg"><sodipodi:namedview
     id="namedview1"
     pagecolor="#505050"
     bordercolor="#ffffff"
     borderopacity="1"
     inkscape:showpageshadow="0"
     inkscape:pageopacity="0"
     inkscape:pagecheckerboard="1"
     inkscape:deskcolor="#505050"
     inkscape:zoom="1.1157406"
     inkscape:cx="687.88391"
     inkscape:cy="43.468885"
     inkscape:window-width="3840"
     inkscape:window-height="2066"
     inkscape:window-x="-11"
     inkscape:window-y="-11"
     inkscape:window-maximized="1"
     inkscape:current-layer="svg5" /><defs
     id="defs2" /><rect
     style="fill:#2d3047;stroke-width:16;stroke-linecap:round;stroke-linejoin:round;paint-order:markers stroke fill"
     id="rect1"
     width="1200"
     height="628"
     x="0"
     y="0" /><g
     id="g2"
     transform="translate(8.066391,-396.48805)"><path
       d="m 219.53016,799.48735 q -3.0777,0 -5.7157,-1.1541 -2.5831,-1.2091 -4.5067,-3.2426 -1.8686,-2.0885 -2.9128,-4.7265 -1.0442,-2.693 -1.0442,-5.6608 0,-3.0777 1.0442,-5.7158 1.0442,-2.693 2.9678,-4.7265 1.9236,-2.0884 4.5066,-3.2426 2.6381,-1.2091 5.7158,-1.2091 3.0777,0 5.6608,1.2091 2.5831,1.1542 4.5066,3.2426 1.9236,2.0335 2.9678,4.7265 1.0443,2.6381 1.0443,5.7158 0,2.9678 -1.0443,5.6608 -1.0442,2.638 -2.9678,4.7265 -1.8686,2.0335 -4.5066,3.2426 -2.5831,1.1541 -5.7158,1.1541 z m -10.3873,-14.7291 q 0,3.1877 1.374,5.8257 1.429,2.5831 3.7922,4.122 2.3633,1.4839 5.2211,1.4839 2.8579,0 5.2212,-1.5389 2.3632,-1.5389 3.7921,-4.1769 1.429,-2.693 1.429,-5.8257 0,-3.1876 -1.429,-5.8256 -1.4289,-2.6381 -3.7921,-4.1769 -2.3633,-1.5389 -5.2212,-1.5389 -2.8578,0 -5.2211,1.5938 -2.3083,1.5938 -3.7372,4.2319 -1.429,2.5831 -1.429,5.8256 z m 45.5062,14.7291 q -3.5723,0 -6.4302,-1.8686 -2.8029,-1.8686 -4.4517,-4.6166 v 17.6419 h -3.7372 v -40.34 h 3.3525 v 5.5509 q 1.7037,-2.693 4.5616,-4.3418 2.8579,-1.7038 6.1005,-1.7038 2.9678,0 5.4409,1.2641 2.4732,1.2091 4.2869,3.2976 1.8136,2.0884 2.8029,4.7814 1.0442,2.6381 1.0442,5.4959 0,4.0121 -1.6488,7.4195 -1.5938,3.3525 -4.5066,5.386 -2.9129,2.0335 -6.815,2.0335 z m -1.0442,-3.2975 q 2.3632,0 4.2319,-0.9343 1.8686,-0.9893 3.1876,-2.6381 1.374,-1.6488 2.0884,-3.6823 0.7145,-2.0884 0.7145,-4.2868 0,-2.3083 -0.8244,-4.3967 -0.7694,-2.0885 -2.2533,-3.6823 -1.4839,-1.5938 -3.4075,-2.5281 -1.9235,-0.9343 -4.1769,-0.9343 -1.4289,0 -2.9678,0.5496 -1.5388,0.5496 -2.9678,1.5938 -1.3739,0.9893 -2.3083,2.2533 -0.9343,1.2641 -1.1541,2.693 v 8.7935 q 0.8793,2.0335 2.3632,3.6823 1.4839,1.5938 3.4075,2.5831 1.9785,0.9343 4.067,0.9343 z m 33.6351,1.3739 q -0.4397,0.1649 -1.374,0.6046 -0.9343,0.4397 -2.2533,0.7694 -1.319,0.3298 -2.8579,0.3298 -1.5938,0 -3.0227,-0.6046 -1.374,-0.6045 -2.1984,-1.8136 -0.8244,-1.2641 -0.8244,-3.0777 v -20.4998 h -3.9571 v -2.9678 h 3.9571 v -9.6728 h 3.7372 v 9.6728 h 6.5951 v 2.9678 h -6.5951 v 19.4555 q 0.1099,1.5389 1.0992,2.3083 1.0442,0.7694 2.3633,0.7694 1.5388,0 2.8029,-0.4946 1.264,-0.5496 1.5388,-0.7694 z m 4.6715,1.374 v -28.6337 h 3.7372 v 28.6337 z m 0,-34.6243 v -5.4959 h 3.7372 v 5.4959 z m 54.5745,34.6243 h -3.7372 v -15.9931 q 0,-5.0013 -1.5939,-7.3645 -1.5938,-2.3633 -4.7264,-2.3633 -3.2426,0 -5.8257,2.3083 -2.5281,2.3083 -3.5724,5.9356 v 17.477 h -3.7372 v -15.9931 q 0,-5.0563 -1.5389,-7.3645 -1.5388,-2.3633 -4.7264,-2.3633 -3.1877,0 -5.7708,2.2533 -2.583,2.2534 -3.6273,5.9356 v 17.532 h -3.7372 v -28.6337 h 3.4075 v 6.4852 q 1.8136,-3.3525 4.6165,-5.1662 2.8579,-1.8137 6.3204,-1.8137 3.5723,0 5.7707,2.0335 2.1983,2.0335 2.693,5.3311 1.9785,-3.6273 4.7265,-5.4959 2.8029,-1.8687 6.3203,-1.8687 2.4182,0 4.067,0.8794 1.7037,0.8793 2.693,2.5281 1.0442,1.5938 1.4839,3.9021 0.4946,2.2533 0.4946,5.0563 z m 7.9141,0 v -28.6337 h 3.7373 v 28.6337 z m 0,-34.6243 v -5.4959 h 3.7373 v 5.4959 z m 21.3792,35.1739 q -3.5174,0 -6.5401,-1.1541 -3.0228,-1.1542 -5.2212,-3.5174 l 1.5389,-2.6381 q 2.4182,2.2534 4.8364,3.2976 2.4732,0.9893 5.2211,0.9893 3.3525,0 5.441,-1.3191 2.0884,-1.3739 2.0884,-3.9021 0,-1.7037 -1.0442,-2.583 -0.9893,-0.9344 -2.9128,-1.4839 -1.8686,-0.6046 -4.5067,-1.2641 -2.9678,-0.8244 -5.0013,-1.7037 -1.9785,-0.9343 -3.0227,-2.3083 -0.9893,-1.429 -0.9893,-3.6823 0,-2.8029 1.374,-4.6166 1.4289,-1.8686 3.8471,-2.8029 2.4732,-0.9893 5.4959,-0.9893 3.2976,0 5.8257,1.0443 2.5281,1.0442 4.122,2.9128 l -1.8137,2.5281 q -1.5388,-1.7587 -3.6823,-2.583 -2.0884,-0.8794 -4.6715,-0.8794 -1.7587,0 -3.3525,0.4946 -1.5938,0.4397 -2.638,1.5389 -0.9893,1.0442 -0.9893,2.9128 0,1.5389 0.7694,2.4182 0.7695,0.8244 2.3083,1.429 1.5389,0.5496 3.7922,1.2091 3.2426,0.8793 5.6608,1.8136 2.4182,0.8794 3.7372,2.3083 1.319,1.429 1.319,4.012 0,4.0121 -3.0227,6.2654 -3.0228,2.2533 -7.9691,2.2533 z m 14.839,-8.7935 q 0,-2.693 1.5388,-4.6165 1.5389,-1.9786 4.2319,-3.0228 2.748,-1.0992 6.3203,-1.0992 2.0885,0 4.3418,0.3298 2.2533,0.3297 4.012,0.9893 v -2.4183 q 0,-3.6273 -2.1434,-5.7707 -2.1434,-2.1434 -5.9356,-2.1434 -2.3083,0 -4.5616,0.8794 -2.1984,0.8244 -4.6166,2.4731 l -1.4289,-2.638 q 2.8029,-1.9236 5.4959,-2.8579 2.693,-0.9893 5.4959,-0.9893 5.2761,0 8.3538,3.0228 3.0777,3.0228 3.0777,8.3538 v 13.2452 q 0,0.7694 0.3298,1.1541 0.3297,0.3298 1.0442,0.3847 v 2.9678 q -0.6045,0.055 -1.0442,0.1099 -0.4397,0.055 -0.6595,0 -1.374,-0.055 -2.0885,-0.8793 -0.7144,-0.8244 -0.7694,-1.7587 l -0.055,-2.0884 q -1.9235,2.4731 -5.0013,3.8471 -3.0777,1.319 -6.2653,1.319 -2.748,0 -5.0013,-1.1541 -2.1984,-1.2091 -3.4624,-3.1877 -1.2091,-2.0335 -1.2091,-4.4517 z m 19.1807,2.1984 q 0.6046,-0.7694 0.9343,-1.4839 0.3298,-0.7145 0.3298,-1.264 v -4.1769 q -1.8686,-0.7145 -3.9021,-1.0992 -1.9785,-0.3847 -4.012,-0.3847 -4.012,0 -6.4852,1.5938 -2.4732,1.5938 -2.4732,4.3417 0,1.5939 0.8244,3.0228 0.8244,1.374 2.4182,2.3083 1.5938,0.8793 3.7372,0.8793 2.693,0 5.0013,-1.0442 2.3633,-1.0442 3.6273,-2.693 z m 26.6003,4.6715 q -0.4397,0.1649 -1.374,0.6046 -0.9343,0.4397 -2.2533,0.7694 -1.319,0.3298 -2.8579,0.3298 -1.5938,0 -3.0227,-0.6046 -1.374,-0.6045 -2.1984,-1.8136 -0.8244,-1.2641 -0.8244,-3.0777 v -20.4998 h -3.9571 v -2.9678 h 3.9571 v -9.6728 h 3.7372 v 9.6728 h 6.5951 v 2.9678 h -6.5951 v 19.4555 q 0.11,1.5389 1.0992,2.3083 1.0442,0.7694 2.3633,0.7694 1.5388,0 2.8029,-0.4946 1.264,-0.5496 1.5388,-0.7694 z m 4.6715,1.374 v -28.6337 h 3.7372 v 28.6337 z m 0,-34.6243 v -5.4959 h 3.7372 v 5.4959 z m 24.1821,35.1739 q -3.0778,0 -5.7158,-1.1541 -2.5831,-1.2091 -4.5067,-3.2426 -1.8686,-2.0885 -2.9128,-4.7265 -1.0442,-2.693 -1.0442,-5.6608 0,-3.0777 1.0442,-5.7158 1.0442,-2.693 2.9678,-4.7265 1.9236,-2.0884 4.5067,-3.2426 2.638,-1.2091 5.7157,-1.2091 3.0777,0 5.6608,1.2091 2.5831,1.1542 4.5067,3.2426 1.9235,2.0335 2.9678,4.7265 1.0442,2.6381 1.0442,5.7158 0,2.9678 -1.0442,5.6608 -1.0443,2.638 -2.9678,4.7265 -1.8686,2.0335 -4.5067,3.2426 -2.5831,1.1541 -5.7157,1.1541 z m -10.3873,-14.7291 q 0,3.1877 1.3739,5.8257 1.429,2.5831 3.7922,4.122 2.3633,1.4839 5.2212,1.4839 2.8578,0 5.2211,-1.5389 2.3632,-1.5389 3.7922,-4.1769 1.4289,-2.693 1.4289,-5.8257 0,-3.1876 -1.4289,-5.8256 -1.429,-2.6381 -3.7922,-4.1769 -2.3633,-1.5389 -5.2211,-1.5389 -2.8579,0 -5.2212,1.5938 -2.3083,1.5938 -3.7372,4.2319 -1.4289,2.5831 -1.4289,5.8256 z m 54.9591,14.1795 h -3.7372 v -15.9931 q 0,-5.0563 -1.4839,-7.3645 -1.4839,-2.3633 -4.6715,-2.3633 -2.1984,0 -4.3418,1.0992 -2.1434,1.0442 -3.7922,2.9128 -1.5938,1.8137 -2.3083,4.1769 v 17.532 h -3.7372 v -28.6337 h 3.4075 v 6.4852 q 1.1541,-2.0885 3.0227,-3.6273 1.8686,-1.5939 4.2319,-2.4732 2.3632,-0.8794 4.8914,-0.8794 2.3632,0 4.012,0.8794 1.6487,0.8793 2.638,2.5281 0.9893,1.5938 1.429,3.9021 0.4396,2.2533 0.4396,5.0563 z m 23.3577,0 v -25.6659 h -3.9571 v -2.9678 h 3.9571 v -0.7694 q 0,-3.5174 0.9892,-6.0456 1.0443,-2.5281 2.9129,-3.8471 1.9235,-1.374 4.5066,-1.374 1.7038,0 3.2976,0.4946 1.5938,0.4947 2.7479,1.3191 l -1.1541,2.693 q -0.7145,-0.6046 -1.8686,-0.9343 -1.1542,-0.3298 -2.3083,-0.3298 -2.5831,0 -4.012,2.0335 -1.374,2.0335 -1.374,5.8806 v 0.8794 h 7.9141 v 2.9678 h -7.9141 v 25.6659 z m 28.0841,0.5496 q -3.0777,0 -5.7158,-1.1541 -2.5831,-1.2091 -4.5066,-3.2426 -1.8687,-2.0885 -2.9129,-4.7265 -1.0442,-2.693 -1.0442,-5.6608 0,-3.0777 1.0442,-5.7158 1.0442,-2.693 2.9678,-4.7265 1.9236,-2.0884 4.5067,-3.2426 2.638,-1.2091 5.7157,-1.2091 3.0777,0 5.6608,1.2091 2.5831,1.1542 4.5067,3.2426 1.9236,2.0335 2.9678,4.7265 1.0442,2.6381 1.0442,5.7158 0,2.9678 -1.0442,5.6608 -1.0442,2.638 -2.9678,4.7265 -1.8686,2.0335 -4.5067,3.2426 -2.5831,1.1541 -5.7157,1.1541 z m -10.3873,-14.7291 q 0,3.1877 1.374,5.8257 1.4289,2.5831 3.7921,4.122 2.3633,1.4839 5.2212,1.4839 2.8578,0 5.2211,-1.5389 2.3632,-1.5389 3.7922,-4.1769 1.4289,-2.693 1.4289,-5.8257 0,-3.1876 -1.4289,-5.8256 -1.429,-2.6381 -3.7922,-4.1769 -2.3633,-1.5389 -5.2211,-1.5389 -2.8579,0 -5.2212,1.5938 -2.3082,1.5938 -3.7372,4.2319 -1.4289,2.5831 -1.4289,5.8256 z m 45.1764,-11.1567 q -3.7372,0.11 -6.5951,2.0885 -2.8029,1.9785 -3.9571,5.4409 v 17.8068 h -3.7372 v -28.6337 h 3.5174 v 6.8699 q 1.4839,-3.0228 3.9021,-4.8914 2.4732,-1.8686 5.2211,-2.0884 0.5496,-0.055 0.9343,-0.055 0.4397,0 0.7145,0.055 z m 60.3451,25.3362 h -3.7372 v -15.9931 q 0,-5.0013 -1.5938,-7.3645 -1.5938,-2.3633 -4.7265,-2.3633 -3.2426,0 -5.8257,2.3083 -2.5281,2.3083 -3.5723,5.9356 v 17.477 h -3.7373 v -15.9931 q 0,-5.0563 -1.5388,-7.3645 -1.5389,-2.3633 -4.7265,-2.3633 -3.1876,0 -5.7707,2.2533 -2.5831,2.2534 -3.6273,5.9356 v 17.532 h -3.7373 v -28.6337 h 3.4075 v 6.4852 q 1.8137,-3.3525 4.6166,-5.1662 2.8579,-1.8137 6.3203,-1.8137 3.5723,0 5.7707,2.0335 2.1984,2.0335 2.693,5.3311 1.9785,-3.6273 4.7265,-5.4959 2.8029,-1.8687 6.3203,-1.8687 2.4182,0 4.067,0.8794 1.7037,0.8793 2.693,2.5281 1.0442,1.5938 1.4839,3.9021 0.4946,2.2533 0.4946,5.0563 z m 5.6059,-8.2439 q 0,-2.693 1.5389,-4.6165 1.5388,-1.9786 4.2318,-3.0228 2.748,-1.0992 6.3203,-1.0992 2.0885,0 4.3418,0.3298 2.2533,0.3297 4.012,0.9893 v -2.4183 q 0,-3.6273 -2.1434,-5.7707 -2.1434,-2.1434 -5.9356,-2.1434 -2.3083,0 -4.5616,0.8794 -2.1984,0.8244 -4.6166,2.4731 l -1.4289,-2.638 q 2.8029,-1.9236 5.4959,-2.8579 2.693,-0.9893 5.4959,-0.9893 5.2761,0 8.3538,3.0228 3.0777,3.0228 3.0777,8.3538 v 13.2452 q 0,0.7694 0.3298,1.1541 0.3298,0.3298 1.0442,0.3847 v 2.9678 q -0.6045,0.055 -1.0442,0.1099 -0.4397,0.055 -0.6595,0 -1.374,-0.055 -2.0885,-0.8793 -0.7144,-0.8244 -0.7694,-1.7587 l -0.055,-2.0884 q -1.9236,2.4731 -5.0013,3.8471 -3.0777,1.319 -6.2654,1.319 -2.7479,0 -5.0013,-1.1541 -2.1983,-1.2091 -3.4624,-3.1877 -1.2091,-2.0335 -1.2091,-4.4517 z m 19.1808,2.1984 q 0.6045,-0.7694 0.9343,-1.4839 0.3297,-0.7145 0.3297,-1.264 v -4.1769 q -1.8686,-0.7145 -3.9021,-1.0992 -1.9785,-0.3847 -4.012,-0.3847 -4.012,0 -6.4852,1.5938 -2.4732,1.5938 -2.4732,4.3417 0,1.5939 0.8244,3.0228 0.8244,1.374 2.4182,2.3083 1.5939,0.8793 3.7373,0.8793 2.693,0 5.0013,-1.0442 2.3632,-1.0442 3.6273,-2.693 z m 37.1524,6.0455 h -3.7373 v -15.9931 q 0,-5.0563 -1.4839,-7.3645 -1.4838,-2.3633 -4.6715,-2.3633 -2.1984,0 -4.3418,1.0992 -2.1434,1.0442 -3.7921,2.9128 -1.5939,1.8137 -2.3083,4.1769 v 17.532 h -3.7373 v -28.6337 h 3.4075 v 6.4852 q 1.1542,-2.0885 3.0228,-3.6273 1.8686,-1.5939 4.2318,-2.4732 2.3633,-0.8794 4.8914,-0.8794 2.3632,0 4.012,0.8794 1.6488,0.8793 2.6381,2.5281 0.9892,1.5938 1.4289,3.9021 0.4397,2.2533 0.4397,5.0563 z m 7.6942,-11.8162 v -16.8175 h 3.7373 v 16.158 q 0,4.8914 1.6487,7.3096 1.7038,2.4182 5.0013,2.4182 2.1984,0 4.2319,-0.9343 2.0884,-0.9893 3.6823,-2.748 1.5938,-1.8137 2.4182,-4.1769 v -18.0266 h 3.7372 v 24.1271 q 0,0.7694 0.3297,1.1541 0.3298,0.3298 0.9893,0.3847 v 2.9678 q -0.6595,0.055 -1.0442,0.055 -0.3847,0.055 -0.7145,0.055 -1.0992,-0.1099 -1.9236,-0.8793 -0.7694,-0.7694 -0.8243,-1.8686 l -0.11,-3.8472 q -1.8686,3.2976 -5.1112,5.1662 -3.1876,1.8686 -6.9248,1.8686 -4.5067,0 -6.815,-3.1327 -2.3083,-3.1326 -2.3083,-9.2331 z m 34.2946,11.8162 v -25.6659 h -3.957 v -2.9678 h 3.957 v -0.7694 q 0,-3.5174 0.9893,-6.0456 1.0442,-2.5281 2.9128,-3.8471 1.9236,-1.374 4.5067,-1.374 1.7037,0 3.2975,0.4946 1.5939,0.4947 2.748,1.3191 l -1.1541,2.693 q -0.7145,-0.6046 -1.8687,-0.9343 -1.1541,-0.3298 -2.3082,-0.3298 -2.5831,0 -4.0121,2.0335 -1.3739,2.0335 -1.3739,5.8806 v 0.8794 h 7.9141 v 2.9678 h -7.9141 v 25.6659 z m 14.3443,-8.2439 q 0,-2.693 1.5389,-4.6165 1.5388,-1.9786 4.2318,-3.0228 2.748,-1.0992 6.3203,-1.0992 2.0885,0 4.3418,0.3298 2.2533,0.3297 4.012,0.9893 v -2.4183 q 0,-3.6273 -2.1434,-5.7707 -2.1434,-2.1434 -5.9356,-2.1434 -2.3082,0 -4.5616,0.8794 -2.1983,0.8244 -4.6165,2.4731 l -1.429,-2.638 q 2.8029,-1.9236 5.4959,-2.8579 2.693,-0.9893 5.496,-0.9893 5.276,0 8.3538,3.0228 3.0777,3.0228 3.0777,8.3538 v 13.2452 q 0,0.7694 0.3297,1.1541 0.3298,0.3298 1.0442,0.3847 v 2.9678 q -0.6045,0.055 -1.0442,0.1099 -0.4397,0.055 -0.6595,0 -1.374,-0.055 -2.0884,-0.8793 -0.7145,-0.8244 -0.7695,-1.7587 l -0.055,-2.0884 q -1.9236,2.4731 -5.0013,3.8471 -3.0777,1.319 -6.2654,1.319 -2.7479,0 -5.0012,-1.1541 -2.1984,-1.2091 -3.4625,-3.1877 -1.2091,-2.0335 -1.2091,-4.4517 z m 19.1808,2.1984 q 0.6045,-0.7694 0.9343,-1.4839 0.3297,-0.7145 0.3297,-1.264 v -4.1769 q -1.8686,-0.7145 -3.9021,-1.0992 -1.9785,-0.3847 -4.012,-0.3847 -4.012,0 -6.4852,1.5938 -2.4731,1.5938 -2.4731,4.3417 0,1.5939 0.8244,3.0228 0.8243,1.374 2.4182,2.3083 1.5938,0.8793 3.7372,0.8793 2.693,0 5.0013,-1.0442 2.3632,-1.0442 3.6273,-2.693 z m 25.501,6.5951 q -3.1326,0 -5.7707,-1.1541 -2.5831,-1.2091 -4.5616,-3.2976 -1.9236,-2.0884 -3.0227,-4.7814 -1.0443,-2.693 -1.0443,-5.7158 0,-4.067 1.8137,-7.4195 1.8136,-3.3525 5.0562,-5.331 3.2426,-1.9786 7.4745,-1.9786 4.012,0 7.0897,1.8687 3.0777,1.8136 4.5616,4.9463 l -3.6273,1.1541 q -1.2091,-2.1983 -3.4074,-3.4074 -2.1435,-1.2641 -4.7815,-1.2641 -2.8579,0 -5.2211,1.4839 -2.3633,1.4839 -3.7922,4.067 -1.374,2.5831 -1.374,5.8806 0,3.2426 1.429,5.8806 1.4289,2.6381 3.7921,4.2319 2.3633,1.5389 5.2212,1.5389 1.8686,0 3.5723,-0.6595 1.7587,-0.6596 3.0228,-1.7587 1.319,-1.1542 1.7587,-2.4732 l 3.6822,1.0992 q -0.7694,2.0335 -2.5831,3.6822 -1.7586,1.5939 -4.1769,2.5282 -2.3632,0.8793 -5.1112,0.8793 z m 31.4917,-1.9236 q -0.4397,0.1649 -1.374,0.6046 -0.9343,0.4397 -2.2533,0.7694 -1.3191,0.3298 -2.8579,0.3298 -1.5938,0 -3.0228,-0.6046 -1.374,-0.6045 -2.1983,-1.8136 -0.8244,-1.2641 -0.8244,-3.0777 v -20.4998 h -3.9571 v -2.9678 h 3.9571 v -9.6728 h 3.7372 v 9.6728 h 6.5951 v 2.9678 h -6.5951 v 19.4555 q 0.1099,1.5389 1.0992,2.3083 1.0442,0.7694 2.3632,0.7694 1.5389,0 2.8029,-0.4946 1.2641,-0.5496 1.5389,-0.7694 z m 4.3966,-10.4422 v -16.8175 h 3.7373 v 16.158 q 0,4.8914 1.6487,7.3096 1.7038,2.4182 5.0013,2.4182 2.1984,0 4.2319,-0.9343 2.0884,-0.9893 3.6822,-2.748 1.5939,-1.8137 2.4182,-4.1769 v -18.0266 h 3.7373 v 24.1271 q 0,0.7694 0.3297,1.1541 0.3298,0.3298 0.9893,0.3847 v 2.9678 q -0.6595,0.055 -1.0442,0.055 -0.3847,0.055 -0.7145,0.055 -1.0992,-0.1099 -1.9236,-0.8793 -0.7694,-0.7694 -0.8244,-1.8686 l -0.1099,-3.8472 q -1.8686,3.2976 -5.1112,5.1662 -3.1876,1.8686 -6.9248,1.8686 -4.5067,0 -6.815,-3.1327 -2.3083,-3.1326 -2.3083,-9.2331 z m 47.21,-13.52 q -3.7373,0.11 -6.5951,2.0885 -2.803,1.9785 -3.9571,5.4409 v 17.8068 h -3.7372 v -28.6337 h 3.5174 v 6.8699 q 1.4839,-3.0228 3.9021,-4.8914 2.4731,-1.8686 5.2211,-2.0884 0.5496,-0.055 0.9343,-0.055 0.4397,0 0.7145,0.055 z m 16.4877,25.8858 q -3.0777,0 -5.7157,-1.1541 -2.6381,-1.2091 -4.5617,-3.2426 -1.9235,-2.0885 -3.0227,-4.7815 -1.0442,-2.693 -1.0442,-5.7707 0,-4.012 1.8136,-7.3645 1.8686,-3.3525 5.1112,-5.3311 3.2426,-2.0335 7.3646,-2.0335 4.2318,0 7.3645,2.0335 3.1876,2.0335 5.0013,5.386 1.8136,3.2976 1.8136,7.2547 0,0.4396 0,0.8793 0,0.3847 -0.055,0.6046 h -24.5118 q 0.2748,3.0777 1.7037,5.4959 1.4839,2.3632 3.7922,3.7922 2.3632,1.3739 5.1112,1.3739 2.8029,0 5.2761,-1.4289 2.5281,-1.4289 3.5174,-3.7372 l 3.2426,0.8793 q -0.8794,2.0335 -2.693,3.6823 -1.8137,1.6488 -4.2869,2.5831 -2.4182,0.8793 -5.2211,0.8793 z m -10.5522,-16.2129 h 21.1593 q -0.2198,-3.1327 -1.7037,-5.496 -1.4289,-2.3632 -3.7922,-3.6822 -2.3083,-1.374 -5.1112,-1.374 -2.8029,0 -5.1112,1.374 -2.3083,1.319 -3.7922,3.7372 -1.4289,2.3632 -1.6488,5.441 z m 44.7368,-9.6729 q -3.7372,0.11 -6.5951,2.0885 -2.8029,1.9785 -3.957,5.4409 v 17.8068 h -3.7373 v -28.6337 h 3.5174 v 6.8699 q 1.4839,-3.0228 3.9021,-4.8914 2.4732,-1.8686 5.2212,-2.0884 0.5495,-0.055 0.9343,-0.055 0.4396,0 0.7144,0.055 z m 14.3993,25.8858 q -3.5174,0 -6.5401,-1.1541 -3.0228,-1.1542 -5.2212,-3.5174 l 1.5389,-2.6381 q 2.4182,2.2534 4.8364,3.2976 2.4732,0.9893 5.2211,0.9893 3.3525,0 5.441,-1.3191 2.0884,-1.3739 2.0884,-3.9021 0,-1.7037 -1.0442,-2.583 -0.9892,-0.9344 -2.9128,-1.4839 -1.8686,-0.6046 -4.5067,-1.2641 -2.9678,-0.8244 -5.0013,-1.7037 -1.9785,-0.9343 -3.0227,-2.3083 -0.9893,-1.429 -0.9893,-3.6823 0,-2.8029 1.374,-4.6166 1.4289,-1.8686 3.8471,-2.8029 2.4732,-0.9893 5.496,-0.9893 3.2975,0 5.8256,1.0443 2.5282,1.0442 4.122,2.9128 l -1.8137,2.5281 q -1.5388,-1.7587 -3.6822,-2.583 -2.0885,-0.8794 -4.6716,-0.8794 -1.7587,0 -3.3525,0.4946 -1.5938,0.4397 -2.638,1.5389 -0.9893,1.0442 -0.9893,2.9128 0,1.5389 0.7694,2.4182 0.7695,0.8244 2.3083,1.429 1.5389,0.5496 3.7922,1.2091 3.2426,0.8793 5.6608,1.8136 2.4182,0.8794 3.7372,2.3083 1.3191,1.429 1.3191,4.012 0,4.0121 -3.0228,6.2654 -3.0228,2.2533 -7.9691,2.2533 z"
       id="slogan"
       style="font-size:54.9592px;font-family:Raleway;-inkscape-font-specification:Raleway;white-space:pre;fill:#ffba49;stroke-width:16.7427"
       aria-label="optimisation for manufacturers" /><g
       id="g1"
       transform="translate(46.517758,64.555987)"><path
         id="name"
         style="font-weight:bold;font-size:166.993px;font-family:Montserrat;-inkscape-font-specification:'Montserrat Bold';letter-spacing:0.0978471px;white-space:pre;fill:#ffffff;stroke-width:10;paint-order:markers stroke fill"
         d="m 141.39268,546.66868 c -12.8968,0 -24.50373,2.75624 -34.82111,8.26662 -10.317378,5.39317 -18.407076,12.9543 -24.269201,22.6854 -5.744911,9.614 -8.616366,20.51744 -8.616366,32.71075 0,12.19331 2.871455,23.15636 8.616366,32.88757 5.862125,9.61389 13.894217,17.17492 24.094381,22.6854 10.20016,5.39317 21.68988,8.0897 34.46936,8.0897 8.91051,0 17.76109,-1.34716 26.55438,-4.0438 8.79329,-2.69653 16.53114,-6.56561 23.21407,-11.60703 v -49.94538 h -23.66038 v 0 H 147.2548 v 26.14092 h 17.35184 v 9.91224 c -6.56561,3.51723 -13.95182,5.27585 -22.15884,5.27585 -7.73805,0 -14.65531,-1.6413 -20.75196,-4.92421 -5.97934,-3.39991 -10.66902,-8.08959 -14.06904,-14.06904 -3.40012,-5.97944 -5.09903,-12.77937 -5.09903,-20.40022 0,-7.73806 1.69891,-14.5956 5.09903,-20.57504 3.40002,-5.97944 8.14931,-10.61151 14.24596,-13.89432 6.09666,-3.28281 13.07141,-4.92421 20.92679,-4.92421 12.42774,0 23.03915,4.63218 31.83244,13.89432 l 18.28975,-16.88299 c -5.97933,-6.91736 -13.36554,-12.19321 -22.15883,-15.82776 -8.79319,-3.63444 -18.5839,-5.45277 -29.37023,-5.45277 z m 248.00301,0 c -11.25529,0 -20.80946,1.70101 -28.66473,5.10113 -7.73806,3.39992 -13.54248,8.02999 -17.41156,13.89222 -3.86898,5.74491 -5.80252,12.19321 -5.80252,19.34499 0,8.20702 2.11047,14.77252 6.33109,19.69673 4.33803,4.92432 9.49667,8.50116 15.47611,10.72873 5.97945,2.22768 13.65769,4.45525 23.03715,6.68283 6.09655,1.40697 10.90355,2.69663 14.42078,3.86908 3.63455,1.17234 6.56561,2.75414 8.79319,4.74728 2.34489,1.87583 3.51733,4.28033 3.51733,7.21139 0,3.9863 -1.93354,7.2095 -5.80251,9.6715 -3.86909,2.34489 -9.84832,3.51734 -17.93812,3.51734 -7.2691,0 -14.53799,-1.17245 -21.8071,-3.51734 -7.2691,-2.34479 -13.54257,-5.45067 -18.81853,-9.31975 l -9.67149,21.45545 c 5.51038,4.22073 12.77937,7.67835 21.8072,10.37488 9.14493,2.57943 18.58189,3.86898 28.31299,3.86898 11.2554,0 20.81158,-1.69891 28.66685,-5.09903 7.85538,-3.40002 13.7175,-7.97238 17.58648,-13.71729 3.98629,-5.86213 5.97934,-12.31053 5.97934,-19.3451 0,-8.20701 -2.17008,-14.71491 -6.50801,-19.52191 -4.22083,-4.807 -9.31975,-8.32423 -15.29909,-10.5518 -5.97944,-2.22768 -13.65979,-4.45526 -23.03925,-6.68283 -9.02772,-1.99315 -15.76815,-3.9863 -20.2233,-5.97944 -4.33793,-2.11036 -6.50801,-5.27585 -6.50801,-9.49657 0,-4.22083 1.87594,-7.62085 5.6276,-10.20017 3.86908,-2.57931 9.79081,-3.86897 17.7633,-3.86897 11.37261,0 22.74501,3.22509 34.11761,9.67349 l 8.79319,-21.63227 c -5.6277,-3.51724 -12.1932,-6.21387 -19.69673,-8.0897 -7.50364,-1.87583 -15.18398,-2.81385 -23.03926,-2.81385 z m 407.62175,10.37698 v 23.03715 h -14.5956 v 21.10371 h 14.5956 v 38.8669 c 0,11.13808 3.04838,19.57953 9.14493,25.32444 6.21398,5.74491 14.94945,8.61626 26.20474,8.61626 4.33804,0 8.44145,-0.46885 12.31053,-1.40687 3.98629,-1.05513 7.3266,-2.57932 10.02324,-4.57247 l -7.38632,-19.34499 c -3.04827,2.34479 -6.74033,3.51723 -11.07836,3.51723 -3.75177,0 -6.68283,-1.05523 -8.79319,-3.16548 -1.99315,-2.22768 -2.99078,-5.33356 -2.99078,-9.31986 v -38.51516 h 23.56582 v -21.10371 h -23.56582 v -23.03715 z m -545.07121,19.51992 c -9.96563,0 -18.93564,2.11025 -26.90823,6.33108 -7.85527,4.10351 -14.00932,9.84831 -18.46468,17.23463 -4.45515,7.38642 -6.68283,15.77015 -6.68283,25.14961 0,9.37936 2.22768,17.76119 6.68283,25.14751 4.45536,7.38631 10.60941,13.19083 18.46468,17.41155 7.97259,4.10351 16.9426,6.15416 26.90823,6.15416 9.96563,0 18.87603,-2.05065 26.73131,-6.15416 7.85527,-4.22072 14.01153,-10.02524 18.46678,-17.41155 4.45526,-7.38632 6.68283,-15.76815 6.68283,-25.14751 0,-9.37946 -2.22757,-17.76319 -6.68283,-25.14961 -4.45525,-7.38632 -10.61151,-13.13112 -18.46678,-17.23463 -7.85528,-4.22083 -16.76568,-6.33108 -26.73131,-6.33108 z m 406.64887,0 c -7.62074,0 -15.06466,0.99752 -22.33366,2.99067 -7.15189,1.99314 -13.30804,4.80689 -18.46679,8.44144 l 9.84842,19.16817 c 3.40002,-2.69653 7.50353,-4.80689 12.31042,-6.33108 4.92432,-1.64141 9.90803,-2.46211 14.94945,-2.46211 7.2691,0 12.71977,1.6414 16.35432,4.92421 3.63455,3.16559 5.45288,7.73806 5.45288,13.7174 h -21.8072 c -13.83471,0 -24.09438,2.52171 -30.7772,7.56313 -6.56562,5.04143 -9.84832,11.95868 -9.84832,20.75197 0,5.51048 1.40687,10.43459 4.22072,14.77252 2.81375,4.33804 6.85965,7.73806 12.1356,10.20017 5.39317,2.4621 11.72425,3.69205 18.99335,3.69205 14.06904,0 23.68293,-4.39544 28.84167,-13.18873 v 11.78186 h 25.67607 v -53.98918 c 0,-14.06924 -3.92658,-24.56333 -11.78185,-31.48069 -7.85528,-7.03457 -19.11257,-10.5518 -33.76788,-10.5518 z m 243.69394,0 c -9.49668,0 -18.11294,2.11025 -25.851,6.33108 -7.62074,4.10351 -13.65979,9.90792 -18.11504,17.41155 -4.33804,7.38632 -6.50801,15.71055 -6.50801,24.97269 0,9.37936 2.22968,17.76119 6.68494,25.14751 4.45525,7.38631 10.78633,13.19083 18.99335,17.41155 8.20691,4.10351 17.64387,6.15416 28.31299,6.15416 17.11742,0 30.13133,-5.09892 39.04183,-15.29909 l -14.5957,-15.82776 c -3.28281,3.1656 -6.85965,5.51038 -10.72873,7.03457 -3.75177,1.40688 -8.0897,2.11037 -13.01391,2.11037 -7.15178,0 -13.13123,-1.70102 -17.93812,-5.10114 -4.80699,-3.40002 -7.85527,-8.03009 -9.14493,-13.89222 h 71.57765 c 0.35164,-4.57246 0.52657,-7.03446 0.52657,-7.3862 0,-9.84842 -2.16797,-18.46669 -6.5059,-25.85311 -4.22073,-7.50342 -10.08285,-13.24833 -17.58648,-17.23463 -7.50353,-3.98629 -15.88726,-5.97933 -25.14951,-5.97933 z m -397.24266,1.40687 c -6.09676,0 -11.72425,1.05513 -16.88299,3.16559 -5.04142,2.11026 -9.31975,5.15864 -12.83708,9.14493 v -10.90365 h -26.20475 v 94.6148 h 27.4348 v -47.48317 c 0,-8.20701 1.87583,-14.36128 5.6277,-18.46468 3.75165,-4.22082 8.79308,-6.33119 15.12426,-6.33119 11.95878,0 17.93812,7.44382 17.93812,22.33377 v 49.94527 h 27.43479 v -47.48317 c 0,-8.20701 1.87594,-14.36128 5.6276,-18.46468 3.75187,-4.22082 8.8529,-6.33119 15.30119,-6.33119 5.74502,0 10.14045,1.87594 13.18883,5.6277 3.16549,3.63455 4.74929,9.20254 4.74929,16.70607 v 49.94527 h 27.43479 v -54.16599 c 0,-13.95204 -3.51723,-24.38652 -10.5518,-31.30388 -6.91725,-7.03457 -16.29671,-10.5518 -28.13828,-10.5518 -7.03457,0 -13.54247,1.34937 -19.52192,4.0459 -5.86212,2.69664 -10.72662,6.5059 -14.5957,11.43011 -3.28281,-5.04142 -7.62064,-8.85069 -13.01391,-11.43011 -5.39306,-2.69653 -11.43211,-4.0459 -18.11494,-4.0459 z m 270.49928,0 c -7.2691,0 -13.71739,1.17244 -19.34509,3.51734 -5.51038,2.34489 -9.90803,5.80451 -13.19084,10.37698 V 579.37932 H 716.8071 v 94.6148 h 27.43479 V 629.3247 c 0,-8.79319 2.22758,-15.3587 6.68283,-19.69674 4.45525,-4.45525 10.61141,-6.68282 18.46668,-6.68282 1.05523,0 3.10588,0.11721 6.15426,0.35174 z m 241.60004,0 c -7.269,0 -13.7174,1.17244 -19.34513,3.51734 -5.51038,2.34489 -9.90802,5.80451 -13.19083,10.37698 v -12.48745 h -26.20263 v 94.6148 H 985.8419 V 629.3247 c 0,-8.79319 2.22757,-15.3587 6.68283,-19.69674 4.45514,-4.45525 10.60927,-6.68282 18.46467,-6.68282 1.0551,0 3.1079,0.11721 6.1563,0.35174 z m -114.67984,19.34509 c 6.09665,0 11.25529,1.81823 15.47612,5.45278 4.22072,3.51734 6.79993,8.26462 7.73795,14.24396 h -46.60496 c 0.93802,-6.09666 3.51734,-10.90355 7.73806,-14.42089 4.22072,-3.51723 9.43907,-5.27585 15.65283,-5.27585 z m -650.51963,1.75862 c 7.03457,0 12.77938,2.40439 17.23474,7.21139 4.57246,4.68978 6.85964,11.02087 6.85964,18.99335 0,7.97249 -2.28718,14.36117 -6.85964,19.16817 -4.45536,4.68978 -10.20017,7.03447 -17.23474,7.03447 -7.03446,0 -12.83698,-2.34469 -17.40945,-7.03447 -4.57246,-4.807 -6.85975,-11.19568 -6.85975,-19.16817 0,-7.97248 2.28729,-14.30357 6.85975,-18.99335 4.57247,-4.807 10.37499,-7.21139 17.40945,-7.21139 z m 405.94538,33.94269 h 18.81853 v 9.6715 c -1.52419,4.22083 -4.10351,7.44603 -7.73806,9.6736 -3.63455,2.11036 -7.79766,3.16549 -12.48734,3.16549 -4.807,0 -8.61626,-0.99752 -11.43011,-2.99067 -2.69664,-2.11036 -4.0459,-4.92421 -4.0459,-8.44144 0,-7.38642 5.62759,-11.07848 16.88288,-11.07848 z" /><path
         id="icon"
         style="fill:#ffba49;fill-opacity:1;stroke:none;stroke-width:2.24754;paint-order:markers stroke fill"
         d="m 330.35004,545.77606 -50.57811,75.0027 h 39.68169 l -7.76056,54.10933 50.57816,-75.00255 H 322.5895 Z" /></g></g></svg>
