<?xml version="1.0" encoding="UTF-8" standalone="no"?>
<!-- Created with Inkscape (http://www.inkscape.org/) -->

<svg
   width="2000"
   height="434.51883"
   viewBox="0 0 2000.0001 434.51882"
   version="1.1"
   id="svg5"
   xml:space="preserve"
   xmlns="http://www.w3.org/2000/svg"
   xmlns:svg="http://www.w3.org/2000/svg"><defs
     id="defs2"><rect
       x="517.19812"
       y="1795.5133"
       width="206.07112"
       height="125.25892"
       id="rect879" /><style
       id="style2">.cls-1{fill:#fff;}</style><style
       id="style2-6">.cls-1{fill:#fff;}</style><rect
       x="517.19812"
       y="1795.5133"
       width="206.07112"
       height="125.25892"
       id="rect31" /><rect
       x="517.19812"
       y="1795.5133"
       width="206.07112"
       height="125.25892"
       id="rect53" /><rect
       x="517.19812"
       y="1795.5133"
       width="206.07112"
       height="125.25892"
       id="rect75" /><rect
       x="517.19812"
       y="1795.5133"
       width="206.07112"
       height="125.25892"
       id="rect879-0" /><rect
       x="517.19812"
       y="1795.5133"
       width="206.07112"
       height="125.25892"
       id="rect31-9" /><rect
       x="517.19812"
       y="1795.5133"
       width="206.07112"
       height="125.25892"
       id="rect53-4" /><rect
       x="517.19812"
       y="1795.5133"
       width="206.07112"
       height="125.25892"
       id="rect75-8" /></defs><g
     id="g3"
     transform="matrix(2.1198574,0,0,2.1198574,-614.18881,-2851.6637)"><g
       id="g2"
       transform="translate(216.04519,799.43879)"><path
         id="path1"
         style="font-weight:bold;font-size:166.993px;font-family:Montserrat;-inkscape-font-specification:'Montserrat Bold';letter-spacing:0.0978471px;white-space:pre;fill:#ffffff;stroke-width:10;paint-order:markers stroke fill"
         d="m 141.39268,546.66868 c -12.8968,0 -24.50373,2.75624 -34.82111,8.26662 -10.317378,5.39317 -18.407076,12.9543 -24.269201,22.6854 -5.744911,9.614 -8.616366,20.51744 -8.616366,32.71075 0,12.19331 2.871455,23.15636 8.616366,32.88757 5.862125,9.61389 13.894217,17.17492 24.094381,22.6854 10.20016,5.39317 21.68988,8.0897 34.46936,8.0897 8.91051,0 17.76109,-1.34716 26.55438,-4.0438 8.79329,-2.69653 16.53114,-6.56561 23.21407,-11.60703 v -49.94538 h -23.66038 v 0 H 147.2548 v 26.14092 h 17.35184 v 9.91224 c -6.56561,3.51723 -13.95182,5.27585 -22.15884,5.27585 -7.73805,0 -14.65531,-1.6413 -20.75196,-4.92421 -5.97934,-3.39991 -10.66902,-8.08959 -14.06904,-14.06904 -3.40012,-5.97944 -5.09903,-12.77937 -5.09903,-20.40022 0,-7.73806 1.69891,-14.5956 5.09903,-20.57504 3.40002,-5.97944 8.14931,-10.61151 14.24596,-13.89432 6.09666,-3.28281 13.07141,-4.92421 20.92679,-4.92421 12.42774,0 23.03915,4.63218 31.83244,13.89432 l 18.28975,-16.88299 c -5.97933,-6.91736 -13.36554,-12.19321 -22.15883,-15.82776 -8.79319,-3.63444 -18.5839,-5.45277 -29.37023,-5.45277 z m 248.00301,0 c -11.25529,0 -20.80946,1.70101 -28.66473,5.10113 -7.73806,3.39992 -13.54248,8.02999 -17.41156,13.89222 -3.86898,5.74491 -5.80252,12.19321 -5.80252,19.34499 0,8.20702 2.11047,14.77252 6.33109,19.69673 4.33803,4.92432 9.49667,8.50116 15.47611,10.72873 5.97945,2.22768 13.65769,4.45525 23.03715,6.68283 6.09655,1.40697 10.90355,2.69663 14.42078,3.86908 3.63455,1.17234 6.56561,2.75414 8.79319,4.74728 2.34489,1.87583 3.51733,4.28033 3.51733,7.21139 0,3.9863 -1.93354,7.2095 -5.80251,9.6715 -3.86909,2.34489 -9.84832,3.51734 -17.93812,3.51734 -7.2691,0 -14.53799,-1.17245 -21.8071,-3.51734 -7.2691,-2.34479 -13.54257,-5.45067 -18.81853,-9.31975 l -9.67149,21.45545 c 5.51038,4.22073 12.77937,7.67835 21.8072,10.37488 9.14493,2.57943 18.58189,3.86898 28.31299,3.86898 11.2554,0 20.81158,-1.69891 28.66685,-5.09903 7.85538,-3.40002 13.7175,-7.97238 17.58648,-13.71729 3.98629,-5.86213 5.97934,-12.31053 5.97934,-19.3451 0,-8.20701 -2.17008,-14.71491 -6.50801,-19.52191 -4.22083,-4.807 -9.31975,-8.32423 -15.29909,-10.5518 -5.97944,-2.22768 -13.65979,-4.45526 -23.03925,-6.68283 -9.02772,-1.99315 -15.76815,-3.9863 -20.2233,-5.97944 -4.33793,-2.11036 -6.50801,-5.27585 -6.50801,-9.49657 0,-4.22083 1.87594,-7.62085 5.6276,-10.20017 3.86908,-2.57931 9.79081,-3.86897 17.7633,-3.86897 11.37261,0 22.74501,3.22509 34.11761,9.67349 l 8.79319,-21.63227 c -5.6277,-3.51724 -12.1932,-6.21387 -19.69673,-8.0897 -7.50364,-1.87583 -15.18398,-2.81385 -23.03926,-2.81385 z m 407.62175,10.37698 v 23.03715 h -14.5956 v 21.10371 h 14.5956 v 38.8669 c 0,11.13808 3.04838,19.57953 9.14493,25.32444 6.21398,5.74491 14.94945,8.61626 26.20474,8.61626 4.33804,0 8.44145,-0.46885 12.31053,-1.40687 3.98629,-1.05513 7.3266,-2.57932 10.02324,-4.57247 l -7.38632,-19.34499 c -3.04827,2.34479 -6.74033,3.51723 -11.07836,3.51723 -3.75177,0 -6.68283,-1.05523 -8.79319,-3.16548 -1.99315,-2.22768 -2.99078,-5.33356 -2.99078,-9.31986 v -38.51516 h 23.56582 v -21.10371 h -23.56582 v -23.03715 z m -545.07121,19.51992 c -9.96563,0 -18.93564,2.11025 -26.90823,6.33108 -7.85527,4.10351 -14.00932,9.84831 -18.46468,17.23463 -4.45515,7.38642 -6.68283,15.77015 -6.68283,25.14961 0,9.37936 2.22768,17.76119 6.68283,25.14751 4.45536,7.38631 10.60941,13.19083 18.46468,17.41155 7.97259,4.10351 16.9426,6.15416 26.90823,6.15416 9.96563,0 18.87603,-2.05065 26.73131,-6.15416 7.85527,-4.22072 14.01153,-10.02524 18.46678,-17.41155 4.45526,-7.38632 6.68283,-15.76815 6.68283,-25.14751 0,-9.37946 -2.22757,-17.76319 -6.68283,-25.14961 -4.45525,-7.38632 -10.61151,-13.13112 -18.46678,-17.23463 -7.85528,-4.22083 -16.76568,-6.33108 -26.73131,-6.33108 z m 406.64887,0 c -7.62074,0 -15.06466,0.99752 -22.33366,2.99067 -7.15189,1.99314 -13.30804,4.80689 -18.46679,8.44144 l 9.84842,19.16817 c 3.40002,-2.69653 7.50353,-4.80689 12.31042,-6.33108 4.92432,-1.64141 9.90803,-2.46211 14.94945,-2.46211 7.2691,0 12.71977,1.6414 16.35432,4.92421 3.63455,3.16559 5.45288,7.73806 5.45288,13.7174 h -21.8072 c -13.83471,0 -24.09438,2.52171 -30.7772,7.56313 -6.56562,5.04143 -9.84832,11.95868 -9.84832,20.75197 0,5.51048 1.40687,10.43459 4.22072,14.77252 2.81375,4.33804 6.85965,7.73806 12.1356,10.20017 5.39317,2.4621 11.72425,3.69205 18.99335,3.69205 14.06904,0 23.68293,-4.39544 28.84167,-13.18873 v 11.78186 h 25.67607 v -53.98918 c 0,-14.06924 -3.92658,-24.56333 -11.78185,-31.48069 -7.85528,-7.03457 -19.11257,-10.5518 -33.76788,-10.5518 z m 243.69394,0 c -9.49668,0 -18.11294,2.11025 -25.851,6.33108 -7.62074,4.10351 -13.65979,9.90792 -18.11504,17.41155 -4.33804,7.38632 -6.50801,15.71055 -6.50801,24.97269 0,9.37936 2.22968,17.76119 6.68494,25.14751 4.45525,7.38631 10.78633,13.19083 18.99335,17.41155 8.20691,4.10351 17.64387,6.15416 28.31299,6.15416 17.11742,0 30.13133,-5.09892 39.04183,-15.29909 l -14.5957,-15.82776 c -3.28281,3.1656 -6.85965,5.51038 -10.72873,7.03457 -3.75177,1.40688 -8.0897,2.11037 -13.01391,2.11037 -7.15178,0 -13.13123,-1.70102 -17.93812,-5.10114 -4.80699,-3.40002 -7.85527,-8.03009 -9.14493,-13.89222 h 71.57765 c 0.35164,-4.57246 0.52657,-7.03446 0.52657,-7.3862 0,-9.84842 -2.16797,-18.46669 -6.5059,-25.85311 -4.22073,-7.50342 -10.08285,-13.24833 -17.58648,-17.23463 -7.50353,-3.98629 -15.88726,-5.97933 -25.14951,-5.97933 z m -397.24266,1.40687 c -6.09676,0 -11.72425,1.05513 -16.88299,3.16559 -5.04142,2.11026 -9.31975,5.15864 -12.83708,9.14493 v -10.90365 h -26.20475 v 94.6148 h 27.4348 v -47.48317 c 0,-8.20701 1.87583,-14.36128 5.6277,-18.46468 3.75165,-4.22082 8.79308,-6.33119 15.12426,-6.33119 11.95878,0 17.93812,7.44382 17.93812,22.33377 v 49.94527 h 27.43479 v -47.48317 c 0,-8.20701 1.87594,-14.36128 5.6276,-18.46468 3.75187,-4.22082 8.8529,-6.33119 15.30119,-6.33119 5.74502,0 10.14045,1.87594 13.18883,5.6277 3.16549,3.63455 4.74929,9.20254 4.74929,16.70607 v 49.94527 h 27.43479 v -54.16599 c 0,-13.95204 -3.51723,-24.38652 -10.5518,-31.30388 -6.91725,-7.03457 -16.29671,-10.5518 -28.13828,-10.5518 -7.03457,0 -13.54247,1.34937 -19.52192,4.0459 -5.86212,2.69664 -10.72662,6.5059 -14.5957,11.43011 -3.28281,-5.04142 -7.62064,-8.85069 -13.01391,-11.43011 -5.39306,-2.69653 -11.43211,-4.0459 -18.11494,-4.0459 z m 270.49928,0 c -7.2691,0 -13.71739,1.17244 -19.34509,3.51734 -5.51038,2.34489 -9.90803,5.80451 -13.19084,10.37698 V 579.37932 H 716.8071 v 94.6148 h 27.43479 V 629.3247 c 0,-8.79319 2.22758,-15.3587 6.68283,-19.69674 4.45525,-4.45525 10.61141,-6.68282 18.46668,-6.68282 1.05523,0 3.10588,0.11721 6.15426,0.35174 z m 241.60004,0 c -7.269,0 -13.7174,1.17244 -19.34513,3.51734 -5.51038,2.34489 -9.90802,5.80451 -13.19083,10.37698 v -12.48745 h -26.20263 v 94.6148 H 985.8419 V 629.3247 c 0,-8.79319 2.22757,-15.3587 6.68283,-19.69674 4.45514,-4.45525 10.60927,-6.68282 18.46467,-6.68282 1.0551,0 3.1079,0.11721 6.1563,0.35174 z m -114.67984,19.34509 c 6.09665,0 11.25529,1.81823 15.47612,5.45278 4.22072,3.51734 6.79993,8.26462 7.73795,14.24396 h -46.60496 c 0.93802,-6.09666 3.51734,-10.90355 7.73806,-14.42089 4.22072,-3.51723 9.43907,-5.27585 15.65283,-5.27585 z m -650.51963,1.75862 c 7.03457,0 12.77938,2.40439 17.23474,7.21139 4.57246,4.68978 6.85964,11.02087 6.85964,18.99335 0,7.97249 -2.28718,14.36117 -6.85964,19.16817 -4.45536,4.68978 -10.20017,7.03447 -17.23474,7.03447 -7.03446,0 -12.83698,-2.34469 -17.40945,-7.03447 -4.57246,-4.807 -6.85975,-11.19568 -6.85975,-19.16817 0,-7.97248 2.28729,-14.30357 6.85975,-18.99335 4.57247,-4.807 10.37499,-7.21139 17.40945,-7.21139 z m 405.94538,33.94269 h 18.81853 v 9.6715 c -1.52419,4.22083 -4.10351,7.44603 -7.73806,9.6736 -3.63455,2.11036 -7.79766,3.16549 -12.48734,3.16549 -4.807,0 -8.61626,-0.99752 -11.43011,-2.99067 -2.69664,-2.11036 -4.0459,-4.92421 -4.0459,-8.44144 0,-7.38642 5.62759,-11.07848 16.88288,-11.07848 z" /><path
         id="path2"
         style="fill:#ffba49;fill-opacity:1;stroke:none;stroke-width:2.24754;paint-order:markers stroke fill"
         d="m 330.35004,545.77606 -50.57811,75.0027 h 39.68169 l -7.76056,54.10933 50.57816,-75.00255 H 322.5895 Z" /></g><path
       d="m 309.73132,1537.6191 v -41.8848 h 13.69314 q 6.8178,0 10.24108,2.8191 3.45205,2.8192 3.45205,8.3425 0,2.9342 -1.66849,5.2068 -1.66849,2.2439 -4.5452,3.4808 3.39452,0.9494 5.35068,3.6247 1.98493,2.6466 1.98493,6.3288 0,5.6383 -3.65342,8.8602 -3.65342,3.2219 -10.32739,3.2219 z m 5.52328,-19.5903 v 15.0739 h 9.11917 q 3.85479,0 6.06986,-1.9849 2.24383,-2.0137 2.24383,-5.5233 0,-7.5657 -8.22739,-7.5657 z m 0,-4.4302 h 8.34246 q 3.62465,0 5.78218,-1.8123 2.1863,-1.8123 2.1863,-4.9192 0,-3.452 -2.01369,-5.0055 -2.0137,-1.5821 -6.12739,-1.5821 h -8.16986 z m 40.50407,16.2247 7.2493,-23.3302 h 5.69589 l -12.51369,35.9301 q -2.90547,7.7672 -9.23423,7.7672 l -1.00685,-0.086 -1.98493,-0.374 v -4.3151 l 1.43835,0.1151 q 2.70411,0 4.2,-1.0932 1.52465,-1.0931 2.50274,-3.9986 l 1.17945,-3.1644 -11.1041,-30.7808 h 5.81095 z m 65.30129,7.7958 h -5.55204 l -21.08628,-32.2766 v 32.2766 h -5.55205 v -41.8848 h 5.55205 l 21.14381,32.4205 v -32.4205 h 5.49451 z m 14.75752,0 h -5.32192 v -31.126 h 5.32192 z m -5.75342,-39.3821 q 0,-1.2945 0.77671,-2.1863 0.80548,-0.8918 2.3589,-0.8918 1.55342,0 2.3589,0.8918 0.80548,0.8918 0.80548,2.1863 0,1.2945 -0.80548,2.1575 -0.80548,0.863 -2.3589,0.863 -1.55342,0 -2.3589,-0.863 -0.77671,-0.863 -0.77671,-2.1575 z m 13.00272,23.5602 q 0,-7.278 3.36575,-11.5643 3.36575,-4.3151 8.9178,-4.3151 5.69588,0 8.88903,4.0274 l 0.2589,-3.4521 h 4.86164 v 30.3781 q 0,6.0411 -3.59589,9.5219 -3.56712,3.4808 -9.6082,3.4808 -3.36575,0 -6.58767,-1.4383 -3.22191,-1.4384 -4.91917,-3.9411 l 2.76164,-3.1932 q 3.42328,4.2288 8.37122,4.2288 3.88356,0 6.04109,-2.1863 2.1863,-2.1863 2.1863,-6.1562 v -2.6753 q -3.19315,3.6822 -8.71643,3.6822 -5.46574,0 -8.86026,-4.4014 -3.36575,-4.4013 -3.36575,-11.9959 z m 5.35068,0.6041 q 0,5.2644 2.15753,8.285 2.15753,2.9917 6.04109,2.9917 5.03424,0 7.39314,-4.5739 v -14.211 q -2.4452,-4.4589 -7.33561,-4.4589 -3.88355,0 -6.06985,3.0206 -2.1863,3.0205 -2.1863,8.9465 z m 34.29037,-12.1397 q 3.53836,-4.3438 9.20547,-4.3438 9.86711,0 9.95342,11.1329 v 20.5684 h -5.32192 v -20.5972 q -0.0288,-3.3657 -1.55342,-4.9767 -1.49589,-1.611 -4.68903,-1.611 -2.58904,0 -4.5452,1.3809 -1.95617,1.3808 -3.04932,3.6246 v 22.1794 h -5.32191 v -44.1862 h 5.32191 z m 34.34791,-11.3054 v 7.5369 h 5.81095 v 4.1137 h -5.81095 v 19.3028 q 0,1.8698 0.77671,2.8191 0.77671,0.9206 2.64658,0.9206 0.92054,0 2.5315,-0.3452 v 4.315 q -2.1,0.5754 -4.08493,0.5754 -3.56712,0 -5.37944,-2.1575 -1.81233,-2.1576 -1.81233,-6.1274 v -19.3028 h -5.66712 v -4.1137 h 5.66712 v -7.5369 z m 17.80683,38.6629 h -5.32192 v -31.126 h 5.32192 z m -5.75342,-39.3821 q 0,-1.2945 0.77671,-2.1863 0.80548,-0.8918 2.3589,-0.8918 1.55342,0 2.3589,0.8918 0.80548,0.8918 0.80548,2.1863 0,1.2945 -0.80548,2.1575 -0.80548,0.863 -2.3589,0.863 -1.55342,0 -2.3589,-0.863 -0.77671,-0.863 -0.77671,-2.1575 z m 19.30271,8.2561 0.1726,3.9124 q 3.56712,-4.4877 9.32054,-4.4877 9.86711,0 9.95342,11.1329 v 20.5684 h -5.32192 v -20.5972 q -0.0288,-3.3657 -1.55342,-4.9767 -1.49589,-1.611 -4.68903,-1.611 -2.58904,0 -4.54521,1.3809 -1.95616,1.3808 -3.04931,3.6246 v 22.1794 h -5.32191 v -31.126 z m 26.20683,15.3041 q 0,-7.278 3.36575,-11.5643 3.36575,-4.3151 8.9178,-4.3151 5.69588,0 8.88903,4.0274 l 0.2589,-3.4521 h 4.86164 v 30.3781 q 0,6.0411 -3.59589,9.5219 -3.56711,3.4808 -9.6082,3.4808 -3.36575,0 -6.58767,-1.4383 -3.22191,-1.4384 -4.91917,-3.9411 l 2.76164,-3.1932 q 3.42328,4.2288 8.37122,4.2288 3.88356,0 6.04109,-2.1863 2.1863,-2.1863 2.1863,-6.1562 v -2.6753 q -3.19314,3.6822 -8.71643,3.6822 -5.46574,0 -8.86026,-4.4014 -3.36575,-4.4013 -3.36575,-11.9959 z m 5.35068,0.6041 q 0,5.2644 2.15753,8.285 2.15753,2.9917 6.04109,2.9917 5.03424,0 7.39314,-4.5739 v -14.211 q -2.4452,-4.4589 -7.33561,-4.4589 -3.88355,0 -6.06985,3.0206 -2.1863,3.0205 -2.1863,8.9465 z m 48.18486,15.2178 q -0.46027,-0.9205 -0.74794,-3.2794 -3.71096,3.8548 -8.86026,3.8548 -4.60274,0 -7.56575,-2.5891 -2.93424,-2.6178 -2.93424,-6.6164 0,-4.8616 3.68219,-7.537 3.71095,-2.7041 10.41368,-2.7041 h 5.17808 v -2.4452 q 0,-2.7904 -1.66849,-4.4301 -1.66849,-1.6685 -4.91918,-1.6685 -2.84794,0 -4.77533,1.4384 -1.9274,1.4383 -1.9274,3.4808 h -5.35068 q 0,-2.3302 1.63973,-4.4877 1.66849,-2.1863 4.48766,-3.452 2.84795,-1.2658 6.24246,-1.2658 5.37945,0 8.42876,2.7041 3.04931,2.6754 3.16438,7.3932 v 14.326 q 0,4.2863 1.09315,6.8178 v 0.4602 z m -8.83149,-4.0561 q 2.50273,0 4.74657,-1.2945 2.24383,-1.2946 3.25068,-3.3658 v -6.3863 h -4.17123 q -9.78081,0 -9.78081,5.7247 0,2.5027 1.66849,3.9123 1.66849,1.4096 4.2863,1.4096 z m 27.4438,4.0561 h -5.32191 v -44.1862 h 5.32191 z m 21.43148,0.5754 q -6.32876,0 -10.29862,-4.1425 -3.96986,-4.1712 -3.96986,-11.1328 v -0.9781 q 0,-4.6315 1.7548,-8.2562 1.78356,-3.6534 4.94794,-5.6959 3.19314,-2.0712 6.9041,-2.0712 6.06985,0 9.4356,3.9986 3.36575,3.9987 3.36575,11.4493 v 2.2151 h -21.08627 q 0.11506,4.6027 2.67534,7.4507 2.58903,2.8192 6.55889,2.8192 2.81918,0 4.77534,-1.1507 1.95616,-1.1507 3.42328,-3.0493 l 3.25068,2.5315 q -3.91232,6.0123 -11.73697,6.0123 z m -0.66164,-27.9041 q -3.22192,0 -5.40821,2.3589 -2.1863,2.3301 -2.70411,6.5589 h 15.59176 v -0.4027 q -0.23013,-4.0562 -2.1863,-6.2713 -1.95616,-2.2438 -5.29314,-2.2438 z m 51.98215,27.3287 h -5.55205 v -19.3602 h -21.11504 v 19.3602 h -5.52329 v -41.8848 h 5.52329 v 18.0082 h 21.11504 v -18.0082 h 5.55205 z m 41.79857,-19.5903 q 0,6.0698 -1.9274,10.4712 -1.92739,4.3726 -5.40821,6.8465 l 7.47944,5.8685 -3.76849,3.4808 -8.83149,-7.0191 q -2.07123,0.5178 -4.3726,0.5178 -4.94794,0 -8.77396,-2.4165 -3.82603,-2.4452 -5.95479,-6.9328 -2.1,-4.5165 -2.15753,-10.4425 v -3.0205 q 0,-6.0411 2.1,-10.6726 2.09999,-4.6315 5.92602,-7.0767 3.85479,-2.474 8.80273,-2.474 5.063,0 8.88903,2.4452 3.85479,2.4452 5.92602,7.048 2.07123,4.5739 2.07123,10.7013 z m -5.52328,-2.7042 q 0,-7.3931 -2.96301,-11.3917 -2.93425,-4.0274 -8.39999,-4.0274 -5.20685,0 -8.22739,3.9986 -2.99178,3.9699 -3.07808,11.0466 v 3.0781 q 0,7.1917 2.99178,11.3342 3.02054,4.1424 8.37122,4.1424 5.35068,0 8.28492,-3.8835 2.93425,-3.9123 3.02055,-11.1904 z"
       id="text2"
       style="font-size:58.915px;font-family:Roboto;-inkscape-font-specification:Roboto;text-align:center;letter-spacing:0px;text-anchor:middle;fill:#ffffff;stroke-width:23.963;stroke-linecap:round;stroke-linejoin:round;stroke-dashoffset:5.00786;paint-order:markers stroke fill"
       aria-label="By NightingaleHQ" /></g></svg>
