<?xml version="1.0" encoding="UTF-8" standalone="no"?>
<!-- Created with Inkscape (http://www.inkscape.org/) -->

<svg
   width="895.86542"
   height="122.59875"
   viewBox="0 0 895.86542 122.59875"
   version="1.1"
   id="svg5"
   xml:space="preserve"
   sodipodi:docname="GoSmarter_logo_noSub_DarkBG_INKSCAPE.svg"
   inkscape:version="1.3.2 (091e20e, 2023-11-25, custom)"
   xmlns:inkscape="http://www.inkscape.org/namespaces/inkscape"
   xmlns:sodipodi="http://sodipodi.sourceforge.net/DTD/sodipodi-0.dtd"
   xmlns="http://www.w3.org/2000/svg"
   xmlns:svg="http://www.w3.org/2000/svg"><sodipodi:namedview
     id="namedview1"
     pagecolor="#505050"
     bordercolor="#ffffff"
     borderopacity="1"
     inkscape:showpageshadow="0"
     inkscape:pageopacity="0"
     inkscape:pagecheckerboard="1"
     inkscape:deskcolor="#505050"
     inkscape:zoom="1.2285458"
     inkscape:cx="238.49335"
     inkscape:cy="69.594474"
     inkscape:window-width="3840"
     inkscape:window-height="2066"
     inkscape:window-x="-11"
     inkscape:window-y="-11"
     inkscape:window-maximized="1"
     inkscape:current-layer="svg5" /><defs
     id="defs2" /><path
     id="text"
     style="font-weight:bold;font-size:166.993px;font-family:Montserrat;-inkscape-font-specification:'Montserrat Bold';letter-spacing:0.0978471px;white-space:pre;fill:#ffffff;stroke-width:10;paint-order:markers stroke fill"
     d="M 64.292969 0.84765625 C 52.046848 0.84765625 41.025439 3.4648709 31.228516 8.6972656 C 21.431592 13.818394 13.749988 20.998024 8.1835938 30.238281 C 2.7284659 39.367205 0 49.72064 0 61.298828 C 0 72.877017 2.7284659 83.287086 8.1835938 92.527344 C 13.749988 101.65627 21.374957 108.8359 31.060547 114.06836 C 40.746137 119.18949 51.656228 121.75 63.791016 121.75 C 72.252007 121.75 80.658154 120.47075 89.007812 117.91016 C 97.357471 115.34963 104.70505 111.6758 111.05078 106.88867 L 111.05078 59.462891 L 88.582031 59.462891 L 88.582031 59.460938 L 69.857422 59.460938 L 69.857422 84.283203 L 86.335938 84.283203 L 86.335938 93.695312 C 80.101544 97.035176 73.087914 98.705078 65.294922 98.705078 C 57.947196 98.705078 51.378905 97.14656 45.589844 94.029297 C 39.912116 90.800833 35.458999 86.347716 32.230469 80.669922 C 29.001939 74.992194 27.386719 68.535221 27.386719 61.298828 C 27.386719 53.951169 29.001939 47.439513 32.230469 41.761719 C 35.458999 36.083991 39.966798 31.685556 45.755859 28.568359 C 51.54492 25.451162 58.169847 23.892578 65.628906 23.892578 C 77.429694 23.892578 87.503857 28.291013 95.853516 37.085938 L 113.2207 21.054688 C 107.54291 14.486294 100.52935 9.4765874 92.179688 6.0253906 C 83.830096 2.5742607 74.535225 0.84765625 64.292969 0.84765625 z M 299.78516 0.84765625 C 289.09763 0.84765625 280.02345 2.4628761 272.56445 5.6914062 C 265.21673 8.91987 259.70511 13.316351 256.03125 18.882812 C 252.35745 24.33794 250.52148 30.46096 250.52148 37.251953 C 250.52148 45.044945 252.52541 51.279283 256.5332 55.955078 C 260.6524 60.63094 265.55079 64.02738 271.22852 66.142578 C 276.90631 68.257843 284.19921 70.373017 293.10547 72.488281 C 298.89453 73.824213 303.45896 75.048844 306.79883 76.162109 C 310.25002 77.275375 313.03317 78.777324 315.14844 80.669922 C 317.37497 82.451187 318.48828 84.734381 318.48828 87.517578 C 318.48828 91.302774 316.65036 94.363308 312.97656 96.701172 C 309.3027 98.92777 303.62502 100.04102 295.94336 100.04102 C 289.04097 100.04102 282.13872 98.92777 275.23633 96.701172 C 268.334 94.474641 262.37698 91.525425 257.36719 87.851562 L 248.18359 108.22461 C 253.41599 112.23241 260.3183 115.51564 268.89062 118.07617 C 277.57428 120.52544 286.53709 121.75 295.77734 121.75 C 306.46487 121.75 315.5371 120.13673 322.99609 116.9082 C 330.45515 113.67967 336.02152 109.33794 339.69531 103.88281 C 343.48051 98.316417 345.37305 92.193399 345.37305 85.513672 C 345.37305 77.72068 343.31444 71.541025 339.19531 66.976562 C 335.18745 62.4121 330.34374 59.072296 324.66602 56.957031 C 318.98822 54.841767 311.69727 52.726526 302.79102 50.611328 C 294.21869 48.71873 287.8164 46.826192 283.58594 44.933594 C 279.46681 42.929662 277.4082 39.923812 277.4082 35.916016 C 277.4082 31.908153 279.18949 28.679666 282.75195 26.230469 C 286.42582 23.781205 292.04686 22.556641 299.61719 22.556641 C 310.41604 22.556641 321.21475 25.61906 332.01367 31.742188 L 340.36328 11.201172 C 335.01949 7.8613083 328.78515 5.3007961 321.66016 3.5195312 C 314.5351 1.738333 307.24415 0.84765625 299.78516 0.84765625 z M 686.8418 10.699219 L 686.8418 32.576172 L 672.98242 32.576172 L 672.98242 52.615234 L 686.8418 52.615234 L 686.8418 89.521484 C 686.8418 100.09767 689.73633 108.11323 695.52539 113.56836 C 701.42585 119.02349 709.72068 121.75 720.4082 121.75 C 724.52733 121.75 728.42379 121.30473 732.09766 120.41406 C 735.88285 119.41213 739.05666 117.96486 741.61719 116.07227 L 734.60352 97.703125 C 731.70899 99.929657 728.20123 101.04297 724.08203 101.04297 C 720.51957 101.04297 717.73635 100.04097 715.73242 98.037109 C 713.83982 95.921845 712.89453 92.972696 712.89453 89.1875 L 712.89453 52.615234 L 735.27148 52.615234 L 735.27148 32.576172 L 712.89453 32.576172 L 712.89453 10.699219 L 686.8418 10.699219 z M 169.26758 29.236328 C 159.80465 29.236328 151.28908 31.240184 143.71875 35.248047 C 136.25976 39.14451 130.41412 44.599555 126.18359 51.613281 C 121.95313 58.627008 119.83789 66.587883 119.83789 75.494141 C 119.83789 84.400398 121.95313 92.359321 126.18359 99.373047 C 130.41412 106.38677 136.25976 111.89845 143.71875 115.90625 C 151.28908 119.80278 159.80465 121.75 169.26758 121.75 C 178.7305 121.75 187.19328 119.80278 194.65234 115.90625 C 202.11134 111.89845 207.95508 106.38677 212.18555 99.373047 C 216.41608 92.359321 218.53125 84.400398 218.53125 75.494141 C 218.53125 66.587883 216.41608 58.627008 212.18555 51.613281 C 207.95508 44.599555 202.11134 39.14451 194.65234 35.248047 C 187.19328 31.240184 178.7305 29.236328 169.26758 29.236328 z M 555.4043 29.236328 C 548.16797 29.236328 541.09771 30.183574 534.19531 32.076172 C 527.40425 33.96877 521.56057 36.6406 516.66211 40.091797 L 526.01367 58.292969 C 529.2422 55.732438 533.13866 53.728515 537.70312 52.28125 C 542.37899 50.722652 547.10936 49.943359 551.89648 49.943359 C 558.79881 49.943359 563.97654 51.501944 567.42773 54.619141 C 570.87893 57.625004 572.60352 61.966804 572.60352 67.644531 L 551.89648 67.644531 C 538.7597 67.644531 529.01956 70.039043 522.67383 74.826172 C 516.43943 79.6133 513.32227 86.181592 513.32227 94.53125 C 513.32227 99.763712 514.65821 104.43946 517.33008 108.55859 C 520.00194 112.67779 523.84177 115.90628 528.85156 118.24414 C 533.97269 120.58207 539.98433 121.75 546.88672 121.75 C 560.24611 121.75 569.37498 117.57622 574.27344 109.22656 L 574.27344 120.41406 L 598.6543 120.41406 L 598.6543 69.148438 C 598.6543 55.788984 594.92579 45.824253 587.4668 39.255859 C 580.00774 32.576133 569.32035 29.236328 555.4043 29.236328 z M 786.80273 29.236328 C 777.78514 29.236328 769.60359 31.240184 762.25586 35.248047 C 755.01953 39.14451 749.28515 44.65619 745.05469 51.78125 C 740.93549 58.794976 738.87695 66.699216 738.87695 75.494141 C 738.87695 84.400398 740.99213 92.359321 745.22266 99.373047 C 749.45312 106.38677 755.46482 111.89845 763.25781 115.90625 C 771.0508 119.80278 780.01361 121.75 790.14453 121.75 C 806.39845 121.75 818.75581 116.90825 827.2168 107.22266 L 813.35547 92.193359 C 810.23827 95.199223 806.84378 97.425782 803.16992 98.873047 C 799.60739 100.20898 795.48634 100.87695 790.81055 100.87695 C 784.01955 100.87695 778.34181 99.261734 773.77734 96.033203 C 769.21281 92.804673 766.31835 88.408191 765.09375 82.841797 L 833.06055 82.841797 C 833.39448 78.500001 833.5625 76.162125 833.5625 75.828125 C 833.5625 66.476534 831.50194 58.293023 827.38281 51.279297 C 823.37502 44.154304 817.80865 38.699259 810.68359 34.914062 C 803.5586 31.128866 795.59773 29.236328 786.80273 29.236328 z M 409.60156 30.572266 C 403.81243 30.572266 398.46877 31.574194 393.57031 33.578125 C 388.78318 35.58199 384.71877 38.476523 381.37891 42.261719 L 381.37891 31.908203 L 356.49609 31.908203 L 356.49609 121.75 L 382.54883 121.75 L 382.54883 76.662109 C 382.54883 68.869117 384.33005 63.025369 387.89258 59.128906 C 391.45504 55.121044 396.24211 53.117188 402.25391 53.117188 C 413.60943 53.117188 419.28711 60.1855 419.28711 74.324219 L 419.28711 121.75 L 445.33789 121.75 L 445.33789 76.662109 C 445.33789 68.869117 447.11918 63.025369 450.68164 59.128906 C 454.24417 55.121044 459.08592 53.117188 465.20898 53.117188 C 470.66411 53.117187 474.83984 54.898408 477.73438 58.460938 C 480.74024 61.912134 482.24219 67.199226 482.24219 74.324219 L 482.24219 121.75 L 508.29297 121.75 L 508.29297 70.316406 C 508.29297 57.068286 504.95316 47.160124 498.27344 40.591797 C 491.70511 33.91207 482.79888 30.572266 471.55469 30.572266 C 464.87496 30.572266 458.69733 31.853532 453.01953 34.414062 C 447.45314 36.97466 442.83207 40.591783 439.1582 45.267578 C 436.04101 40.48045 431.92191 36.863327 426.80078 34.414062 C 421.67972 31.853532 415.94729 30.572266 409.60156 30.572266 z M 666.45312 30.572266 C 659.5508 30.572266 653.42778 31.685578 648.08398 33.912109 C 642.85152 36.138707 638.67774 39.423829 635.56055 43.765625 L 635.56055 31.908203 L 610.67773 31.908203 L 610.67773 121.75 L 636.72852 121.75 L 636.72852 79.333984 C 636.72852 70.984393 638.84376 64.750055 643.07422 60.630859 C 647.30475 56.400397 653.15038 54.285156 660.60938 54.285156 C 661.61131 54.285156 663.55859 54.396474 666.45312 54.619141 L 666.45312 30.572266 z M 895.86523 30.572266 C 888.96291 30.572266 882.83989 31.685578 877.49609 33.912109 C 872.26363 36.138707 868.08985 39.423829 864.97266 43.765625 L 864.97266 31.908203 L 840.08984 31.908203 L 840.08984 121.75 L 866.14062 121.75 L 866.14062 79.333984 C 866.14063 70.984393 868.25587 64.750055 872.48633 60.630859 C 876.71679 56.400397 882.56243 54.285156 890.02148 54.285156 C 891.02342 54.285156 892.9707 54.396474 895.86523 54.619141 L 895.86523 30.572266 z M 786.9707 48.941406 C 792.75976 48.941406 797.65815 50.667944 801.66602 54.119141 C 805.67381 57.459004 808.12301 61.966804 809.01367 67.644531 L 764.75977 67.644531 C 765.65043 61.85547 768.09963 57.291035 772.10742 53.951172 C 776.11528 50.611309 781.07031 48.941406 786.9707 48.941406 z M 169.26758 50.611328 C 175.9473 50.611328 181.40424 52.894456 185.63477 57.458984 C 189.97656 61.912113 192.14648 67.923815 192.14648 75.494141 C 192.14648 83.064466 189.97656 89.13085 185.63477 93.695312 C 181.40424 98.148509 175.9473 100.375 169.26758 100.375 C 162.58792 100.375 157.07819 98.148509 152.73633 93.695312 C 148.39453 89.13085 146.22266 83.064466 146.22266 75.494141 C 146.22266 67.923815 148.39453 61.912113 152.73633 57.458984 C 157.07819 52.894456 162.58792 50.611328 169.26758 50.611328 z M 554.73633 82.841797 L 572.60352 82.841797 L 572.60352 92.025391 C 571.15625 96.033253 568.70706 99.095739 565.25586 101.21094 C 561.80466 103.21487 557.85352 104.2168 553.40039 104.2168 C 548.83593 104.2168 545.21685 103.26955 542.54492 101.37695 C 539.98439 99.373021 538.70508 96.701125 538.70508 93.361328 C 538.70508 86.347602 544.04881 82.841797 554.73633 82.841797 z "
     inkscape:label="GoSmarter" /><path
     id="icon"
     style="fill:#ffba49;fill-opacity:1;stroke:none;stroke-width:2.24754;paint-order:markers stroke fill"
     d="m 243.7169,0 -48.02661,71.219066 h 37.67988 l -7.36907,51.379694 48.02666,-71.218919 h -37.67991 z"
     inkscape:label="Bolt" /></svg>
