<?xml version="1.0" encoding="UTF-8" standalone="no"?>
<!-- Created with Inkscape (http://www.inkscape.org/) -->

<svg
   width="1000"
   height="1000"
   viewBox="0 0 1000 1000"
   version="1.1"
   id="svg5"
   xml:space="preserve"
   sodipodi:docname="GoSmarter_logo_square_filled_INKSCAPE.svg"
   inkscape:version="1.3.2 (091e20e, 2023-11-25, custom)"
   inkscape:export-filename="GoSmarter_logo_square_filled.png"
   inkscape:export-xdpi="96"
   inkscape:export-ydpi="96"
   xmlns:inkscape="http://www.inkscape.org/namespaces/inkscape"
   xmlns:sodipodi="http://sodipodi.sourceforge.net/DTD/sodipodi-0.dtd"
   xmlns="http://www.w3.org/2000/svg"
   xmlns:svg="http://www.w3.org/2000/svg"><sodipodi:namedview
     id="namedview1"
     pagecolor="#505050"
     bordercolor="#ffffff"
     borderopacity="1"
     inkscape:showpageshadow="0"
     inkscape:pageopacity="0"
     inkscape:pagecheckerboard="1"
     inkscape:deskcolor="#505050"
     inkscape:zoom="1.1040001"
     inkscape:cx="268.56882"
     inkscape:cy="551.17749"
     inkscape:window-width="3840"
     inkscape:window-height="2066"
     inkscape:window-x="-11"
     inkscape:window-y="-11"
     inkscape:window-maximized="1"
     inkscape:current-layer="svg5"
     showguides="true" /><defs
     id="defs2" /><rect
     style="fill:#2d3047;stroke:none;stroke-width:16;stroke-linecap:round;stroke-linejoin:round;paint-order:markers stroke fill"
     id="rect1"
     width="1000.0001"
     height="1000.0001"
     x="0"
     y="0" /><g
     id="g13"
     transform="translate(-33.100502,-38.620426)"><path
       d="m 123.71211,735.69739 q -3.38337,0 -6.28336,-1.26873 -2.83963,-1.32916 -4.95427,-3.56462 -2.05419,-2.29592 -3.20208,-5.19591 -1.14792,-2.96047 -1.14792,-6.223 0,-3.38336 1.14792,-6.28347 1.14789,-2.96046 3.26253,-5.19591 2.11464,-2.29581 4.95417,-3.56463 2.9001,-1.32918 6.28347,-1.32918 3.38336,0 6.22299,1.32918 2.83963,1.26882 4.95418,3.56463 2.11462,2.23545 3.26253,5.19591 1.148,2.90011 1.148,6.28347 0,3.26253 -1.148,6.223 -1.14791,2.89999 -3.26253,5.19591 -2.0542,2.23546 -4.95418,3.56462 -2.83963,1.26873 -6.28345,1.26873 z M 112.2932,719.50548 q 0,3.50428 1.51045,6.40427 1.57092,2.83965 4.16882,4.53139 2.59801,1.63125 5.73964,1.63125 3.14173,0 5.73974,-1.69174 2.59789,-1.69171 4.16871,-4.59171 1.5709,-2.96047 1.5709,-6.40428 0,-3.50417 -1.5709,-6.40416 -1.57082,-2.90011 -4.16871,-4.59173 -2.59801,-1.69173 -5.73974,-1.69173 -3.14163,0 -5.73964,1.75207 -2.53755,1.75209 -4.10835,4.6522 -1.57092,2.83964 -1.57092,6.40417 z m 50.02559,16.19191 q -3.92707,0 -7.06878,-2.05418 -3.08128,-2.05418 -4.89383,-5.07509 v 19.39399 h -4.10835 v -44.34635 h 3.68544 v 6.10219 q 1.87291,-2.96046 5.01464,-4.773 3.14173,-1.87301 6.70637,-1.87301 3.26255,0 5.98126,1.38965 2.71882,1.32917 4.71265,3.62508 1.99371,2.29581 3.08127,5.25627 1.14789,2.9001 1.14789,6.04172 0,4.41056 -1.81253,8.15636 -1.75209,3.68546 -4.95417,5.92092 -3.2022,2.23545 -7.49186,2.23545 z m -1.1479,-3.625 q 2.59791,0 4.6522,-1.02707 2.05418,-1.08757 3.50416,-2.9001 1.51046,-1.81255 2.29582,-4.04801 0.78546,-2.29582 0.78546,-4.71255 0,-2.53754 -0.90628,-4.83335 -0.84581,-2.29592 -2.47709,-4.04801 -1.63126,-1.75208 -3.7459,-2.77918 -2.11454,-1.02708 -4.59172,-1.02708 -1.57083,0 -3.26256,0.60418 -1.69162,0.60418 -3.26254,1.75209 -1.51035,1.08754 -2.53755,2.47708 -1.0271,1.38964 -1.26873,2.96046 v 9.66681 q 0.96664,2.23547 2.5979,4.04801 1.63128,1.75208 3.74592,2.83965 2.17499,1.02707 4.47091,1.02707 z m 36.97554,1.51036 q -0.48336,0.18127 -1.51044,0.66464 -1.0271,0.48336 -2.47708,0.84581 -1.45001,0.36256 -3.14175,0.36256 -1.75208,0 -3.32289,-0.66465 -1.51047,-0.66454 -2.41673,-1.9937 -0.90627,-1.38965 -0.90627,-3.38337 v -22.53572 h -4.3501 v -3.26256 h 4.3501 v -10.63344 h 4.10835 v 10.63344 h 7.25008 v 3.26256 h -7.25008 v 21.38771 q 0.12086,1.69172 1.20838,2.53755 1.14789,0.8458 2.59799,0.8458 1.69164,0 3.08127,-0.54371 1.38954,-0.60419 1.69163,-0.84583 z m 5.13545,1.51045 v -31.47744 h 4.10836 v 31.47744 z m 0,-38.06298 v -6.04173 h 4.10836 v 6.04173 z m 59.99454,38.06298 h -4.10835 v -17.58144 q 0,-5.498 -1.75218,-8.0959 -1.75209,-2.598 -5.19581,-2.598 -3.56465,0 -6.40429,2.53754 -2.77917,2.53754 -3.92718,6.52509 v 19.21271 h -4.10834 v -17.58144 q 0,-5.55845 -1.69175,-8.0959 -1.69162,-2.598 -5.19581,-2.598 -3.50429,0 -6.34392,2.47708 -2.83954,2.47719 -3.98755,6.52508 v 19.27318 h -4.10834 v -31.47744 h 3.74591 v 7.12927 q 1.99372,-3.68544 5.07499,-5.67927 3.14173,-1.99382 6.9481,-1.99382 3.92709,0 6.34382,2.23545 2.41663,2.23546 2.96044,5.86056 2.17501,-3.98754 5.19592,-6.04172 3.08128,-2.05429 6.948,-2.05429 2.65836,0 4.47091,0.96675 1.87291,0.96661 2.96045,2.77917 1.14791,1.75208 1.63128,4.28962 0.54371,2.47708 0.54371,5.55846 z m 8.70008,0 v -31.47744 h 4.10849 v 31.47744 z m 0,-38.06298 v -6.04173 h 4.10849 v 6.04173 z m 23.50247,38.66717 q -3.86673,0 -7.18963,-1.26873 -3.32302,-1.26881 -5.73975,-3.86671 l 1.69174,-2.90012 q 2.65837,2.4772 5.31673,3.62511 2.71882,1.08754 5.73963,1.08754 3.68545,0 5.98137,-1.45009 2.29581,-1.51035 2.29581,-4.28963 0,-1.87291 -1.14792,-2.83954 -1.08754,-1.0272 -3.20207,-1.63127 -2.05419,-0.66464 -4.95428,-1.38964 -3.26254,-0.90628 -5.49799,-1.8729 -2.17501,-1.0271 -3.3229,-2.53754 -1.08755,-1.57093 -1.08755,-4.04801 0,-3.08127 1.51045,-5.0751 1.57081,-2.05418 4.22916,-3.08126 2.71885,-1.08756 6.04173,-1.08756 3.6251,0 6.40427,1.14801 2.77919,1.1479 4.53137,3.20208 l -1.99381,2.77917 q -1.69163,-1.93335 -4.04801,-2.83952 -2.2958,-0.96673 -5.13545,-0.96673 -1.93336,0 -3.68545,0.54372 -1.75207,0.48336 -2.89999,1.69174 -1.08755,1.14789 -1.08755,3.20207 0,1.69174 0.84581,2.65837 0.84593,0.90627 2.53755,1.57092 1.69175,0.60417 4.16882,1.32918 3.56463,0.96661 6.223,1.99371 2.65837,0.96673 4.10837,2.53755 1.44999,1.57092 1.44999,4.41046 0,4.41056 -3.3229,6.88764 -3.32301,2.47708 -8.76055,2.47708 z m 16.31272,-9.66681 q 0,-2.96047 1.69163,-5.07499 1.69174,-2.1751 4.65218,-3.32302 3.02091,-1.20835 6.94801,-1.20835 2.29592,0 4.773,0.36255 2.47708,0.36244 4.41045,1.08754 v -2.65847 q 0,-3.98755 -2.35627,-6.3438 -2.35627,-2.35627 -6.52509,-2.35627 -2.53755,0 -5.01464,0.96673 -2.41673,0.90627 -5.07509,2.7187 l -1.57081,-2.89998 q 3.08127,-2.11464 6.04172,-3.14172 2.96046,-1.08756 6.04172,-1.08756 5.80009,0 9.18346,3.32301 3.38335,3.323 3.38335,9.18344 v 14.56064 q 0,0.84582 0.36255,1.26873 0.36245,0.36255 1.14791,0.4229 v 3.26254 q -0.66453,0.0605 -1.14791,0.12086 -0.48337,0.0605 -0.72499,0 -1.51046,-0.0605 -2.29592,-0.96663 -0.78535,-0.90627 -0.84582,-1.93337 l -0.0605,-2.2958 q -2.11454,2.7187 -5.49801,4.22917 -3.38336,1.45 -6.88753,1.45 -3.02092,0 -5.498,-1.26872 -2.41675,-1.32917 -3.80626,-3.50428 -1.32919,-2.23545 -1.32919,-4.89381 z m 21.08563,2.41673 q 0.66464,-0.84583 1.02707,-1.63128 0.36257,-0.78545 0.36257,-1.38953 v -4.59172 q -2.05418,-0.78548 -4.28964,-1.20838 -2.17499,-0.4229 -4.41045,-0.4229 -4.41046,0 -7.12928,1.75209 -2.71882,1.75207 -2.71882,4.77288 0,1.7522 0.90627,3.32302 0.90629,1.51046 2.65837,2.53754 1.75209,0.96663 4.10836,0.96663 2.96044,0 5.498,-1.1479 2.59799,-1.14792 3.98755,-2.96045 z m 29.24208,5.13544 q -0.48336,0.18127 -1.51046,0.66464 -1.02708,0.48336 -2.47709,0.84581 -1.44999,0.36256 -3.14173,0.36256 -1.75209,0 -3.32288,-0.66465 -1.51047,-0.66454 -2.41673,-1.9937 -0.90629,-1.38965 -0.90629,-3.38337 v -22.53572 h -4.35009 v -3.26256 h 4.35009 v -10.63344 h 4.10836 v 10.63344 h 7.25009 v 3.26256 h -7.25009 v 21.38771 q 0.121,1.69172 1.20837,2.53755 1.14791,0.8458 2.59801,0.8458 1.69162,0 3.08127,-0.54371 1.38952,-0.60419 1.69163,-0.84583 z m 5.13545,1.51045 v -31.47744 h 4.10836 v 31.47744 z m 0,-38.06298 v -6.04173 h 4.10836 v 6.04173 z m 26.58373,38.66717 q -3.38346,0 -6.28345,-1.26873 -2.83966,-1.32916 -4.9543,-3.56462 -2.05416,-2.29592 -3.20207,-5.19591 -1.14791,-2.96047 -1.14791,-6.223 0,-3.38336 1.14791,-6.28347 1.14791,-2.96046 3.26254,-5.19591 2.11463,-2.29581 4.95429,-3.56463 2.89998,-1.32918 6.28334,-1.32918 3.38336,0 6.223,1.32918 2.83965,1.26882 4.95428,3.56463 2.11454,2.23545 3.26254,5.19591 1.14792,2.90011 1.14792,6.28347 0,3.26253 -1.14792,6.223 -1.148,2.89999 -3.26254,5.19591 -2.05418,2.23546 -4.95428,3.56462 -2.83964,1.26873 -6.28335,1.26873 z m -11.41891,-16.19191 q 0,3.50428 1.51035,6.40427 1.57093,2.83965 4.16882,4.53139 2.59801,1.63125 5.73974,1.63125 3.14161,0 5.73964,-1.69174 2.59789,-1.69171 4.16881,-4.59171 1.57082,-2.96047 1.57082,-6.40428 0,-3.50417 -1.57082,-6.40416 -1.57092,-2.90011 -4.16881,-4.59173 -2.59803,-1.69173 -5.73964,-1.69173 -3.14173,0 -5.73974,1.75207 -2.53754,1.75209 -4.10836,4.6522 -1.57081,2.83964 -1.57081,6.40417 z m 60.41732,15.58772 h -4.10835 v -17.58144 q 0,-5.55845 -1.63127,-8.0959 -1.63127,-2.598 -5.13545,-2.598 -2.41673,0 -4.773,1.20835 -2.35626,1.14791 -4.16882,3.20208 -1.75209,1.99383 -2.53755,4.59173 v 19.27318 h -4.10836 v -31.47744 h 3.74592 v 7.12927 q 1.26873,-2.29592 3.32289,-3.98754 2.05418,-1.75219 4.65219,-2.7188 2.59791,-0.96675 5.37718,-0.96675 2.5979,0 4.41046,0.96675 1.81244,0.96661 2.89998,2.77917 1.08756,1.75208 1.57093,4.28962 0.48325,2.47708 0.48325,5.55846 z m 25.67746,0 v -28.21488 h -4.35009 v -3.26256 h 4.35009 v -0.8458 q 0,-3.86672 1.08744,-6.64603 1.14802,-2.77917 3.2022,-4.22916 2.11453,-1.51047 4.95417,-1.51047 1.87301,0 3.6251,0.54373 1.75209,0.54383 3.0208,1.4501 l -1.26871,2.96046 q -0.78547,-0.66464 -2.05417,-1.02709 -1.26885,-0.36256 -2.53754,-0.36256 -2.83963,0 -4.41046,2.23545 -1.51047,2.23546 -1.51047,6.46464 v 0.96673 h 8.70009 v 3.26256 h -8.70009 v 28.21488 z m 30.87326,0.60419 q -3.38336,0 -6.28346,-1.26873 -2.83963,-1.32916 -4.95417,-3.56462 -2.05428,-2.29592 -3.2022,-5.19591 -1.1479,-2.96047 -1.1479,-6.223 0,-3.38336 1.1479,-6.28347 1.14792,-2.96046 3.26255,-5.19591 2.11464,-2.29581 4.95428,-3.56463 2.89999,-1.32918 6.28335,-1.32918 3.38337,0 6.223,1.32918 2.83963,1.26882 4.95427,3.56463 2.11465,2.23545 3.26255,5.19591 1.14791,2.90011 1.14791,6.28347 0,3.26253 -1.14791,6.223 -1.1479,2.89999 -3.26255,5.19591 -2.05418,2.23546 -4.95427,3.56462 -2.83963,1.26873 -6.28335,1.26873 z M 487.9688,719.50548 q 0,3.50428 1.51046,6.40427 1.57081,2.83965 4.16871,4.53139 2.598,1.63125 5.73974,1.63125 3.14163,0 5.73963,-1.69174 2.5979,-1.69171 4.16883,-4.59171 1.5708,-2.96047 1.5708,-6.40428 0,-3.50417 -1.5708,-6.40416 -1.57093,-2.90011 -4.16883,-4.59173 -2.598,-1.69173 -5.73963,-1.69173 -3.14174,0 -5.73974,1.75207 -2.53745,1.75209 -4.10836,4.6522 -1.57081,2.83964 -1.57081,6.40417 z m 49.66306,-12.26472 q -4.10836,0.121 -7.25009,2.29592 -3.08126,2.17499 -4.3501,5.98125 v 19.57527 h -4.10833 v -31.47744 h 3.86671 v 7.55219 q 1.63128,-3.32301 4.28963,-5.37719 2.71882,-2.05419 5.73963,-2.29581 0.6042,-0.0605 1.0271,-0.0605 0.48337,0 0.78545,0.0605 z m 66.33823,27.85244 h -4.10835 v -17.58144 q 0,-5.498 -1.75209,-8.0959 -1.75207,-2.598 -5.19589,-2.598 -3.56464,0 -6.40428,2.53754 -2.77919,2.53754 -3.92707,6.52509 v 19.21271 h -4.10847 v -17.58144 q 0,-5.55845 -1.69163,-8.0959 -1.69174,-2.598 -5.1959,-2.598 -3.50417,0 -6.34383,2.47708 -2.83963,2.47719 -3.98752,6.52508 v 19.27318 h -4.10847 v -31.47744 h 3.74589 v 7.12927 q 1.99383,-3.68544 5.07511,-5.67927 3.14173,-1.99382 6.94799,-1.99382 3.92708,0 6.3438,2.23545 2.41674,2.23546 2.96046,5.86056 2.17499,-3.98754 5.1959,-6.04172 3.08128,-2.05429 6.94799,-2.05429 2.65837,0 4.47092,0.96675 1.87291,0.96661 2.96045,2.77917 1.14791,1.75208 1.63128,4.28962 0.54371,2.47708 0.54371,5.55846 z m 6.16266,-9.06262 q 0,-2.96047 1.69174,-5.07499 1.69161,-2.1751 4.65208,-3.32302 3.02091,-1.20835 6.94798,-1.20835 2.29592,0 4.773,0.36255 2.4771,0.36244 4.41045,1.08754 v -2.65847 q 0,-3.98755 -2.35627,-6.3438 -2.35627,-2.35627 -6.52509,-2.35627 -2.53754,0 -5.01462,0.96673 -2.41675,0.90627 -5.0751,2.7187 l -1.57081,-2.89998 q 3.08127,-2.11464 6.04172,-3.14172 2.96045,-1.08756 6.04174,-1.08756 5.80007,0 9.18343,3.32301 3.38337,3.323 3.38337,9.18344 v 14.56064 q 0,0.84582 0.36255,1.26873 0.36254,0.36255 1.1479,0.4229 v 3.26254 q -0.66453,0.0605 -1.1479,0.12086 -0.48336,0.0605 -0.725,0 -1.51045,-0.0605 -2.29592,-0.96663 -0.78534,-0.90627 -0.84581,-1.93337 l -0.0605,-2.2958 q -2.11464,2.7187 -5.498,4.22917 -3.38334,1.45 -6.88764,1.45 -3.02081,0 -5.49799,-1.26872 -2.41663,-1.32917 -3.80627,-3.50428 -1.32918,-2.23545 -1.32918,-4.89381 z m 21.08573,2.41673 q 0.66453,-0.84583 1.02708,-1.63128 0.36244,-0.78545 0.36244,-1.38953 v -4.59172 q -2.05418,-0.78548 -4.28963,-1.20838 -2.17499,-0.4229 -4.41044,-0.4229 -4.41045,0 -7.12927,1.75209 -2.71884,1.75207 -2.71884,4.77288 0,1.7522 0.90629,3.32302 0.90626,1.51046 2.65835,2.53754 1.75221,0.96663 4.10848,0.96663 2.96044,0 5.498,-1.1479 2.59789,-1.14792 3.98754,-2.96045 z m 40.84217,6.64589 h -4.10847 v -17.58144 q 0,-5.55845 -1.63127,-8.0959 -1.63117,-2.598 -5.13545,-2.598 -2.41673,0 -4.773,1.20835 -2.35628,1.14791 -4.16872,3.20208 -1.75221,1.99383 -2.53755,4.59173 v 19.27318 h -4.10847 v -31.47744 h 3.74592 v 7.12927 q 1.26885,-2.29592 3.32302,-3.98754 2.05416,-1.75219 4.65206,-2.7188 2.59803,-0.96675 5.37719,-0.96675 2.59791,0 4.41045,0.96675 1.81254,0.96661 2.90011,2.77917 1.08744,1.75208 1.5708,4.28962 0.48338,2.47708 0.48338,5.55846 z m 8.45834,-12.98972 v -18.48772 h 4.10848 v 17.76273 q 0,5.37718 1.81243,8.03555 1.873,2.65835 5.498,2.65835 2.41673,0 4.65218,-1.02707 2.29582,-1.08757 4.048,-3.02091 1.75209,-1.99383 2.65836,-4.59174 v -19.81691 h 4.10837 v 26.52327 q 0,0.84582 0.36244,1.26873 0.36255,0.36255 1.08756,0.4229 v 3.26254 q -0.72501,0.0605 -1.14791,0.0605 -0.4229,0.0605 -0.78545,0.0605 -1.20838,-0.12086 -2.11465,-0.96664 -0.84581,-0.8458 -0.90616,-2.05415 l -0.12099,-4.22929 q -2.05417,3.62509 -5.61882,5.67927 -3.50417,2.05418 -7.61253,2.05418 -4.95427,0 -7.49183,-3.44384 -2.53754,-3.44369 -2.53754,-10.15007 z m 37.70054,12.98972 v -28.21488 h -4.34998 v -3.26256 h 4.34998 v -0.8458 q 0,-3.86672 1.08755,-6.64603 1.1479,-2.77917 3.20208,-4.22916 2.11464,-1.51047 4.95428,-1.51047 1.8729,0 3.62499,0.54373 1.75221,0.54383 3.02092,1.4501 l -1.26871,2.96046 q -0.78547,-0.66464 -2.05428,-1.02709 -1.26872,-0.36256 -2.53745,-0.36256 -2.83963,0 -4.41056,2.23545 -1.51035,2.23546 -1.51035,6.46464 v 0.96673 h 8.70008 v 3.26256 H 722.328 v 28.21488 z m 15.7689,-9.06262 q 0,-2.96047 1.69174,-5.07499 1.69162,-2.1751 4.65206,-3.32302 3.02094,-1.20835 6.94801,-1.20835 2.29591,0 4.773,0.36255 2.47708,0.36244 4.41044,1.08754 v -2.65847 q 0,-3.98755 -2.35624,-6.3438 -2.35628,-2.35627 -6.5251,-2.35627 -2.53743,0 -5.01465,0.96673 -2.41661,0.90627 -5.07499,2.7187 l -1.57091,-2.89998 q 3.08127,-2.11464 6.04172,-3.14172 2.96046,-1.08756 6.04184,-1.08756 5.79998,0 9.18346,3.32301 3.38335,3.323 3.38335,9.18344 v 14.56064 q 0,0.84582 0.36245,1.26873 0.36255,0.36255 1.1479,0.4229 v 3.26254 q -0.66453,0.0605 -1.1479,0.12086 -0.48338,0.0605 -0.72498,0 -1.51049,-0.0605 -2.29582,-0.96663 -0.78546,-0.90627 -0.84595,-1.93337 l -0.0605,-2.2958 q -2.11465,2.7187 -5.498,4.22917 -3.38337,1.45 -6.88765,1.45 -3.0208,0 -5.49791,-1.26872 -2.41673,-1.32917 -3.80636,-3.50428 -1.32919,-2.23545 -1.32919,-4.89381 z m 21.08574,2.41673 q 0.66452,-0.84583 1.02708,-1.63128 0.36243,-0.78545 0.36243,-1.38953 v -4.59172 q -2.05418,-0.78548 -4.28963,-1.20838 -2.17498,-0.4229 -4.41044,-0.4229 -4.41044,0 -7.12927,1.75209 -2.71872,1.75207 -2.71872,4.77288 0,1.7522 0.90627,3.32302 0.90617,1.51046 2.65837,2.53754 1.75209,0.96663 4.10836,0.96663 2.96044,0 5.49799,-1.1479 2.5979,-1.14792 3.98756,-2.96045 z m 28.0336,7.25008 q -3.4437,0 -6.3438,-1.26873 -2.83964,-1.32916 -5.01465,-3.62508 -2.11462,-2.29582 -3.32288,-5.25627 -1.14801,-2.96046 -1.14801,-6.28346 0,-4.47091 1.99383,-8.15637 1.99371,-3.68545 5.55834,-5.86044 3.56465,-2.1751 8.21681,-2.1751 4.41047,0 7.79381,2.05429 3.38337,1.99371 5.01464,5.43752 l -3.98754,1.26873 q -1.32919,-2.41662 -3.74581,-3.74581 -2.35638,-1.38963 -5.25637,-1.38963 -3.14172,0 -5.73962,1.63126 -2.59802,1.63128 -4.16882,4.47092 -1.51047,2.83963 -1.51047,6.46463 0,3.56462 1.57092,6.46462 1.57082,2.9001 4.16872,4.65218 2.59801,1.69174 5.73973,1.69174 2.05418,0 3.9271,-0.72499 1.93335,-0.72511 3.32299,-1.93336 1.45,-1.26882 1.93337,-2.71882 l 4.04789,1.20836 q -0.84582,2.23545 -2.83964,4.04789 -1.93324,1.7522 -4.59173,2.77928 -2.5979,0.96664 -5.61881,0.96664 z m 34.61929,-2.11464 q -0.48339,0.18127 -1.51047,0.66464 -1.0271,0.48336 -2.47708,0.84581 -1.45011,0.36256 -3.14173,0.36256 -1.75209,0 -3.323,-0.66465 -1.51047,-0.66454 -2.41664,-1.9937 -0.90625,-1.38965 -0.90625,-3.38337 v -22.53572 h -4.3501 v -3.26256 h 4.3501 v -10.63344 h 4.10835 v 10.63344 h 7.25009 v 3.26256 h -7.25009 v 21.38771 q 0.12086,1.69172 1.20837,2.53755 1.14789,0.8458 2.5979,0.8458 1.69174,0 3.08127,-0.54371 1.38964,-0.60419 1.69174,-0.84583 z m 4.83324,-11.47927 v -18.48772 h 4.10846 v 17.76273 q 0,5.37718 1.81245,8.03555 1.87301,2.65835 5.49799,2.65835 2.41673,0 4.65219,-1.02707 2.29582,-1.08757 4.0479,-3.02091 1.75219,-1.99383 2.65839,-4.59174 v -19.81691 h 4.10845 v 26.52327 q 0,0.84582 0.36244,1.26873 0.36257,0.36255 1.08756,0.4229 v 3.26254 q -0.72499,0.0605 -1.1479,0.0605 -0.42294,0.0605 -0.78547,0.0605 -1.20835,-0.12086 -2.11465,-0.96664 -0.84582,-0.8458 -0.90628,-2.05415 l -0.12086,-4.22929 q -2.05418,3.62509 -5.61882,5.67927 -3.50418,2.05418 -7.61253,2.05418 -4.9543,0 -7.49184,-3.44384 -2.53754,-3.44369 -2.53754,-10.15007 z m 51.89863,-14.86272 q -4.10846,0.121 -7.25008,2.29592 -3.08139,2.17499 -4.35009,5.98125 v 19.57527 h -4.10835 v -31.47744 h 3.86672 v 7.55219 q 1.63128,-3.32301 4.28964,-5.37719 2.71872,-2.05419 5.73963,-2.29581 0.60418,-0.0605 1.02707,-0.0605 0.48339,0 0.78548,0.0605 z m 18.12518,28.45663 q -3.38337,0 -6.28337,-1.26873 -2.90009,-1.32916 -5.01471,-3.56462 -2.11454,-2.29592 -3.3229,-5.25639 -1.14791,-2.96044 -1.14791,-6.3438 0,-4.41045 1.9937,-8.0959 2.0542,-3.68545 5.61883,-5.86056 3.56465,-2.23545 8.09602,-2.23545 4.65207,0 8.09589,2.23545 3.50419,2.23546 5.49799,5.9209 1.99373,3.62511 1.99373,7.97521 0,0.48325 0,0.96662 0,0.42291 -0.0605,0.66466 h -26.94617 q 0.30209,3.38335 1.87288,6.0417 1.63128,2.59791 4.16884,4.16884 2.59789,1.51034 5.61881,1.51034 3.08127,0 5.80009,-1.57081 2.77918,-1.57081 3.86673,-4.10837 l 3.56464,0.96663 q -0.96673,2.23546 -2.96046,4.04801 -1.99383,1.81255 -4.71265,2.83963 -2.65836,0.96664 -5.73961,0.96664 z m -11.60018,-17.82308 h 23.26072 q -0.24164,-3.44382 -1.87289,-6.04183 -1.57082,-2.59789 -4.16883,-4.0479 -2.53754,-1.51044 -5.61882,-1.51044 -3.08127,0 -5.61883,1.51044 -2.53754,1.45001 -4.16882,4.10836 -1.5708,2.59791 -1.81253,5.98137 z m 49.17981,-10.63355 q -4.10835,0.121 -7.25011,2.29592 -3.08127,2.17499 -4.34997,5.98125 v 19.57527 h -4.10847 v -31.47744 h 3.86673 v 7.55219 q 1.63126,-3.32301 4.28964,-5.37719 2.71882,-2.05419 5.73974,-2.29581 0.60406,-0.0605 1.02705,-0.0605 0.48328,0 0.78539,0.0605 z m 15.82936,28.45663 q -3.86673,0 -7.18963,-1.26873 -3.32302,-1.26881 -5.73975,-3.86671 l 1.69174,-2.90012 q 2.65835,2.4772 5.31673,3.62511 2.71883,1.08754 5.73964,1.08754 3.68543,0 5.98134,-1.45009 2.29583,-1.51035 2.29583,-4.28963 0,-1.87291 -1.14792,-2.83954 -1.08745,-1.0272 -3.20208,-1.63127 -2.05416,-0.66464 -4.95429,-1.38964 -3.26252,-0.90628 -5.49799,-1.8729 -2.175,-1.0271 -3.32288,-2.53754 -1.08756,-1.57093 -1.08756,-4.04801 0,-3.08127 1.51046,-5.0751 1.57081,-2.05418 4.22916,-3.08126 2.71883,-1.08756 6.04184,-1.08756 3.625,0 6.40418,1.14801 2.77927,1.1479 4.53136,3.20208 l -1.99382,2.77917 q -1.69164,-1.93335 -4.04791,-2.83952 -2.29591,-0.96673 -5.13555,-0.96673 -1.93336,0 -3.68545,0.54372 -1.75208,0.48336 -2.9,1.69174 -1.08754,1.14789 -1.08754,3.20207 0,1.69174 0.84581,2.65837 0.84593,0.90627 2.53755,1.57092 1.69174,0.60417 4.16882,1.32918 3.56462,0.96661 6.22299,1.99371 2.65837,0.96673 4.10836,2.53755 1.45012,1.57092 1.45012,4.41046 0,4.41056 -3.32302,6.88764 -3.323,2.47708 -8.76054,2.47708 z"
       id="slogan"
       style="font-size:54.9592px;font-family:Raleway;-inkscape-font-specification:Raleway;white-space:pre;fill:#ffba49;stroke-width:16.7427"
       aria-label="optimisation for manufacturers" /><g
       id="g12"
       transform="matrix(1.3122992,0,0,1.3122992,68.864827,-296.02925)"
       style="stroke-width:0.762021"><path
         id="path3"
         style="font-weight:bold;font-size:166.993px;font-family:Montserrat;-inkscape-font-specification:'Montserrat Bold';letter-spacing:0.0978471px;white-space:pre;fill:#ffffff;stroke-width:7.62021;paint-order:markers stroke fill"
         d="m 199.18359,504.88672 c -9.46289,0 -17.98039,2.00382 -25.55078,6.01172 -7.45899,3.89649 -13.3026,9.35154 -17.5332,16.36523 -4.2304,7.01379 -6.3457,14.97457 -6.3457,23.88086 0,8.90619 2.1153,16.86521 6.3457,23.87891 4.2306,7.01369 10.07421,12.5254 17.5332,16.5332 7.57039,3.8965 16.08789,5.84375 25.55078,5.84375 9.46289,0 17.92382,-1.94725 25.38282,-5.84375 7.45899,-4.0078 13.30466,-9.51951 17.53515,-16.5332 4.2305,-7.0137 6.34571,-14.97272 6.34571,-23.87891 0,-8.90629 -2.11521,-16.86707 -6.34571,-23.88086 -4.23049,-7.01369 -10.07616,-12.46874 -17.53515,-16.36523 -7.459,-4.0079 -15.91993,-6.01172 -25.38282,-6.01172 z m 0,21.375 c 6.6797,0 12.13464,2.28316 16.36524,6.84766 4.34179,4.45319 6.51367,10.46486 6.51367,18.03515 0,7.57029 -2.17188,13.63668 -6.51367,18.20117 -4.2306,4.4532 -9.68554,6.67969 -16.36524,6.67969 -6.67959,0 -12.18945,-2.22649 -16.53125,-6.67969 -4.34179,-4.56449 -6.51367,-10.63088 -6.51367,-18.20117 0,-7.57029 2.17188,-13.58196 6.51367,-18.03515 4.3418,-4.5645 9.85166,-6.84766 16.53125,-6.84766 z" /><path
         style="font-weight:bold;font-size:166.993px;font-family:Montserrat;-inkscape-font-specification:'Montserrat Bold';letter-spacing:0.0978471px;white-space:pre;fill:#ffffff;stroke-width:7.62021;paint-order:markers stroke fill"
         d="m 94.207783,476.49813 c -12.2462,0 -23.2676,2.6172 -33.0645,7.8496 -9.7969,5.1211 -17.4785,12.3008 -23.0449,21.541 -5.4551,9.129 -8.1817,19.4824 -8.1817,31.0606 0,11.5782 2.7266,21.9882 8.1817,31.2285 5.5664,9.1289 13.1933,16.3085 22.8789,21.541 9.6856,5.1211 20.5957,7.6816 32.7305,7.6816 8.460997,0 16.865097,-1.2792 25.214797,-3.8398 8.3497,-2.5605 15.6972,-6.2344 22.043,-11.0215 v -47.4258 h -22.4668 v 0 H 99.774183 v 24.8222 h 16.476497 v 9.4122 c -6.2344,3.3398 -13.248,5.0097 -21.040997,5.0097 -7.3477,0 -13.916,-1.5585 -19.7051,-4.6758 -5.6777,-3.2284 -10.1308,-7.6815 -13.3593,-13.3593 -3.2286,-5.6778 -4.8418,-12.1347 -4.8418,-19.3711 0,-7.3477 1.6132,-13.8593 4.8418,-19.5371 3.2285,-5.6778 7.7382,-10.0762 13.5273,-13.1934 5.7891,-3.1172 12.412,-4.6758 19.8711,-4.6758 11.800797,0 21.876897,4.3985 30.226597,13.1934 l 17.3671,-16.0313 c -5.6777,-6.5684 -12.6913,-11.5781 -21.041,-15.0293 -8.3496,-3.4511 -17.6464,-5.1777 -27.888597,-5.1777 z"
         id="name" /></g><path
       id="icon"
       style="fill:#ffba49;fill-opacity:1;stroke:none;stroke-width:2.24754;paint-order:markers stroke fill"
       d="m 457.92727,388.35317 -63.02528,93.46074 h 49.44727 l -9.67042,67.42553 63.02533,-93.46055 h -49.4473 z" /><g
       id="g11"
       transform="matrix(1.3122992,0,0,1.3122992,-256.8263,-115.07625)"
       style="stroke-width:0.762021"><path
         id="path4"
         style="font-weight:bold;font-size:166.993px;font-family:Montserrat;-inkscape-font-specification:'Montserrat Bold';letter-spacing:0.0978471px;white-space:pre;fill:#ffffff;stroke-width:7.62021;paint-order:markers stroke fill"
         d="m 585.31836,504.88672 c -7.23629,0 -14.30474,0.94724 -21.20703,2.83984 -6.7911,1.8926 -12.63666,4.56443 -17.53516,8.01563 l 9.35156,18.20117 c 3.2285,-2.5605 7.12506,-4.56442 11.68946,-6.01172 4.67589,-1.5586 9.40821,-2.33789 14.19531,-2.33789 6.90239,0 12.0781,1.55858 15.5293,4.67578 3.45119,3.0059 5.17773,7.3477 5.17773,13.02539 H 581.8125 c -13.13679,0 -22.87892,2.39455 -29.22461,7.18164 -6.23439,4.7871 -9.35156,11.35539 -9.35156,19.70508 0,5.2325 1.33591,9.90825 4.00781,14.02734 2.6718,4.1192 6.51364,7.34765 11.52344,9.68555 5.12109,2.3379 11.13276,3.50586 18.03515,3.50586 13.35929,0 22.48823,-4.17375 27.38672,-12.52344 v 11.1875 h 24.38086 v -51.26562 c 0,-13.35949 -3.7285,-23.32419 -11.1875,-29.89258 -7.45899,-6.67969 -18.14846,-10.01953 -32.06445,-10.01953 z m -0.66797,53.60547 h 17.86914 v 9.18359 c -1.4473,4.0079 -3.89646,7.07035 -7.34765,9.18555 -3.4512,2.0039 -7.40433,3.00586 -11.85743,3.00586 -4.56449,0 -8.18162,-0.94725 -10.85351,-2.83985 -2.5606,-2.00389 -3.8418,-4.67582 -3.8418,-8.01562 0,-7.01379 5.34376,-10.51953 16.03125,-10.51953 z" /><path
         id="path5"
         style="font-weight:bold;font-size:166.993px;font-family:Montserrat;-inkscape-font-specification:'Montserrat Bold';letter-spacing:0.0978471px;white-space:pre;fill:#ffffff;stroke-width:7.62021;paint-order:markers stroke fill"
         d="m 816.71875,504.88672 c -9.01759,0 -17.19918,2.00382 -24.54687,6.01172 -7.2363,3.89649 -12.97068,9.40811 -17.20118,16.5332 -4.11919,7.01369 -6.17968,14.918 -6.17968,23.71289 0,8.90619 2.11716,16.86521 6.34765,23.87891 4.2305,7.01369 10.24217,12.5254 18.03516,16.5332 7.79289,3.8965 16.75387,5.84375 26.88476,5.84375 16.25389,0 28.61128,-4.84175 37.07227,-14.52734 l -13.85938,-15.0293 c -3.11719,3.0059 -6.5136,5.23239 -10.1875,6.67969 -3.56249,1.3359 -7.68162,2.0039 -12.35742,2.0039 -6.79099,0 -12.46881,-1.61515 -17.0332,-4.84375 -4.5645,-3.22849 -7.459,-7.62501 -8.68359,-13.1914 h 67.96679 c 0.3339,-4.3418 0.5,-6.67967 0.5,-7.01367 0,-9.3516 -2.05864,-17.53504 -6.17773,-24.54883 -4.0078,-7.1249 -9.57413,-12.58004 -16.69922,-16.36524 -7.12499,-3.78519 -15.08587,-5.67773 -23.88086,-5.67773 z m 0.16797,19.70508 c 5.78909,0 10.68742,1.72653 14.69531,5.17773 4.0078,3.3399 6.45696,7.8477 7.34766,13.52539 h -44.25391 c 0.8907,-5.78909 3.33986,-10.35346 7.34766,-13.69336 4.00779,-3.33979 8.96298,-5.00976 14.86328,-5.00976 z" /><path
         style="font-weight:bold;font-size:166.993px;font-family:Montserrat;-inkscape-font-specification:'Montserrat Bold';letter-spacing:0.0978471px;white-space:pre;fill:#ffffff;stroke-width:7.62021;paint-order:markers stroke fill"
         d="m 925.78198,506.22273 c -6.9023,0 -13.0254,1.1133 -18.3692,3.3399 -5.2324,2.2266 -9.4082,5.5117 -12.5254,9.8535 v -11.8575 h -24.8808 v 89.8418 h 26.0508 v -42.416 c 0,-8.3496 2.1152,-14.5839 6.3457,-18.7031 4.2304,-4.2305 10.0741,-6.3457 17.5332,-6.3457 1.0019,0 2.9511,0.1113 5.8457,0.334 z"
         id="path8" /><path
         style="font-weight:bold;font-size:166.993px;font-family:Montserrat;-inkscape-font-specification:'Montserrat Bold';letter-spacing:0.0978471px;white-space:pre;fill:#ffffff;stroke-width:7.62021;paint-order:markers stroke fill"
         d="m 696.36988,506.22273 c -6.9024,0 -13.0254,1.1133 -18.3692,3.3399 -5.2324,2.2266 -9.4082,5.5117 -12.5254,9.8535 v -11.8575 h -24.8808 v 89.8418 h 26.0508 v -42.416 c 0,-8.3496 2.1152,-14.5839 6.3457,-18.7031 4.2305,-4.2305 10.0761,-6.3457 17.5351,-6.3457 1.002,0 2.9492,0.1113 5.8438,0.334 z"
         id="path7" /><path
         style="font-weight:bold;font-size:166.993px;font-family:Montserrat;-inkscape-font-specification:'Montserrat Bold';letter-spacing:0.0978471px;white-space:pre;fill:#ffffff;stroke-width:7.62021;paint-order:markers stroke fill"
         d="m 439.51638,506.22273 c -5.7892,0 -11.1328,1.0019 -16.0313,3.0059 -4.7871,2.0038 -8.8496,4.8984 -12.1895,8.6836 v -10.3536 h -24.8828 v 89.8418 h 26.0508 v -45.0878 c 0,-7.793 1.7812,-13.6368 5.3438,-17.5332 3.5624,-4.0079 8.3495,-6.0118 14.3613,-6.0118 11.3555,0 17.0332,7.0683 17.0332,21.2071 v 47.4257 h 26.0508 v -45.0878 c 0,-7.793 1.7813,-13.6368 5.3437,-17.5332 3.5626,-4.0079 8.4063,-6.0118 14.5293,-6.0118 5.4552,0 9.6289,1.7813 12.5235,5.3438 3.0058,3.4512 4.5097,8.7383 4.5097,15.8633 v 47.4257 h 26.0508 v -51.4335 c 0,-13.2482 -3.3398,-23.1563 -10.0195,-29.7247 -6.5683,-6.6797 -15.4746,-10.0195 -26.7188,-10.0195 -6.6797,0 -12.8593,1.2813 -18.5371,3.8418 -5.5664,2.5606 -10.1855,6.1777 -13.8594,10.8535 -3.1172,-4.7871 -7.2362,-8.4042 -12.3574,-10.8535 -5.121,-2.5605 -10.8554,-3.8418 -17.2011,-3.8418 z"
         id="path6" /><path
         style="font-weight:bold;font-size:166.993px;font-family:Montserrat;-inkscape-font-specification:'Montserrat Bold';letter-spacing:0.0978471px;white-space:pre;fill:#ffffff;stroke-width:7.62021;paint-order:markers stroke fill"
         d="m 716.75848,486.35163 v 21.875 h -13.8593 v 20.0391 h 13.8593 v 36.9062 c 0,10.5762 2.8946,18.5918 8.6836,24.0469 5.9005,5.4551 14.1953,8.1816 24.8828,8.1816 4.1192,0 8.0156,-0.4452 11.6895,-1.3359 3.7852,-1.0019 6.957,-2.4492 9.5176,-4.3418 l -7.0137,-18.3691 c -2.8945,2.2265 -6.4003,3.3398 -10.5195,3.3398 -3.5625,0 -6.3457,-1.002 -8.3496,-3.0058 -1.8926,-2.1153 -2.8399,-5.0645 -2.8399,-8.8497 v -36.5722 h 22.377 v -20.0391 h -22.377 v -21.875 z"
         id="path2" /><path
         style="font-weight:bold;font-size:166.993px;font-family:Montserrat;-inkscape-font-specification:'Montserrat Bold';letter-spacing:0.0978471px;white-space:pre;fill:#ffffff;stroke-width:7.62021;paint-order:markers stroke fill"
         d="m 329.69988,476.49813 c -10.6875,0 -19.7597,1.6152 -27.2187,4.8438 -7.3477,3.2284 -12.8593,7.6249 -16.5332,13.1914 -3.6738,5.4551 -5.5098,11.5781 -5.5098,18.3691 0,7.793 2.004,14.0273 6.0117,18.7031 4.1192,4.6759 9.0176,8.0723 14.6954,10.1875 5.6778,2.1153 12.9687,4.2305 21.875,6.3457 5.789,1.336 10.3535,2.5606 13.6933,3.6739 3.4512,1.1132 6.2344,2.6152 8.3496,4.5078 2.2266,1.7812 3.3399,4.0644 3.3399,6.8476 0,3.7852 -1.836,6.8458 -5.5098,9.1836 -3.6739,2.2266 -9.3515,3.3399 -17.0332,3.3399 -6.9024,0 -13.8046,-1.1133 -20.707,-3.3399 -6.9024,-2.2265 -12.8594,-5.1757 -17.8692,-8.8496 l -9.1836,20.3731 c 5.2324,4.0078 12.1347,7.291 20.7071,9.8515 8.6836,2.4493 17.6445,3.6738 26.8847,3.6738 10.6876,0 19.7617,-1.6132 27.2207,-4.8418 7.4591,-3.2285 13.0255,-7.5702 16.6993,-13.0253 3.7852,-5.5664 5.6777,-11.6895 5.6777,-18.3692 0,-7.793 -2.0606,-13.9726 -6.1797,-18.5371 -4.0079,-4.5645 -8.8496,-7.9043 -14.5273,-10.0195 -5.6778,-2.1153 -12.9707,-4.2305 -21.877,-6.3457 -8.5723,-1.8926 -14.9727,-3.7852 -19.2031,-5.6778 -4.1191,-2.0039 -6.1797,-5.0097 -6.1797,-9.0175 0,-4.0079 1.7813,-7.2364 5.3437,-9.6856 3.6739,-2.4492 9.2969,-3.6738 16.8672,-3.6738 10.7989,0 21.5976,3.0624 32.3965,9.1855 l 8.3496,-20.541 c -5.3438,-3.3398 -11.5781,-5.9004 -18.7031,-7.6816 -7.1251,-1.7812 -14.418,-2.6719 -21.877,-2.6719 z"
         id="path1" /></g></g></svg>
