<?xml version="1.0" encoding="UTF-8" standalone="no"?>
<!-- Created with Inkscape (http://www.inkscape.org/) -->

<svg
   width="264.58328mm"
   height="87.122139mm"
   viewBox="0 0 264.58328 87.122139"
   version="1.1"
   id="svg1"
   xml:space="preserve"
   inkscape:version="1.4 (86a8ad7, 2024-10-11)"
   sodipodi:docname="FlorenceLogo_text-as-paths.svg"
   inkscape:export-filename="FlorenceLogo.png"
   inkscape:export-xdpi="96"
   inkscape:export-ydpi="96"
   xmlns:inkscape="http://www.inkscape.org/namespaces/inkscape"
   xmlns:sodipodi="http://sodipodi.sourceforge.net/DTD/sodipodi-0.dtd"
   xmlns:xlink="http://www.w3.org/1999/xlink"
   xmlns="http://www.w3.org/2000/svg"
   xmlns:svg="http://www.w3.org/2000/svg"><sodipodi:namedview
     id="namedview1"
     pagecolor="#505050"
     bordercolor="#ffffff"
     borderopacity="1"
     inkscape:showpageshadow="0"
     inkscape:pageopacity="0"
     inkscape:pagecheckerboard="1"
     inkscape:deskcolor="#505050"
     inkscape:document-units="mm"
     showguides="true"
     inkscape:zoom="0.72378748"
     inkscape:cx="446.9544"
     inkscape:cy="308.7923"
     inkscape:window-width="2560"
     inkscape:window-height="1351"
     inkscape:window-x="2871"
     inkscape:window-y="-9"
     inkscape:window-maximized="1"
     inkscape:current-layer="layer1" /><defs
     id="defs1"><linearGradient
       id="linearGradient4"
       inkscape:collect="always"><stop
         style="stop-color:#db6607;stop-opacity:1"
         offset="0"
         id="stop4" /><stop
         style="stop-color:#ffba49;stop-opacity:1"
         offset="1"
         id="stop5" /></linearGradient><rect
       x="517.19812"
       y="1795.5133"
       width="206.07112"
       height="125.25892"
       id="rect879" /><style
       id="style2">.cls-1{fill:#fff;}</style><style
       id="style2-6">.cls-1{fill:#fff;}</style><linearGradient
       inkscape:collect="always"
       xlink:href="#linearGradient4"
       id="linearGradient5"
       x1="96.760536"
       y1="119.25019"
       x2="96.760536"
       y2="98.66494"
       gradientUnits="userSpaceOnUse"
       gradientTransform="matrix(2.5320313,0,0,2.5320313,-68.986698,-151.1579)" /></defs><g
     inkscape:label="Layer 1"
     inkscape:groupmode="layer"
     id="layer1"
     transform="translate(-45.028822,-98.664705)"><path
       style="font-size:26.2617px;font-family:Roboto;-inkscape-font-specification:Roboto;text-align:center;letter-spacing:0px;text-anchor:middle;fill:#f9f9f9;stroke-width:1.48885;stroke-linejoin:round;paint-order:markers stroke fill"
       d="m 45.029164,180.18315 v -18.67043 h 6.103793 q 3.039074,0 4.565022,1.25667 1.538772,1.25666 1.538772,3.7187 0,1.30795 -0.74374,2.32098 -0.743739,1.0002 -2.026049,1.55159 1.513125,0.42316 2.385096,1.61571 0.884793,1.17972 0.884793,2.82108 0,2.51333 -1.628533,3.94951 -1.628533,1.43619 -4.603491,1.43619 z m 2.462034,-8.73253 v 6.71931 h 4.064921 q 1.718295,0 2.705674,-0.8848 1.000201,-0.89762 1.000201,-2.46203 0,-3.37248 -3.667405,-3.37248 z m 0,-1.97475 h 3.718698 q 1.61571,0 2.577442,-0.80786 0.974555,-0.80785 0.974555,-2.19275 0,-1.53877 -0.897616,-2.23122 -0.897617,-0.70527 -2.73132,-0.70527 h -3.641759 z m 18.054919,7.23222 3.23142,-10.39953 h 2.538973 l -5.578046,16.01605 q -1.295133,3.46223 -4.116214,3.46223 l -0.448808,-0.0385 -0.884794,-0.1667 v -1.92346 l 0.641155,0.0513 q 1.205371,0 1.872172,-0.48728 0.679624,-0.48727 1.115609,-1.78241 l 0.525747,-1.41054 -4.949715,-13.72071 h 2.590265 z m 29.108427,3.47506 h -2.474857 l -9.399329,-14.38751 v 14.38751 H 80.3055 v -18.67043 h 2.474858 l 9.424975,14.45163 v -14.45163 h 2.449211 z m 6.578246,0 h -2.372272 v -13.87459 h 2.372272 z m -2.564618,-17.55482 q 0,-0.57704 0.346223,-0.97455 0.359047,-0.39752 1.051495,-0.39752 0.69245,0 1.05149,0.39752 0.35905,0.39751 0.35905,0.97455 0,0.57704 -0.35905,0.96174 -0.35904,0.38469 -1.05149,0.38469 -0.692448,0 -1.051495,-0.38469 -0.346223,-0.3847 -0.346223,-0.96174 z m 5.796038,10.50212 q 0,-3.24424 1.50031,-5.15489 1.5003,-1.92346 3.97516,-1.92346 2.53897,0 3.96233,1.79523 l 0.11541,-1.53877 h 2.1671 v 13.54119 q 0,2.69285 -1.60288,4.24445 -1.59007,1.55159 -4.28292,1.55159 -1.5003,0 -2.93649,-0.64115 -1.43618,-0.64116 -2.19275,-1.75677 l 1.23102,-1.42336 q 1.52595,1.88499 3.73152,1.88499 1.73112,0 2.69285,-0.97455 0.97456,-0.97456 0.97456,-2.74415 v -1.19254 q -1.42337,1.64135 -3.8854,1.64135 -2.43639,0 -3.94951,-1.96193 -1.50031,-1.96193 -1.50031,-5.34723 z m 2.3851,0.26928 q 0,2.34663 0.96173,3.69306 0.96173,1.3336 2.69285,1.3336 2.24404,0 3.29554,-2.03888 v -6.3346 q -1.08997,-1.98758 -3.26989,-1.98758 -1.73112,0 -2.70568,1.34642 -0.97455,1.34643 -0.97455,3.98798 z m 15.28513,-5.41134 q 1.57724,-1.93629 4.10339,-1.93629 4.39832,0 4.43679,4.96254 v 9.16851 h -2.37227 v -9.18134 q -0.0128,-1.5003 -0.69245,-2.21839 -0.6668,-0.71809 -2.09016,-0.71809 -1.15408,0 -2.02605,0.6155 -0.87197,0.61551 -1.35925,1.61571 v 9.88661 h -2.37227 v -19.69627 h 2.37227 z m 15.31077,-5.03948 v 3.35965 h 2.59027 v 1.8337 h -2.59027 v 8.6043 q 0,0.8335 0.34623,1.25667 0.34622,0.41033 1.17972,0.41033 0.41034,0 1.12843,-0.15387 v 1.92346 q -0.93608,0.25646 -1.82088,0.25646 -1.59006,0 -2.39792,-0.96173 -0.80785,-0.96173 -0.80785,-2.73132 v -8.6043 h -2.52615 v -1.8337 h 2.52615 v -3.35965 z m 7.9375,17.23424 h -2.37227 v -13.87459 h 2.37227 z m -2.56462,-17.55482 q 0,-0.57704 0.34622,-0.97455 0.35905,-0.39752 1.0515,-0.39752 0.69244,0 1.05149,0.39752 0.35905,0.39751 0.35905,0.97455 0,0.57704 -0.35905,0.96174 -0.35905,0.38469 -1.05149,0.38469 -0.69245,0 -1.0515,-0.38469 -0.34622,-0.3847 -0.34622,-0.96174 z m 8.6043,3.68023 0.0769,1.74394 q 1.59007,-2.0004 4.15469,-2.0004 4.39832,0 4.43679,4.96254 v 9.16851 h -2.37227 v -9.18134 q -0.0128,-1.5003 -0.69245,-2.21839 -0.6668,-0.71809 -2.09017,-0.71809 -1.15408,0 -2.02605,0.6155 -0.87197,0.61551 -1.35924,1.61571 v 9.88661 h -2.37228 v -13.87459 z m 11.68184,6.82189 q 0,-3.24424 1.5003,-5.15489 1.50031,-1.92346 3.97516,-1.92346 2.53898,0 3.96234,1.79523 l 0.11541,-1.53877 h 2.1671 v 13.54119 q 0,2.69285 -1.60289,4.24445 -1.59006,1.55159 -4.28291,1.55159 -1.5003,0 -2.93649,-0.64115 -1.43619,-0.64116 -2.19275,-1.75677 l 1.23102,-1.42336 q 1.52595,1.88499 3.73152,1.88499 1.73112,0 2.69285,-0.97455 0.97456,-0.97456 0.97456,-2.74415 v -1.19254 q -1.42337,1.64135 -3.8854,1.64135 -2.43639,0 -3.94952,-1.96193 -1.5003,-1.96193 -1.5003,-5.34723 z m 2.3851,0.26928 q 0,2.34663 0.96173,3.69306 0.96173,1.3336 2.69285,1.3336 2.24404,0 3.29554,-2.03888 v -6.3346 q -1.08997,-1.98758 -3.26989,-1.98758 -1.73112,0 -2.70568,1.34642 -0.97455,1.34643 -0.97455,3.98798 z m 21.47868,6.78342 q -0.20517,-0.41034 -0.3334,-1.46183 -1.65418,1.71829 -3.94951,1.71829 -2.0517,0 -3.37248,-1.15408 -1.30795,-1.1669 -1.30795,-2.94931 0,-2.1671 1.64135,-3.35965 1.65418,-1.20537 4.64196,-1.20537 h 2.30816 v -1.08996 q 0,-1.24384 -0.74374,-1.97476 -0.74374,-0.74374 -2.19275,-0.74374 -1.26948,0 -2.12863,0.64116 -0.85915,0.64115 -0.85915,1.55159 h -2.3851 q 0,-1.03867 0.73092,-2.0004 0.74374,-0.97456 2.0004,-1.53877 1.26949,-0.56422 2.78262,-0.56422 2.39791,0 3.75716,1.20537 1.35925,1.19255 1.41054,3.29554 v 6.3859 q 0,1.91064 0.48728,3.03907 v 0.20517 z m -3.93669,-1.80806 q 1.11561,0 2.11581,-0.57703 1.0002,-0.57704 1.44901,-1.50031 v -2.84672 h -1.85935 q -4.35985,0 -4.35985,2.55179 0,1.11561 0.74374,1.74394 0.74374,0.62833 1.91064,0.62833 z m 12.23323,1.80806 h -2.37227 v -19.69627 h 2.37227 z m 9.55321,0.25646 q -2.82108,0 -4.59067,-1.84652 -1.76959,-1.85935 -1.76959,-4.96254 v -0.43599 q 0,-2.06451 0.78221,-3.68022 0.79503,-1.62854 2.20557,-2.53898 1.42337,-0.92326 3.07755,-0.92326 2.70567,0 4.20597,1.78241 1.5003,1.78241 1.5003,5.10359 v 0.98738 h -9.39933 q 0.0513,2.0517 1.19255,3.32118 1.15408,1.25667 2.92367,1.25667 1.25666,0 2.12863,-0.51293 0.87197,-0.51292 1.52595,-1.35925 l 1.44901,1.12844 q -1.74394,2.68002 -5.23182,2.68002 z m -0.29493,-12.4384 q -1.43619,0 -2.41075,1.05149 -0.97455,1.03868 -1.20537,2.92367 h 6.95012 v -0.17952 q -0.10258,-1.80806 -0.97455,-2.79544 -0.87198,-1.0002 -2.35945,-1.0002 z m 23.17133,12.18194 h -2.47486 v -8.62994 h -9.41215 v 8.62994 h -2.46204 v -18.67043 h 2.46204 v 8.02726 h 9.41215 v -8.02726 h 2.47486 z m 18.63196,-8.73253 q 0,2.70568 -0.85915,4.66761 -0.85914,1.94911 -2.41074,3.0519 l 3.33401,2.61591 -1.67983,1.55159 -3.93669,-3.12883 q -0.92326,0.23081 -1.94911,0.23081 -2.20557,0 -3.91105,-1.07714 -1.70547,-1.08996 -2.65438,-3.09036 -0.93608,-2.01323 -0.96173,-4.65479 v -1.34642 q 0,-2.69285 0.93609,-4.75737 0.93608,-2.06452 2.64156,-3.15448 1.71829,-1.10279 3.92386,-1.10279 2.25687,0 3.96234,1.08997 1.71829,1.08996 2.64156,3.14165 0.92326,2.03888 0.92326,4.7702 z m -2.46203,-1.20537 q 0,-3.29553 -1.32078,-5.07794 -1.30796,-1.79524 -3.74435,-1.79524 -2.32098,0 -3.6674,1.78241 -1.3336,1.76959 -1.37207,4.92407 v 1.37207 q 0,3.20578 1.3336,5.0523 1.34642,1.84653 3.73152,1.84653 2.38509,0 3.69305,-1.73112 1.30796,-1.74394 1.34643,-4.98818 z"
       id="text2"
       aria-label="By NightingaleHQ" /><path
       d="M 74.754993,130.59659 H 55.209017 v 20.19072 H 45.028822 V 101.37942 H 77.19824 v 8.24596 H 55.209017 v 12.75918 h 19.545976 z m 18.052881,20.19072 H 82.967018 V 98.664705 h 9.840856 z m 6.54926,-18.69763 q 0,-5.46337 2.103906,-9.73905 2.10391,-4.27568 6.04025,-6.61713 3.97028,-2.34144 9.19611,-2.34144 7.43154,0 12.11443,4.54715 4.71683,4.54715 5.25977,12.35197 l 0.0679,2.51112 q 0,8.44956 -4.71682,13.57359 -4.71683,5.0901 -12.65738,5.0901 -7.94055,0 -12.69131,-5.0901 -4.716826,-5.0901 -4.716826,-13.84507 z m 9.806926,0.71262 q 0,5.22583 1.96817,8.00842 1.96817,2.74865 5.63304,2.74865 3.56307,0 5.56517,-2.71472 2.00211,-2.74865 2.00211,-8.75497 0,-5.12403 -2.00211,-7.94055 -2.0021,-2.81652 -5.63304,-2.81652 -3.597,0 -5.56517,2.81652 -1.96817,2.78259 -1.96817,8.65317 z m 51.64752,-9.53545 q -2.00211,-0.27148 -3.52914,-0.27148 -5.56517,0 -7.2958,3.76668 v 24.02526 h -9.80693 v -36.71658 h 9.26398 l 0.27148,4.37749 q 2.95225,-5.05616 8.17809,-5.05616 1.62883,0 3.05405,0.44114 z m 20.97121,28.19914 q -8.07629,0 -13.16639,-4.95436 -5.05616,-4.95437 -5.05616,-13.20033 v -0.95015 q 0,-5.53124 2.13784,-9.87479 2.13784,-4.37748 6.04025,-6.71893 3.93634,-2.37537 8.95857,-2.37537 7.53335,0 11.84296,4.75075 4.34355,4.75076 4.34355,13.4718 v 4.00421 H 173.5029 q 0.47507,3.597 2.85045,5.76877 2.40931,2.17178 6.07418,2.17178 5.66698,0 8.85678,-4.10601 l 4.81862,5.3955 q -2.20571,3.12193 -5.97238,4.88649 -3.76667,1.73064 -8.34776,1.73064 z m -1.11982,-30.13338 q -2.91833,0 -4.75076,1.96817 -1.7985,1.96817 -2.30751,5.63304 h 13.64146 v -0.78048 q -0.0679,-3.25766 -1.76457,-5.02223 -1.6967,-1.7985 -4.81862,-1.7985 z m 30.81206,-7.26188 0.30541,4.24175 q 3.93634,-4.92042 10.55347,-4.92042 5.83664,0 8.6871,3.42733 2.85045,3.42733 2.91832,10.24806 v 23.71986 h -9.80692 v -23.48232 q 0,-3.12193 -1.35736,-4.51322 -1.35736,-1.42523 -4.51322,-1.42523 -4.13995,0 -6.20992,3.52914 v 25.89163 h -9.80692 v -36.71658 z m 45.16613,29.48864 q 2.71471,0 4.41141,-1.4931 1.6967,-1.49309 1.76457,-3.97027 h 9.19611 q -0.0339,3.73274 -2.03604,6.85466 -2.0021,3.08799 -5.4973,4.81863 -3.46127,1.6967 -7.66908,1.6967 -7.87269,0 -12.41984,-4.9883 -4.54716,-5.02223 -4.54716,-13.84506 v -0.64475 q 0,-8.4835 4.51322,-13.53966 4.51322,-5.05616 12.38591,-5.05616 6.8886,0 11.02854,3.93634 4.17388,3.90241 4.24175,10.41773 h -9.19611 q -0.0679,-2.85045 -1.76457,-4.61502 -1.6967,-1.7985 -4.47928,-1.7985 -3.42734,0 -5.1919,2.51111 -1.73064,2.47718 -1.73064,8.07629 v 1.01802 q 0,5.66698 1.73064,8.14416 1.73063,2.47718 5.25977,2.47718 z m 37.87033,7.90662 q -8.07629,0 -13.16639,-4.95436 -5.05616,-4.95437 -5.05616,-13.20033 v -0.95015 q 0,-5.53124 2.13784,-9.87479 2.13784,-4.37748 6.04025,-6.71893 3.93634,-2.37537 8.95857,-2.37537 7.53335,0 11.84296,4.75075 4.34355,4.75076 4.34355,13.4718 v 4.00421 H 286.2316 q 0.47507,3.597 2.85045,5.76877 2.40931,2.17178 6.07418,2.17178 5.66698,0 8.85677,-4.10601 l 4.81863,5.3955 q -2.20571,3.12193 -5.97238,4.88649 -3.76667,1.73064 -8.34776,1.73064 z m -1.11982,-30.13338 q -2.91833,0 -4.75076,1.96817 -1.7985,1.96817 -2.30751,5.63304 h 13.64146 v -0.78048 q -0.0679,-3.25766 -1.76457,-5.02223 -1.6967,-1.7985 -4.81862,-1.7985 z"
       id="text1"
       style="font-weight:bold;font-size:69.4968px;font-family:Roboto;-inkscape-font-specification:'Roboto Bold';text-align:center;letter-spacing:0px;text-anchor:middle;fill:url(#linearGradient5);stroke-width:3.93996;stroke-linejoin:round;paint-order:markers stroke fill"
       aria-label="Florence" /></g></svg>
