<?xml version="1.0" encoding="UTF-8" standalone="no"?>
<!-- Created with Inkscape (http://www.inkscape.org/) -->

<svg
   width="558.31189mm"
   height="666.59369mm"
   viewBox="0 0 558.31189 666.59368"
   version="1.1"
   id="svg1"
   inkscape:version="1.4 (86a8ad7, 2024-10-11)"
   sodipodi:docname="FlorenceIcon.svg"
   xmlns:inkscape="http://www.inkscape.org/namespaces/inkscape"
   xmlns:sodipodi="http://sodipodi.sourceforge.net/DTD/sodipodi-0.dtd"
   xmlns="http://www.w3.org/2000/svg"
   xmlns:svg="http://www.w3.org/2000/svg">
  <sodipodi:namedview
     id="namedview1"
     pagecolor="#505050"
     bordercolor="#ffffff"
     borderopacity="1"
     inkscape:showpageshadow="0"
     inkscape:pageopacity="0"
     inkscape:pagecheckerboard="1"
     inkscape:deskcolor="#505050"
     inkscape:document-units="mm"
     inkscape:zoom="0.27482814"
     inkscape:cx="876.91165"
     inkscape:cy="942.40713"
     inkscape:window-width="2880"
     inkscape:window-height="1496"
     inkscape:window-x="-12"
     inkscape:window-y="-12"
     inkscape:window-maximized="1"
     inkscape:current-layer="layer1" />
  <defs
     id="defs1" />
  <g
     inkscape:label="Layer 1"
     inkscape:groupmode="layer"
     id="layer1"
     transform="translate(149.22508,213.93399)">
    <g
       transform="matrix(1.294428,0,0,1.294428,-3097.99,-1860.3489)"
       id="g1267"
       style="fill:#ffffff">
      <path
         style="color:#000000;font-style:normal;font-variant:normal;font-weight:normal;font-stretch:normal;font-size:medium;line-height:normal;font-family:sans-serif;font-variant-ligatures:normal;font-variant-position:normal;font-variant-caps:normal;font-variant-numeric:normal;font-variant-alternates:normal;font-variant-east-asian:normal;font-feature-settings:normal;font-variation-settings:normal;text-indent:0;text-align:start;text-decoration:none;text-decoration-line:none;text-decoration-style:solid;text-decoration-color:#000000;letter-spacing:normal;word-spacing:normal;text-transform:none;writing-mode:lr-tb;direction:ltr;text-orientation:mixed;dominant-baseline:auto;baseline-shift:baseline;text-anchor:start;white-space:normal;shape-padding:0;shape-margin:0;inline-size:0;clip-rule:nonzero;display:inline;overflow:visible;visibility:visible;opacity:1;isolation:auto;mix-blend-mode:normal;color-interpolation:sRGB;color-interpolation-filters:linearRGB;solid-color:#000000;solid-opacity:1;vector-effect:none;fill:#ffffff;fill-opacity:1;fill-rule:nonzero;stroke:none;stroke-width:33.2743;stroke-linecap:butt;stroke-linejoin:round;stroke-miterlimit:4;stroke-dasharray:none;stroke-dashoffset:0;stroke-opacity:1;color-rendering:auto;image-rendering:auto;shape-rendering:auto;text-rendering:auto;enable-background:accumulate;stop-color:#000000;stop-opacity:1"
         d="m 2500.6523,1632.6875 v 0.01 l -0.01,0.012 -0.025,0.051 0.062,-0.1133 z"
         id="path1132" />
      <path
         style="color:#000000;font-style:normal;font-variant:normal;font-weight:normal;font-stretch:normal;font-size:medium;line-height:normal;font-family:sans-serif;font-variant-ligatures:normal;font-variant-position:normal;font-variant-caps:normal;font-variant-numeric:normal;font-variant-alternates:normal;font-variant-east-asian:normal;font-feature-settings:normal;font-variation-settings:normal;text-indent:0;text-align:start;text-decoration:none;text-decoration-line:none;text-decoration-style:solid;text-decoration-color:#000000;letter-spacing:normal;word-spacing:normal;text-transform:none;writing-mode:lr-tb;direction:ltr;text-orientation:mixed;dominant-baseline:auto;baseline-shift:baseline;text-anchor:start;white-space:normal;shape-padding:0;shape-margin:0;inline-size:0;clip-rule:nonzero;display:inline;overflow:visible;visibility:visible;opacity:1;isolation:auto;mix-blend-mode:normal;color-interpolation:sRGB;color-interpolation-filters:linearRGB;solid-color:#000000;solid-opacity:1;vector-effect:none;fill:#ffffff;fill-opacity:1;fill-rule:nonzero;stroke:none;stroke-width:33.2743;stroke-linecap:butt;stroke-linejoin:round;stroke-miterlimit:4;stroke-dasharray:none;stroke-dashoffset:0;stroke-opacity:1;color-rendering:auto;image-rendering:auto;shape-rendering:auto;text-rendering:auto;enable-background:accumulate;stop-color:#000000;stop-opacity:1"
         d="m 2373.252,1586.3516 0.059,-0.078 v -0.01 l 0.01,-0.01 0.057,-0.088 z"
         id="path1128" />
      <path
         style="color:#000000;font-style:normal;font-variant:normal;font-weight:normal;font-stretch:normal;font-size:medium;line-height:normal;font-family:sans-serif;font-variant-ligatures:normal;font-variant-position:normal;font-variant-caps:normal;font-variant-numeric:normal;font-variant-alternates:normal;font-variant-east-asian:normal;font-feature-settings:normal;font-variation-settings:normal;text-indent:0;text-align:start;text-decoration:none;text-decoration-line:none;text-decoration-style:solid;text-decoration-color:#000000;letter-spacing:normal;word-spacing:normal;text-transform:none;writing-mode:lr-tb;direction:ltr;text-orientation:mixed;dominant-baseline:auto;baseline-shift:baseline;text-anchor:start;white-space:normal;shape-padding:0;shape-margin:0;inline-size:0;clip-rule:nonzero;display:inline;overflow:visible;visibility:visible;opacity:1;isolation:auto;mix-blend-mode:normal;color-interpolation:sRGB;color-interpolation-filters:linearRGB;solid-color:#000000;solid-opacity:1;vector-effect:none;fill:#ffffff;fill-opacity:1;fill-rule:nonzero;stroke:none;stroke-width:33.2743;stroke-linecap:butt;stroke-linejoin:round;stroke-miterlimit:4;stroke-dasharray:none;stroke-dashoffset:0;stroke-opacity:1;color-rendering:auto;image-rendering:auto;shape-rendering:auto;text-rendering:auto;enable-background:accumulate;stop-color:#000000;stop-opacity:1"
         d="m 2498.5469,1637.041 0.055,-0.086 -0.049,0.076 z"
         id="path1126" />
      <path
         id="path1247"
         style="color:#000000;font-style:normal;font-variant:normal;font-weight:normal;font-stretch:normal;font-size:medium;line-height:normal;font-family:sans-serif;font-variant-ligatures:normal;font-variant-position:normal;font-variant-caps:normal;font-variant-numeric:normal;font-variant-alternates:normal;font-variant-east-asian:normal;font-feature-settings:normal;font-variation-settings:normal;text-indent:0;text-align:start;text-decoration:none;text-decoration-line:none;text-decoration-style:solid;text-decoration-color:#000000;letter-spacing:normal;word-spacing:normal;text-transform:none;writing-mode:lr-tb;direction:ltr;text-orientation:mixed;dominant-baseline:auto;baseline-shift:baseline;text-anchor:start;white-space:normal;shape-padding:0;shape-margin:0;inline-size:0;clip-rule:nonzero;display:inline;overflow:visible;visibility:visible;opacity:1;isolation:auto;mix-blend-mode:normal;color-interpolation:sRGB;color-interpolation-filters:linearRGB;solid-color:#000000;solid-opacity:1;vector-effect:none;fill:#ffffff;fill-opacity:1;fill-rule:nonzero;stroke:none;stroke-width:15.3682;stroke-linecap:butt;stroke-linejoin:round;stroke-miterlimit:4;stroke-dasharray:none;stroke-dashoffset:0;stroke-opacity:1;color-rendering:auto;image-rendering:auto;shape-rendering:auto;text-rendering:auto;enable-background:accumulate;stop-color:#000000;stop-opacity:1"
         d="m 2488.5273,1670.666 a 7.6848686,7.6848686 0 0 0 -0.1171,0 h -89.5118 c -18.6316,9e-4 -32.6971,10.9768 -40.9063,21.582 -7.951,10.2719 -12.2673,21.0227 -15.0605,27.7812 -2.1041,5.0914 -7.2238,18.7712 -14.9727,39.4805 -7.7522,20.718 -17.6647,47.3578 -27.7031,74.4492 -20.0766,54.181 -40.3951,109.3829 -45.5762,124.4043 -7.1107,20.6063 -6.9115,43.4451 3.2266,62.9551 10.3698,19.9561 32.2767,34.2245 58.7949,34.5606 38.0071,0.4823 51.9981,0.1347 51.9981,0.1347 9.72,-0.2492 18.346,-6.4707 21.6504,-15.6152 0.013,-0.034 3.7855,-10.3026 8.9394,-20.0508 2.4063,-4.5513 5.2745,-8.9408 7.0801,-11.1699 19.3658,-0.7624 55.7095,-0.483 73.0586,0.012 1.8292,2.4778 4.4346,6.6132 6.7383,11.0176 5.2522,10.0407 9.2949,20.6133 9.2949,20.6133 3.4753,9.1738 12.3177,15.2828 22.1289,15.2832 h 56.7519 c 44.7527,0 74.9559,-49.7091 59.8477,-96.0254 -5.7723,-17.7606 -26.9826,-77.6372 -47.7051,-135.3067 -10.3643,-28.843 -20.5329,-56.9053 -28.4141,-78.3144 -3.9405,-10.7047 -7.3045,-19.7362 -9.8672,-26.4512 -1.2804,-3.355 -2.3566,-6.1233 -3.25,-8.3379 v 0 c -0.6929,-1.718 -1.1104,-3.2531 -2.9961,-6.5723 v 0 c -3.1515,-5.5472 -8.3808,-13.3638 -16.8066,-20.504 -8.5804,-7.271 -21.1889,-13.9238 -36.627,-13.9238 z m -90.123,47.3106 c 0.011,0 0.092,0.023 0.5,0.023 h 89.623 c 2.3357,0 3.3653,0.4457 6.0293,2.7031 2.139,1.8127 4.5394,5.0339 5.8262,7.166 0.2336,0.4988 0.5013,1.0625 0.6817,1.5098 0.6978,1.7294 1.7036,4.3124 2.9238,7.5098 2.441,6.3963 5.7676,15.3195 9.6719,25.9257 7.8089,21.2131 17.9531,49.2045 28.289,77.9688 20.6714,57.5271 42.4192,119.1134 47.2422,133.9551 a 7.6848686,7.6848686 0 0 0 0.021,0.062 c 3.025,9.3139 0.9502,17.8722 -3.0469,24.3261 -4.0026,6.4626 -10.4454,9.6543 -11.8144,9.6543 h -41.2461 c -1.5289,-3.3594 -2.9797,-6.6546 -4.9922,-10.5019 -3.4307,-6.5585 -7.4385,-13.5292 -12.6504,-19.9746 -4.4268,-5.4746 -12.1303,-14.7275 -25.9492,-16.084 a 7.6848686,7.6848686 0 0 0 -0.7559,-0.037 l -91.2402,0.076 a 7.6848686,7.6848686 0 0 0 -0.9473,0.059 c -12.8068,1.6017 -20.7889,9.738 -25.7793,15.5723 -5.625,6.5764 -9.8226,13.704 -13.334,20.3457 -2.0451,3.8681 -3.4743,7.171 -4.9941,10.5429 -7.7919,0.015 -17.5342,0.01 -35.1563,-0.2148 -6.0695,-0.077 -9.5542,-1.1696 -11.8593,-2.5664 -2.3051,-1.3968 -3.8651,-3.2706 -5.5391,-6.4922 -2.8442,-5.4732 -3.8404,-15.9733 -0.4844,-25.6973 4.3315,-12.5585 25.1689,-69.2883 45.2168,-123.3926 10.0245,-27.0529 19.923,-53.6582 27.6485,-74.3047 7.7224,-20.6382 13.9902,-37.0356 14.3847,-37.9902 2.5781,-6.2384 6.0066,-13.347 8.7481,-16.8887 1.621,-2.0941 2.6485,-2.9842 2.9023,-3.1484 0.1269,-0.082 0.069,-0.1011 0.08,-0.1 z"
         transform="translate(28.284271,-269.23849)" />
      <path
         id="path1233"
         style="color:#000000;font-style:normal;font-variant:normal;font-weight:normal;font-stretch:normal;font-size:medium;line-height:normal;font-family:sans-serif;font-variant-ligatures:normal;font-variant-position:normal;font-variant-caps:normal;font-variant-numeric:normal;font-variant-alternates:normal;font-variant-east-asian:normal;font-feature-settings:normal;font-variation-settings:normal;text-indent:0;text-align:start;text-decoration:none;text-decoration-line:none;text-decoration-style:solid;text-decoration-color:#000000;letter-spacing:normal;word-spacing:normal;text-transform:none;writing-mode:lr-tb;direction:ltr;text-orientation:mixed;dominant-baseline:auto;baseline-shift:baseline;text-anchor:start;white-space:normal;shape-padding:0;shape-margin:0;inline-size:0;clip-rule:nonzero;display:inline;overflow:visible;visibility:visible;opacity:1;isolation:auto;mix-blend-mode:normal;color-interpolation:sRGB;color-interpolation-filters:linearRGB;solid-color:#000000;solid-opacity:1;vector-effect:none;fill:#ffffff;fill-opacity:1;fill-rule:nonzero;stroke:none;stroke-width:23.0257;stroke-linecap:butt;stroke-linejoin:miter;stroke-miterlimit:4;stroke-dasharray:none;stroke-dashoffset:0;stroke-opacity:1;color-rendering:auto;image-rendering:auto;shape-rendering:auto;text-rendering:auto;enable-background:accumulate;stop-color:#000000;stop-opacity:1"
         d="m 2421.8809,1739.0586 -2.5704,16.8418 c -3.8637,25.3186 -17.6033,42.0326 -32.375,60.6641 -14.7717,18.6315 -30.7513,39.7414 -31.0078,70.4238 -0.2192,26.2022 17.7298,43.4819 30.6426,55.9512 v 0 c 2.5187,2.4321 4.8865,4.4657 7.041,6.3555 l 3.2617,2.8613 92.7266,-0.078 3.2324,-2.7793 c 2.9905,-2.5708 6.1179,-5.33 9.2871,-8.3965 14.3774,-13.9121 30.4345,-32.8365 31.4493,-56.9043 1.4811,-35.1218 -20.9021,-65.1022 -39.9434,-88.5879 -12.4744,-15.3858 -40.8195,-38.0791 -57.0762,-47.6855 z m 17.5117,56.5918 c 10.8268,8.2345 24.9695,20.3243 29.291,25.6543 14.1411,17.4418 27.6748,37.7605 26.8867,56.4531 -0.442,10.4798 -9.086,22.4307 -18.8808,31.9082 -1.303,1.2608 -2.6712,2.435 -4.0215,3.6309 l -58.1231,0.051 c -0.7818,-0.6977 -1.6267,-1.4175 -2.3574,-2.1231 -9.837,-9.4991 -18.3303,-18.3381 -18.2305,-30.2617 0.1483,-17.7356 8.8547,-29.3007 20.0938,-43.4766 9.0618,-11.4295 19.594,-24.3576 25.3418,-41.8359 z"
         transform="translate(28.284271,-269.23849)" />
    </g>
    <path
       id="path5"
       style="fill:#ffffff;stroke-width:1.22891;stroke-linecap:round;stroke-linejoin:round;paint-order:markers stroke fill"
       d="m 324.00221,-73.910259 c -14.05081,14.05081 -24.09822,53.698586 -25.8866,53.698586 -1.78839,0 -11.8358,-39.647776 -25.88661,-53.698586 -14.05081,-14.05081 -53.69859,-24.098225 -53.69859,-25.886604 0,-1.788377 39.64778,-11.835797 53.69859,-25.886617 14.05081,-14.05081 24.09822,-53.69858 25.88661,-53.69858 1.78836,0 11.83579,39.64777 25.8866,53.69858 14.05081,14.05082 53.69859,24.09824 53.69859,25.88661 0,1.788379 -39.64778,11.835801 -53.69859,25.886611 z"
       sodipodi:nodetypes="asasasasa" />
    <path
       id="path6"
       style="fill:#ffffff;stroke-width:0.664656;stroke-linecap:round;stroke-linejoin:round;paint-order:markers stroke fill"
       d="m 380.04394,-156.8896 c -7.59936,7.59939 -13.0335,29.04287 -14.00075,29.04287 -0.96724,0 -6.40139,-21.44348 -14.00077,-29.04287 -7.59938,-7.59936 -29.04286,-13.0335 -29.04286,-14.00075 0,-0.96724 21.44348,-6.40139 29.04286,-14.00077 7.59938,-7.59938 13.03353,-29.04286 14.00077,-29.04286 0.96723,0 6.40139,21.44348 14.00075,29.04286 7.59939,7.59938 29.04287,13.03353 29.04287,14.00077 0,0.96723 -21.44348,6.40139 -29.04287,14.00075 z"
       sodipodi:nodetypes="asasasasa" />
    <path
       id="path7"
       style="fill:#ffffff;stroke-width:0.664656;stroke-linecap:round;stroke-linejoin:round;paint-order:markers stroke fill"
       d="m 380.04394,-14.702624 c -7.59936,7.5993809 -13.0335,29.042867 -14.00075,29.042867 -0.96724,0 -6.40139,-21.4434861 -14.00077,-29.042867 -7.59938,-7.599373 -29.04286,-13.033513 -29.04286,-14.000755 0,-0.967243 21.44348,-6.401391 29.04286,-14.000764 7.59938,-7.59938 13.03353,-29.042867 14.00077,-29.042867 0.96723,0 6.40139,21.443487 14.00075,29.042867 7.59939,7.599373 29.04287,13.033521 29.04287,14.000755 0,0.967243 -21.44348,6.401391 -29.04287,14.000764 z"
       sodipodi:nodetypes="asasasasa" />
    <circle
       style="fill:none;stroke:#ffffff;stroke-width:46;stroke-linecap:round;stroke-linejoin:round;paint-order:markers stroke fill;stroke-dasharray:none"
       id="path8"
       cx="102.12907"
       cy="-108.77853"
       r="66.568596" />
  </g>
</svg>
