<?xml version="1.0" encoding="UTF-8" standalone="no"?>
<!-- Created with Inkscape (http://www.inkscape.org/) -->

<svg
   width="903.81854"
   height="127.61971"
   viewBox="0 0 903.81854 127.61971"
   version="1.1"
   id="svg5"
   xml:space="preserve"
   xmlns="http://www.w3.org/2000/svg"
   xmlns:svg="http://www.w3.org/2000/svg"><defs
     id="defs2" /><path
     style="font-weight:bold;font-size:166.993px;font-family:Montserrat;-inkscape-font-specification:'Montserrat Bold';letter-spacing:0.0978471px;white-space:pre;fill:#2d3047;stroke-width:10;paint-order:markers stroke fill"
     d="m 299.7531,124.2613 q -13.8604,0 -26.8859,-3.6739 -12.8585,-3.8408 -20.7071,-9.8525 l 9.1846,-20.3732 q 7.5147,5.5108 17.8682,8.8506 10.3536,3.3399 20.7072,3.3399 11.5225,0 17.0333,-3.3399 5.5107,-3.5068 5.5107,-9.1846 0,-4.1748 -3.3398,-6.8467 -3.1729,-2.8389 -8.3497,-4.5088 -5.0098,-1.6699 -13.6934,-3.6738 -13.3594,-3.1729 -21.8761,-6.3458 -8.5166,-3.1728 -14.6954,-10.1866 -6.0117,-7.0137 -6.0117,-18.7032 0,-10.1865 5.5107,-18.3692 5.5108,-8.3497 16.5324,-13.1924 11.1885,-4.8428 27.2198,-4.8428 11.1885,0 21.8761,2.6718 10.6875,2.6719 18.7032,7.6817 l -8.3496,20.5402 q -16.1984,-9.1847 -32.3967,-9.1847 -11.3555,0 -16.8663,3.6739 -5.3437,3.6738 -5.3437,9.6856 0,6.0117 6.1787,9.0176 6.3457,2.8389 19.2042,5.6778 13.3594,3.1728 21.8761,6.3457 8.5166,3.1729 14.5284,10.0196 6.1787,6.8467 6.1787,18.5362 0,10.0196 -5.6778,18.3692 -5.5107,8.1827 -16.6993,13.0255 -11.1885,4.8428 -27.2198,4.8428 z"
     id="text36"
     aria-label="S&#10;" /><path
     d="m 90.312,61.9729 h 24.715 v 47.426 q -9.5186,7.1807 -22.0431,11.0215 -12.5245,3.8409 -25.216,3.8409 -18.2022,0 -32.7306,-7.6817 Q 20.5089,108.7309 12.1593,95.0375 3.9766,81.1771 3.9766,63.8098 q 0,-17.3673 8.1827,-31.0607 8.3496,-13.8604 23.045,-21.5421 14.6954,-7.8486 33.0646,-7.8486 15.3634,0 27.8878,5.1767 12.5245,5.1768 21.0412,15.0294 L 99.8306,39.5958 Q 87.3061,26.4034 69.6049,26.4034 q -11.1886,0 -19.8722,4.6758 -8.6836,4.6758 -13.5264,13.1924 -4.8428,8.5167 -4.8428,19.5382 0,10.8546 4.8428,19.3712 4.8428,8.5167 13.3594,13.3594 8.6836,4.6759 19.7052,4.6759 11.6895,0 21.0411,-5.0098 z"
     id="text37"
     style="font-weight:bold;font-size:166.993px;font-family:Montserrat;-inkscape-font-specification:'Montserrat Bold';white-space:pre;fill:#2d3047;stroke-width:10;paint-order:markers stroke fill"
     aria-label="G" /><path
     d="m 559.3805,31.747 q 20.8741,0 32.0627,10.0196 11.1885,9.8526 11.1885,29.8918 v 51.2668 h -24.381 v -11.1885 q -7.3477,12.5245 -27.3868,12.5245 -10.3536,0 -18.0353,-3.5069 -7.5147,-3.5068 -11.5225,-9.6856 -4.0078,-6.1787 -4.0078,-14.0274 0,-12.5245 9.3516,-19.7052 9.5186,-7.1807 29.2238,-7.1807 h 20.7071 q 0,-8.5166 -5.1768,-13.0254 -5.1768,-4.6758 -15.5303,-4.6758 -7.1807,0 -14.1945,2.3379 -6.8467,2.1709 -11.6895,6.0117 l -9.3516,-18.2022 q 7.3477,-5.1768 17.5343,-8.0157 10.3536,-2.8389 21.2081,-2.8389 z m -2.0039,74.9799 q 6.6797,0 11.8565,-3.0059 5.1768,-3.1728 7.3477,-9.1846 v -9.1846 h -17.8683 q -16.0313,0 -16.0313,10.5206 0,5.0097 3.8408,8.0156 4.0079,2.8389 10.8546,2.8389 z"
     id="text38"
     style="font-weight:bold;font-size:166.993px;font-family:Montserrat;-inkscape-font-specification:'Montserrat Bold';letter-spacing:0.0978471px;white-space:pre;fill:#2d3047;stroke-width:10;paint-order:markers stroke fill"
     aria-label="a" /><path
     d="m 639.5369,46.2754 q 4.6758,-6.5127 12.5245,-9.8526 8.0157,-3.3398 18.3692,-3.3398 V 57.13 q -4.3418,-0.334 -5.8447,-0.334 -11.1885,0 -17.5343,6.3457 -6.3457,6.1788 -6.3457,18.7032 v 42.4163 H 614.655 V 34.4189 h 24.8819 z"
     id="text39"
     style="font-weight:bold;font-size:166.993px;font-family:Montserrat;-inkscape-font-specification:'Montserrat Bold';letter-spacing:0.0978471px;white-space:pre;fill:#2d3047;stroke-width:10;paint-order:markers stroke fill"
     aria-label="r" /><path
     d="m 837.5383,78.3381 q 0,0.501 -0.5009,7.0137 h -67.9662 q 1.8369,8.3496 8.6837,13.1924 6.8467,4.8428 17.0332,4.8428 7.0137,0 12.3575,-2.0039 5.5108,-2.1709 10.1866,-6.6797 l 13.8604,15.0294 q -12.6915,14.5284 -37.0724,14.5284 -15.1964,0 -26.8859,-5.8448 -11.6895,-6.0117 -18.0352,-16.5323 -6.3458,-10.5206 -6.3458,-23.88 0,-13.1924 6.1788,-23.713 6.3457,-10.6876 17.2002,-16.5323 11.0216,-6.0118 24.548,-6.0118 13.1925,0 23.88,5.6778 10.6876,5.6778 16.6993,16.3653 6.1787,10.5206 6.1787,24.548 z m -46.591,-26.8859 q -8.8506,0 -14.8624,5.0098 -6.0117,5.0098 -7.3477,13.6934 h 44.2532 q -1.336,-8.5166 -7.3477,-13.5264 -6.0118,-5.1768 -14.6954,-5.1768 z"
     id="text40"
     style="font-weight:bold;font-size:166.993px;font-family:Montserrat;-inkscape-font-specification:'Montserrat Bold';letter-spacing:0.0978471px;white-space:pre;fill:#2d3047;stroke-width:10;paint-order:markers stroke fill"
     aria-label="e" /><path
     d="m 868.9483,46.2754 q 4.6758,-6.5127 12.5245,-9.8526 8.0157,-3.3398 18.3692,-3.3398 V 57.13 q -4.3418,-0.334 -5.8447,-0.334 -11.1886,0 -17.5343,6.3457 -6.3457,6.1788 -6.3457,18.7032 v 42.4163 H 844.0664 V 34.4189 h 24.8819 z"
     id="text41"
     style="font-weight:bold;font-size:166.993px;font-family:Montserrat;-inkscape-font-specification:'Montserrat Bold';letter-spacing:0.0978471px;white-space:pre;fill:#2d3047;stroke-width:10;paint-order:markers stroke fill"
     aria-label="r" /><path
     d="m 173.245,124.2612 q -14.1944,0 -25.5499,-5.8448 -11.1885,-6.0117 -17.5343,-16.5323 -6.3457,-10.5206 -6.3457,-23.88 0,-13.3594 6.3457,-23.88 6.3458,-10.5206 17.5343,-16.3653 11.3555,-6.0118 25.5499,-6.0118 14.1944,0 25.383,6.0118 11.1885,5.8447 17.5342,16.3653 6.3458,10.5206 6.3458,23.88 0,13.3594 -6.3458,23.88 -6.3457,10.5206 -17.5342,16.5323 -11.1886,5.8448 -25.383,5.8448 z m 0,-21.3751 q 10.0196,0 16.3654,-6.6798 6.5127,-6.8467 6.5127,-18.2022 0,-11.3555 -6.5127,-18.0352 -6.3458,-6.8468 -16.3654,-6.8468 -10.0195,0 -16.5323,6.8468 -6.5127,6.6797 -6.5127,18.0352 0,11.3555 6.5127,18.2022 6.5128,6.6798 16.5323,6.6798 z"
     id="text42"
     style="font-weight:bold;font-size:166.993px;font-family:Montserrat;-inkscape-font-specification:'Montserrat Bold';letter-spacing:0.0978471px;white-space:pre;fill:#2d3047;stroke-width:10;paint-order:markers stroke fill"
     aria-label="o" /><path
     d="m 475.5318,33.083 q 16.8663,0 26.7188,10.0196 10.0196,9.8525 10.0196,29.7247 v 51.4339 H 486.2193 V 76.8351 q 0,-10.6875 -4.5088,-15.8643 -4.3418,-5.3438 -12.5245,-5.3438 -9.1846,0 -14.5284,6.0118 -5.3437,5.8447 -5.3437,17.5342 v 45.0882 H 423.263 V 76.8351 q 0,-21.2081 -17.0333,-21.2081 -9.0177,0 -14.3614,6.0118 -5.3438,5.8447 -5.3438,17.5342 v 45.0882 H 360.4736 V 34.4189 h 24.8819 v 10.3536 q 5.0098,-5.6778 12.1905,-8.6836 7.3477,-3.0059 16.0314,-3.0059 9.5186,0 17.2002,3.8408 7.6817,3.6739 12.3575,10.8546 5.5108,-7.0137 13.8604,-10.8546 8.5167,-3.8408 18.5363,-3.8408 z"
     id="text43"
     style="font-weight:bold;font-size:166.993px;font-family:Montserrat;-inkscape-font-specification:'Montserrat Bold';letter-spacing:0.0978471px;white-space:pre;fill:#2d3047;stroke-width:10;paint-order:markers stroke fill"
     aria-label="m" /><path
     d="m 745.593,118.5834 q -3.8408,2.8389 -9.5186,4.3418 -5.5108,1.336 -11.6895,1.336 -16.0313,0 -24.882,-8.1827 -8.6836,-8.1827 -8.6836,-24.047 V 55.1261 H 676.9589 V 35.0869 h 13.8604 V 13.2108 h 26.0509 v 21.8761 h 22.3771 v 20.0392 h -22.3771 v 36.5714 q 0,5.6778 2.8389,8.8507 3.0059,3.0058 8.3496,3.0058 6.1788,0 10.5206,-3.3398 z"
     id="text44"
     style="font-weight:bold;font-size:166.993px;font-family:Montserrat;-inkscape-font-specification:'Montserrat Bold';letter-spacing:0.0978471px;white-space:pre;fill:#2d3047;stroke-width:10;paint-order:markers stroke fill"
     aria-label="t" /><path
     id="rect44"
     style="fill:#2d3047;stroke-width:10;paint-order:markers stroke fill"
     d="m 73.83415,86.79305 v -24.8215 h 18.7252 v 24.8215 z" /><path
     id="path44"
     style="fill:#ffba49;fill-opacity:1;stroke:none;stroke-width:2.24754;paint-order:markers stroke fill"
     d="M 247.6935,2.5106714 199.66689,73.729737 h 37.67988 l -7.36907,51.379693 48.02666,-71.218918 h -37.67991 z" /></svg>
