<?xml version="1.0" encoding="UTF-8" standalone="no"?>
<!-- Created with Inkscape (http://www.inkscape.org/) -->

<svg
   width="153.09811"
   height="153.09811"
   viewBox="0 0 153.09811 153.09811"
   version="1.1"
   id="svg5"
   xml:space="preserve"
   xmlns="http://www.w3.org/2000/svg"
   xmlns:svg="http://www.w3.org/2000/svg"><defs
     id="defs2" /><g
     id="g25"
     transform="translate(247.39743,291.01007)"><rect
       style="fill:none;fill-opacity:1;stroke:none;stroke-width:32;paint-order:markers stroke fill"
       id="rect19"
       width="153.09811"
       height="153.09811"
       x="-247.39743"
       y="-291.01007" /><path
       id="path20"
       style="fill:#ffba49;fill-opacity:1;stroke:none;stroke-width:2.24754;paint-order:markers stroke fill"
       d="m -161.9905,-275.7604 -48.02661,71.21907 h 37.67988 l -7.36907,51.37969 48.02666,-71.21891 h -37.67991 z" /><path
       style="font-weight:bold;font-size:166.993px;font-family:Montserrat;-inkscape-font-specification:'Montserrat Bold';letter-spacing:0.0978471px;white-space:pre;fill:#2d3047;stroke-width:10;paint-order:markers stroke fill"
       d="m -199.79466,-247.40555 c -7.7536,0 -14.73178,1.65708 -20.93467,4.96996 -6.2029,3.24243 -11.06649,7.7882 -14.59084,13.63864 -3.45389,5.77995 -5.18018,12.3352 -5.18018,19.66591 0,7.3307 1.72629,13.92181 5.18018,19.77226 3.52435,5.77995 8.35332,10.32571 14.48572,13.63864 6.13241,3.24242 13.04011,4.86361 20.72322,4.86361 5.35705,0 10.67815,-0.80995 15.96472,-2.43119 5.28656,-1.62119 9.93866,-3.94726 13.95644,-6.97822 v -30.02752 h -14.22479 v -10e-4 h -11.85544 v 15.71615 h 10.4321 v 5.95926 c -3.94729,2.11462 -8.38795,3.17192 -13.32206,3.17191 -4.65221,0 -8.8109,-0.98676 -12.47623,-2.96045 -3.59484,-2.04409 -6.41432,-4.86357 -8.45845,-8.45846 -2.04414,-3.59483 -3.06557,-7.68305 -3.06557,-12.26475 0,-4.65216 1.02143,-8.775 3.06557,-12.36988 2.04413,-3.59484 4.89948,-6.37969 8.5648,-8.35334 3.66533,-1.97365 7.85865,-2.96046 12.58134,-2.96046 7.47164,0 13.8513,2.78486 19.13787,8.35334 l 10.99599,-10.15014 c -3.59489,-4.15876 -8.0355,-7.33064 -13.32207,-9.51576 -5.28652,-2.18508 -11.17278,-3.27827 -17.65764,-3.27827 z"
       id="path21" /><path
       style="font-weight:bold;font-size:166.993px;font-family:Montserrat;-inkscape-font-specification:'Montserrat Bold';letter-spacing:0.0978471px;white-space:pre;fill:#2d3047;stroke-width:10;paint-order:markers stroke fill"
       d="m -133.7657,-247.40557 c -6.76679,0 -12.51084,1.02267 -17.23349,3.06681 -4.6522,2.04409 -8.14187,4.82771 -10.46797,8.35211 -2.32605,3.4539 -3.48849,7.33068 -3.48849,11.63038 0,4.93412 1.26878,8.88138 3.80631,11.84184 2.60805,2.96052 5.70946,5.11096 9.3043,6.4502 3.59488,1.33928 8.21113,2.67849 13.85011,4.01777 3.66533,0.84584 6.55529,1.62121 8.66993,2.32607 2.18511,0.70487 3.94725,1.65582 5.28653,2.85411 1.40972,1.12781 2.11461,2.57341 2.11461,4.33558 0,2.39659 -1.16243,4.33436 -3.48849,5.81458 -2.32611,1.40976 -5.92092,2.11461 -10.78454,2.11461 -4.37024,0 -8.74038,-0.70485 -13.11062,-2.11461 -4.37018,-1.40973 -8.14185,-3.27702 -11.3138,-5.60311 l -5.81458,12.89915 c 3.31288,2.53752 7.68307,4.6163 13.11062,6.23749 5.49804,1.55075 11.17158,2.32608 17.02203,2.32608 6.76678,0 12.51208,-1.02144 17.23473,-3.06558 4.7227,-2.04413 8.24702,-4.79309 10.57309,-8.24699 2.39658,-3.52436 3.59484,-7.40113 3.59484,-11.63038 0,-4.93412 -1.30464,-8.84675 -3.91266,-11.73673 -2.53757,-2.88999 -5.60312,-5.00457 -9.19796,-6.34385 -3.59488,-1.33928 -8.21237,-2.67853 -13.85134,-4.01777 -5.42756,-1.19829 -9.47992,-2.39655 -12.15843,-3.59484 -2.60802,-1.26879 -3.91266,-3.17194 -3.91266,-5.70946 0,-2.53757 1.12782,-4.58168 3.38339,-6.13239 2.3261,-1.55074 5.88629,-2.32608 10.67942,-2.32608 6.83729,0 13.67446,1.93897 20.51177,5.81581 l 5.28654,-13.00549 c -3.38341,-2.11463 -7.33067,-3.73581 -11.84184,-4.86361 -4.51122,-1.12777 -9.1287,-1.6917 -13.85135,-1.6917 z"
       id="path22" /><path
       style="fill:#ffba49;fill-opacity:1;stroke:none;stroke-width:2;stroke-opacity:1;paint-order:markers stroke fill"
       d="m -194.24862,-227.92456 15.80869,-23.44284 9.62499,16.75612 c -2.3813,5.72485 -6.29459,8.65607 -10.99599,10.15014 z"
       id="path23" /><path
       style="fill:#ffba49;fill-opacity:1;stroke:none;stroke-width:2;stroke-opacity:1;paint-order:markers stroke fill"
       d="m -152.73176,-193.16228 -13.19573,19.56799 -0.5084,-5.82579 c 0.95865,-4.89596 1.79696,-9.86517 5.81458,-12.89915 z"
       id="path24" /></g></svg>
