<?xml version="1.0" encoding="UTF-8" standalone="no"?>
<!-- Created with Inkscape (http://www.inkscape.org/) -->

<svg
   width="903.41852"
   height="199.75348"
   viewBox="0 0 903.41852 199.75348"
   version="1.1"
   id="svg5"
   xml:space="preserve"
   xmlns="http://www.w3.org/2000/svg"
   xmlns:svg="http://www.w3.org/2000/svg"><defs
     id="defs2" /><g
     id="layer1"
     transform="translate(-1173.2908,-1373.0481)"><path
       d="m 1252.5969,1559.334 q -3.0777,0 -5.7157,-1.1541 -2.5831,-1.2091 -4.5067,-3.2426 -1.8686,-2.0885 -2.9128,-4.7265 -1.0442,-2.693 -1.0442,-5.6608 0,-3.0777 1.0442,-5.7158 1.0442,-2.693 2.9678,-4.7265 1.9236,-2.0884 4.5066,-3.2426 2.6381,-1.2091 5.7158,-1.2091 3.0777,0 5.6608,1.2091 2.5831,1.1542 4.5066,3.2426 1.9236,2.0335 2.9678,4.7265 1.0443,2.6381 1.0443,5.7158 0,2.9678 -1.0443,5.6608 -1.0442,2.638 -2.9678,4.7265 -1.8686,2.0335 -4.5066,3.2426 -2.5831,1.1541 -5.7158,1.1541 z m -10.3873,-14.7291 q 0,3.1877 1.374,5.8257 1.429,2.5831 3.7922,4.122 2.3633,1.4839 5.2211,1.4839 2.8579,0 5.2212,-1.5389 2.3632,-1.5389 3.7921,-4.1769 1.429,-2.693 1.429,-5.8257 0,-3.1876 -1.429,-5.8256 -1.4289,-2.6381 -3.7921,-4.1769 -2.3633,-1.5389 -5.2212,-1.5389 -2.8578,0 -5.2211,1.5938 -2.3083,1.5938 -3.7372,4.2319 -1.429,2.5831 -1.429,5.8256 z m 45.5062,14.7291 q -3.5723,0 -6.4302,-1.8686 -2.8029,-1.8686 -4.4517,-4.6166 v 17.6419 h -3.7372 v -40.34 h 3.3525 v 5.5509 q 1.7037,-2.693 4.5616,-4.3418 2.8579,-1.7038 6.1005,-1.7038 2.9678,0 5.4409,1.2641 2.4732,1.2091 4.2869,3.2976 1.8136,2.0884 2.8029,4.7814 1.0442,2.6381 1.0442,5.4959 0,4.0121 -1.6488,7.4195 -1.5938,3.3525 -4.5066,5.386 -2.9129,2.0335 -6.815,2.0335 z m -1.0442,-3.2975 q 2.3632,0 4.2319,-0.9343 1.8686,-0.9893 3.1876,-2.6381 1.374,-1.6488 2.0884,-3.6823 0.7145,-2.0884 0.7145,-4.2868 0,-2.3083 -0.8244,-4.3967 -0.7694,-2.0885 -2.2533,-3.6823 -1.4839,-1.5938 -3.4075,-2.5281 -1.9235,-0.9343 -4.1769,-0.9343 -1.4289,0 -2.9678,0.5496 -1.5388,0.5496 -2.9678,1.5938 -1.3739,0.9893 -2.3083,2.2533 -0.9343,1.2641 -1.1541,2.693 v 8.7935 q 0.8793,2.0335 2.3632,3.6823 1.4839,1.5938 3.4075,2.5831 1.9785,0.9343 4.067,0.9343 z m 33.6351,1.3739 q -0.4397,0.1649 -1.374,0.6046 -0.9343,0.4397 -2.2533,0.7694 -1.319,0.3298 -2.8579,0.3298 -1.5938,0 -3.0227,-0.6046 -1.374,-0.6045 -2.1984,-1.8136 -0.8244,-1.2641 -0.8244,-3.0777 v -20.4998 h -3.9571 v -2.9678 h 3.9571 v -9.6728 h 3.7372 v 9.6728 h 6.5951 v 2.9678 h -6.5951 v 19.4555 q 0.1099,1.5389 1.0992,2.3083 1.0442,0.7694 2.3633,0.7694 1.5388,0 2.8029,-0.4946 1.264,-0.5496 1.5388,-0.7694 z m 4.6715,1.374 v -28.6337 h 3.7372 v 28.6337 z m 0,-34.6243 v -5.4959 h 3.7372 v 5.4959 z m 54.5745,34.6243 h -3.7372 v -15.9931 q 0,-5.0013 -1.5939,-7.3645 -1.5938,-2.3633 -4.7264,-2.3633 -3.2426,0 -5.8257,2.3083 -2.5281,2.3083 -3.5724,5.9356 v 17.477 h -3.7372 v -15.9931 q 0,-5.0563 -1.5389,-7.3645 -1.5388,-2.3633 -4.7264,-2.3633 -3.1877,0 -5.7708,2.2533 -2.583,2.2534 -3.6273,5.9356 v 17.532 h -3.7372 v -28.6337 h 3.4075 v 6.4852 q 1.8136,-3.3525 4.6165,-5.1662 2.8579,-1.8137 6.3204,-1.8137 3.5723,0 5.7707,2.0335 2.1983,2.0335 2.693,5.3311 1.9785,-3.6273 4.7265,-5.4959 2.8029,-1.8687 6.3203,-1.8687 2.4182,0 4.067,0.8794 1.7037,0.8793 2.693,2.5281 1.0442,1.5938 1.4839,3.9021 0.4946,2.2533 0.4946,5.0563 z m 7.9141,0 v -28.6337 h 3.7373 v 28.6337 z m 0,-34.6243 v -5.4959 h 3.7373 v 5.4959 z m 21.3792,35.1739 q -3.5174,0 -6.5401,-1.1541 -3.0228,-1.1542 -5.2212,-3.5174 l 1.5389,-2.6381 q 2.4182,2.2534 4.8364,3.2976 2.4732,0.9893 5.2211,0.9893 3.3525,0 5.441,-1.3191 2.0884,-1.3739 2.0884,-3.9021 0,-1.7037 -1.0442,-2.583 -0.9893,-0.9344 -2.9128,-1.4839 -1.8686,-0.6046 -4.5067,-1.2641 -2.9678,-0.8244 -5.0013,-1.7037 -1.9785,-0.9343 -3.0227,-2.3083 -0.9893,-1.429 -0.9893,-3.6823 0,-2.8029 1.374,-4.6166 1.4289,-1.8686 3.8471,-2.8029 2.4732,-0.9893 5.4959,-0.9893 3.2976,0 5.8257,1.0443 2.5281,1.0442 4.122,2.9128 l -1.8137,2.5281 q -1.5388,-1.7587 -3.6823,-2.583 -2.0884,-0.8794 -4.6715,-0.8794 -1.7587,0 -3.3525,0.4946 -1.5938,0.4397 -2.638,1.5389 -0.9893,1.0442 -0.9893,2.9128 0,1.5389 0.7694,2.4182 0.7695,0.8244 2.3083,1.429 1.5389,0.5496 3.7922,1.2091 3.2426,0.8793 5.6608,1.8136 2.4182,0.8794 3.7372,2.3083 1.319,1.429 1.319,4.012 0,4.0121 -3.0227,6.2654 -3.0228,2.2533 -7.9691,2.2533 z m 14.839,-8.7935 q 0,-2.693 1.5388,-4.6165 1.5389,-1.9786 4.2319,-3.0228 2.748,-1.0992 6.3203,-1.0992 2.0885,0 4.3418,0.3298 2.2533,0.3297 4.012,0.9893 v -2.4183 q 0,-3.6273 -2.1434,-5.7707 -2.1434,-2.1434 -5.9356,-2.1434 -2.3083,0 -4.5616,0.8794 -2.1984,0.8244 -4.6166,2.4731 l -1.4289,-2.638 q 2.8029,-1.9236 5.4959,-2.8579 2.693,-0.9893 5.4959,-0.9893 5.2761,0 8.3538,3.0228 3.0777,3.0228 3.0777,8.3538 v 13.2452 q 0,0.7694 0.3298,1.1541 0.3297,0.3298 1.0442,0.3847 v 2.9678 q -0.6045,0.055 -1.0442,0.1099 -0.4397,0.055 -0.6595,0 -1.374,-0.055 -2.0885,-0.8793 -0.7144,-0.8244 -0.7694,-1.7587 l -0.055,-2.0884 q -1.9235,2.4731 -5.0013,3.8471 -3.0777,1.319 -6.2653,1.319 -2.748,0 -5.0013,-1.1541 -2.1984,-1.2091 -3.4624,-3.1877 -1.2091,-2.0335 -1.2091,-4.4517 z m 19.1807,2.1984 q 0.6046,-0.7694 0.9343,-1.4839 0.3298,-0.7145 0.3298,-1.264 v -4.1769 q -1.8686,-0.7145 -3.9021,-1.0992 -1.9785,-0.3847 -4.012,-0.3847 -4.012,0 -6.4852,1.5938 -2.4732,1.5938 -2.4732,4.3417 0,1.5939 0.8244,3.0228 0.8244,1.374 2.4182,2.3083 1.5938,0.8793 3.7372,0.8793 2.693,0 5.0013,-1.0442 2.3633,-1.0442 3.6273,-2.693 z m 26.6003,4.6715 q -0.4397,0.1649 -1.374,0.6046 -0.9343,0.4397 -2.2533,0.7694 -1.319,0.3298 -2.8579,0.3298 -1.5938,0 -3.0227,-0.6046 -1.374,-0.6045 -2.1984,-1.8136 -0.8244,-1.2641 -0.8244,-3.0777 v -20.4998 h -3.9571 v -2.9678 h 3.9571 v -9.6728 h 3.7372 v 9.6728 h 6.5951 v 2.9678 h -6.5951 v 19.4555 q 0.11,1.5389 1.0992,2.3083 1.0442,0.7694 2.3633,0.7694 1.5388,0 2.8029,-0.4946 1.264,-0.5496 1.5388,-0.7694 z m 4.6715,1.374 v -28.6337 h 3.7372 v 28.6337 z m 0,-34.6243 v -5.4959 h 3.7372 v 5.4959 z m 24.1821,35.1739 q -3.0778,0 -5.7158,-1.1541 -2.5831,-1.2091 -4.5067,-3.2426 -1.8686,-2.0885 -2.9128,-4.7265 -1.0442,-2.693 -1.0442,-5.6608 0,-3.0777 1.0442,-5.7158 1.0442,-2.693 2.9678,-4.7265 1.9236,-2.0884 4.5067,-3.2426 2.638,-1.2091 5.7157,-1.2091 3.0777,0 5.6608,1.2091 2.5831,1.1542 4.5067,3.2426 1.9235,2.0335 2.9678,4.7265 1.0442,2.6381 1.0442,5.7158 0,2.9678 -1.0442,5.6608 -1.0443,2.638 -2.9678,4.7265 -1.8686,2.0335 -4.5067,3.2426 -2.5831,1.1541 -5.7157,1.1541 z m -10.3873,-14.7291 q 0,3.1877 1.3739,5.8257 1.429,2.5831 3.7922,4.122 2.3633,1.4839 5.2212,1.4839 2.8578,0 5.2211,-1.5389 2.3632,-1.5389 3.7922,-4.1769 1.4289,-2.693 1.4289,-5.8257 0,-3.1876 -1.4289,-5.8256 -1.429,-2.6381 -3.7922,-4.1769 -2.3633,-1.5389 -5.2211,-1.5389 -2.8579,0 -5.2212,1.5938 -2.3083,1.5938 -3.7372,4.2319 -1.4289,2.5831 -1.4289,5.8256 z m 54.9591,14.1795 h -3.7372 v -15.9931 q 0,-5.0563 -1.4839,-7.3645 -1.4839,-2.3633 -4.6715,-2.3633 -2.1984,0 -4.3418,1.0992 -2.1434,1.0442 -3.7922,2.9128 -1.5938,1.8137 -2.3083,4.1769 v 17.532 h -3.7372 v -28.6337 h 3.4075 v 6.4852 q 1.1541,-2.0885 3.0227,-3.6273 1.8686,-1.5939 4.2319,-2.4732 2.3632,-0.8794 4.8914,-0.8794 2.3632,0 4.012,0.8794 1.6487,0.8793 2.638,2.5281 0.9893,1.5938 1.429,3.9021 0.4396,2.2533 0.4396,5.0563 z m 23.3577,0 v -25.6659 h -3.9571 v -2.9678 h 3.9571 v -0.7694 q 0,-3.5174 0.9892,-6.0456 1.0443,-2.5281 2.9129,-3.8471 1.9235,-1.374 4.5066,-1.374 1.7038,0 3.2976,0.4946 1.5938,0.4947 2.7479,1.3191 l -1.1541,2.693 q -0.7145,-0.6046 -1.8686,-0.9343 -1.1542,-0.3298 -2.3083,-0.3298 -2.5831,0 -4.012,2.0335 -1.374,2.0335 -1.374,5.8806 v 0.8794 h 7.9141 v 2.9678 h -7.9141 v 25.6659 z m 28.0841,0.5496 q -3.0777,0 -5.7158,-1.1541 -2.5831,-1.2091 -4.5066,-3.2426 -1.8687,-2.0885 -2.9129,-4.7265 -1.0442,-2.693 -1.0442,-5.6608 0,-3.0777 1.0442,-5.7158 1.0442,-2.693 2.9678,-4.7265 1.9236,-2.0884 4.5067,-3.2426 2.638,-1.2091 5.7157,-1.2091 3.0777,0 5.6608,1.2091 2.5831,1.1542 4.5067,3.2426 1.9236,2.0335 2.9678,4.7265 1.0442,2.6381 1.0442,5.7158 0,2.9678 -1.0442,5.6608 -1.0442,2.638 -2.9678,4.7265 -1.8686,2.0335 -4.5067,3.2426 -2.5831,1.1541 -5.7157,1.1541 z m -10.3873,-14.7291 q 0,3.1877 1.374,5.8257 1.4289,2.5831 3.7921,4.122 2.3633,1.4839 5.2212,1.4839 2.8578,0 5.2211,-1.5389 2.3632,-1.5389 3.7922,-4.1769 1.4289,-2.693 1.4289,-5.8257 0,-3.1876 -1.4289,-5.8256 -1.429,-2.6381 -3.7922,-4.1769 -2.3633,-1.5389 -5.2211,-1.5389 -2.8579,0 -5.2212,1.5938 -2.3082,1.5938 -3.7372,4.2319 -1.4289,2.5831 -1.4289,5.8256 z m 45.1764,-11.1567 q -3.7372,0.11 -6.5951,2.0885 -2.8029,1.9785 -3.9571,5.4409 v 17.8068 h -3.7372 v -28.6337 h 3.5174 v 6.8699 q 1.4839,-3.0228 3.9021,-4.8914 2.4732,-1.8686 5.2211,-2.0884 0.5496,-0.055 0.9343,-0.055 0.4397,0 0.7145,0.055 z m 60.3451,25.3362 h -3.7372 v -15.9931 q 0,-5.0013 -1.5938,-7.3645 -1.5938,-2.3633 -4.7265,-2.3633 -3.2426,0 -5.8257,2.3083 -2.5281,2.3083 -3.5723,5.9356 v 17.477 h -3.7373 v -15.9931 q 0,-5.0563 -1.5388,-7.3645 -1.5389,-2.3633 -4.7265,-2.3633 -3.1876,0 -5.7707,2.2533 -2.5831,2.2534 -3.6273,5.9356 v 17.532 h -3.7373 v -28.6337 h 3.4075 v 6.4852 q 1.8137,-3.3525 4.6166,-5.1662 2.8579,-1.8137 6.3203,-1.8137 3.5723,0 5.7707,2.0335 2.1984,2.0335 2.693,5.3311 1.9785,-3.6273 4.7265,-5.4959 2.8029,-1.8687 6.3203,-1.8687 2.4182,0 4.067,0.8794 1.7037,0.8793 2.693,2.5281 1.0442,1.5938 1.4839,3.9021 0.4946,2.2533 0.4946,5.0563 z m 5.6059,-8.2439 q 0,-2.693 1.5389,-4.6165 1.5388,-1.9786 4.2318,-3.0228 2.748,-1.0992 6.3203,-1.0992 2.0885,0 4.3418,0.3298 2.2533,0.3297 4.012,0.9893 v -2.4183 q 0,-3.6273 -2.1434,-5.7707 -2.1434,-2.1434 -5.9356,-2.1434 -2.3083,0 -4.5616,0.8794 -2.1984,0.8244 -4.6166,2.4731 l -1.4289,-2.638 q 2.8029,-1.9236 5.4959,-2.8579 2.693,-0.9893 5.4959,-0.9893 5.2761,0 8.3538,3.0228 3.0777,3.0228 3.0777,8.3538 v 13.2452 q 0,0.7694 0.3298,1.1541 0.3298,0.3298 1.0442,0.3847 v 2.9678 q -0.6045,0.055 -1.0442,0.1099 -0.4397,0.055 -0.6595,0 -1.374,-0.055 -2.0885,-0.8793 -0.7144,-0.8244 -0.7694,-1.7587 l -0.055,-2.0884 q -1.9236,2.4731 -5.0013,3.8471 -3.0777,1.319 -6.2654,1.319 -2.7479,0 -5.0013,-1.1541 -2.1983,-1.2091 -3.4624,-3.1877 -1.2091,-2.0335 -1.2091,-4.4517 z m 19.1808,2.1984 q 0.6045,-0.7694 0.9343,-1.4839 0.3297,-0.7145 0.3297,-1.264 v -4.1769 q -1.8686,-0.7145 -3.9021,-1.0992 -1.9785,-0.3847 -4.012,-0.3847 -4.012,0 -6.4852,1.5938 -2.4732,1.5938 -2.4732,4.3417 0,1.5939 0.8244,3.0228 0.8244,1.374 2.4182,2.3083 1.5939,0.8793 3.7373,0.8793 2.693,0 5.0013,-1.0442 2.3632,-1.0442 3.6273,-2.693 z m 37.1524,6.0455 h -3.7373 v -15.9931 q 0,-5.0563 -1.4839,-7.3645 -1.4838,-2.3633 -4.6715,-2.3633 -2.1984,0 -4.3418,1.0992 -2.1434,1.0442 -3.7921,2.9128 -1.5939,1.8137 -2.3083,4.1769 v 17.532 h -3.7373 v -28.6337 h 3.4075 v 6.4852 q 1.1542,-2.0885 3.0228,-3.6273 1.8686,-1.5939 4.2318,-2.4732 2.3633,-0.8794 4.8914,-0.8794 2.3632,0 4.012,0.8794 1.6488,0.8793 2.6381,2.5281 0.9892,1.5938 1.4289,3.9021 0.4397,2.2533 0.4397,5.0563 z m 7.6942,-11.8162 v -16.8175 h 3.7373 v 16.158 q 0,4.8914 1.6487,7.3096 1.7038,2.4182 5.0013,2.4182 2.1984,0 4.2319,-0.9343 2.0884,-0.9893 3.6823,-2.748 1.5938,-1.8137 2.4182,-4.1769 v -18.0266 h 3.7372 v 24.1271 q 0,0.7694 0.3297,1.1541 0.3298,0.3298 0.9893,0.3847 v 2.9678 q -0.6595,0.055 -1.0442,0.055 -0.3847,0.055 -0.7145,0.055 -1.0992,-0.1099 -1.9236,-0.8793 -0.7694,-0.7694 -0.8243,-1.8686 l -0.11,-3.8472 q -1.8686,3.2976 -5.1112,5.1662 -3.1876,1.8686 -6.9248,1.8686 -4.5067,0 -6.815,-3.1327 -2.3083,-3.1326 -2.3083,-9.2331 z m 34.2946,11.8162 v -25.6659 h -3.957 v -2.9678 h 3.957 v -0.7694 q 0,-3.5174 0.9893,-6.0456 1.0442,-2.5281 2.9128,-3.8471 1.9236,-1.374 4.5067,-1.374 1.7037,0 3.2975,0.4946 1.5939,0.4947 2.748,1.3191 l -1.1541,2.693 q -0.7145,-0.6046 -1.8687,-0.9343 -1.1541,-0.3298 -2.3082,-0.3298 -2.5831,0 -4.0121,2.0335 -1.3739,2.0335 -1.3739,5.8806 v 0.8794 h 7.9141 v 2.9678 h -7.9141 v 25.6659 z m 14.3443,-8.2439 q 0,-2.693 1.5389,-4.6165 1.5388,-1.9786 4.2318,-3.0228 2.748,-1.0992 6.3203,-1.0992 2.0885,0 4.3418,0.3298 2.2533,0.3297 4.012,0.9893 v -2.4183 q 0,-3.6273 -2.1434,-5.7707 -2.1434,-2.1434 -5.9356,-2.1434 -2.3082,0 -4.5616,0.8794 -2.1983,0.8244 -4.6165,2.4731 l -1.429,-2.638 q 2.8029,-1.9236 5.4959,-2.8579 2.693,-0.9893 5.496,-0.9893 5.276,0 8.3538,3.0228 3.0777,3.0228 3.0777,8.3538 v 13.2452 q 0,0.7694 0.3297,1.1541 0.3298,0.3298 1.0442,0.3847 v 2.9678 q -0.6045,0.055 -1.0442,0.1099 -0.4397,0.055 -0.6595,0 -1.374,-0.055 -2.0884,-0.8793 -0.7145,-0.8244 -0.7695,-1.7587 l -0.055,-2.0884 q -1.9236,2.4731 -5.0013,3.8471 -3.0777,1.319 -6.2654,1.319 -2.7479,0 -5.0012,-1.1541 -2.1984,-1.2091 -3.4625,-3.1877 -1.2091,-2.0335 -1.2091,-4.4517 z m 19.1808,2.1984 q 0.6045,-0.7694 0.9343,-1.4839 0.3297,-0.7145 0.3297,-1.264 v -4.1769 q -1.8686,-0.7145 -3.9021,-1.0992 -1.9785,-0.3847 -4.012,-0.3847 -4.012,0 -6.4852,1.5938 -2.4731,1.5938 -2.4731,4.3417 0,1.5939 0.8244,3.0228 0.8243,1.374 2.4182,2.3083 1.5938,0.8793 3.7372,0.8793 2.693,0 5.0013,-1.0442 2.3632,-1.0442 3.6273,-2.693 z m 25.501,6.5951 q -3.1326,0 -5.7707,-1.1541 -2.5831,-1.2091 -4.5616,-3.2976 -1.9236,-2.0884 -3.0227,-4.7814 -1.0443,-2.693 -1.0443,-5.7158 0,-4.067 1.8137,-7.4195 1.8136,-3.3525 5.0562,-5.331 3.2426,-1.9786 7.4745,-1.9786 4.012,0 7.0897,1.8687 3.0777,1.8136 4.5616,4.9463 l -3.6273,1.1541 q -1.2091,-2.1983 -3.4074,-3.4074 -2.1435,-1.2641 -4.7815,-1.2641 -2.8579,0 -5.2211,1.4839 -2.3633,1.4839 -3.7922,4.067 -1.374,2.5831 -1.374,5.8806 0,3.2426 1.429,5.8806 1.4289,2.6381 3.7921,4.2319 2.3633,1.5389 5.2212,1.5389 1.8686,0 3.5723,-0.6595 1.7587,-0.6596 3.0228,-1.7587 1.319,-1.1542 1.7587,-2.4732 l 3.6822,1.0992 q -0.7694,2.0335 -2.5831,3.6822 -1.7586,1.5939 -4.1769,2.5282 -2.3632,0.8793 -5.1112,0.8793 z m 31.4917,-1.9236 q -0.4397,0.1649 -1.374,0.6046 -0.9343,0.4397 -2.2533,0.7694 -1.3191,0.3298 -2.8579,0.3298 -1.5938,0 -3.0228,-0.6046 -1.374,-0.6045 -2.1983,-1.8136 -0.8244,-1.2641 -0.8244,-3.0777 v -20.4998 h -3.9571 v -2.9678 h 3.9571 v -9.6728 h 3.7372 v 9.6728 h 6.5951 v 2.9678 h -6.5951 v 19.4555 q 0.1099,1.5389 1.0992,2.3083 1.0442,0.7694 2.3632,0.7694 1.5389,0 2.8029,-0.4946 1.2641,-0.5496 1.5389,-0.7694 z m 4.3966,-10.4422 v -16.8175 h 3.7373 v 16.158 q 0,4.8914 1.6487,7.3096 1.7038,2.4182 5.0013,2.4182 2.1984,0 4.2319,-0.9343 2.0884,-0.9893 3.6822,-2.748 1.5939,-1.8137 2.4182,-4.1769 v -18.0266 h 3.7373 v 24.1271 q 0,0.7694 0.3297,1.1541 0.3298,0.3298 0.9893,0.3847 v 2.9678 q -0.6595,0.055 -1.0442,0.055 -0.3847,0.055 -0.7145,0.055 -1.0992,-0.1099 -1.9236,-0.8793 -0.7694,-0.7694 -0.8244,-1.8686 l -0.1099,-3.8472 q -1.8686,3.2976 -5.1112,5.1662 -3.1876,1.8686 -6.9248,1.8686 -4.5067,0 -6.815,-3.1327 -2.3083,-3.1326 -2.3083,-9.2331 z m 47.21,-13.52 q -3.7373,0.11 -6.5951,2.0885 -2.803,1.9785 -3.9571,5.4409 v 17.8068 h -3.7372 v -28.6337 h 3.5174 v 6.8699 q 1.4839,-3.0228 3.9021,-4.8914 2.4731,-1.8686 5.2211,-2.0884 0.5496,-0.055 0.9343,-0.055 0.4397,0 0.7145,0.055 z m 16.4877,25.8858 q -3.0777,0 -5.7157,-1.1541 -2.6381,-1.2091 -4.5617,-3.2426 -1.9235,-2.0885 -3.0227,-4.7815 -1.0442,-2.693 -1.0442,-5.7707 0,-4.012 1.8136,-7.3645 1.8686,-3.3525 5.1112,-5.3311 3.2426,-2.0335 7.3646,-2.0335 4.2318,0 7.3645,2.0335 3.1876,2.0335 5.0013,5.386 1.8136,3.2976 1.8136,7.2547 0,0.4396 0,0.8793 0,0.3847 -0.055,0.6046 h -24.5118 q 0.2748,3.0777 1.7037,5.4959 1.4839,2.3632 3.7922,3.7922 2.3632,1.3739 5.1112,1.3739 2.8029,0 5.2761,-1.4289 2.5281,-1.4289 3.5174,-3.7372 l 3.2426,0.8793 q -0.8794,2.0335 -2.693,3.6823 -1.8137,1.6488 -4.2869,2.5831 -2.4182,0.8793 -5.2211,0.8793 z m -10.5522,-16.2129 h 21.1593 q -0.2198,-3.1327 -1.7037,-5.496 -1.4289,-2.3632 -3.7922,-3.6822 -2.3083,-1.374 -5.1112,-1.374 -2.8029,0 -5.1112,1.374 -2.3083,1.319 -3.7922,3.7372 -1.4289,2.3632 -1.6488,5.441 z m 44.7368,-9.6729 q -3.7372,0.11 -6.5951,2.0885 -2.8029,1.9785 -3.957,5.4409 v 17.8068 h -3.7373 v -28.6337 h 3.5174 v 6.8699 q 1.4839,-3.0228 3.9021,-4.8914 2.4732,-1.8686 5.2212,-2.0884 0.5495,-0.055 0.9343,-0.055 0.4396,0 0.7144,0.055 z m 14.3993,25.8858 q -3.5174,0 -6.5401,-1.1541 -3.0228,-1.1542 -5.2212,-3.5174 l 1.5389,-2.6381 q 2.4182,2.2534 4.8364,3.2976 2.4732,0.9893 5.2211,0.9893 3.3525,0 5.441,-1.3191 2.0884,-1.3739 2.0884,-3.9021 0,-1.7037 -1.0442,-2.583 -0.9892,-0.9344 -2.9128,-1.4839 -1.8686,-0.6046 -4.5067,-1.2641 -2.9678,-0.8244 -5.0013,-1.7037 -1.9785,-0.9343 -3.0227,-2.3083 -0.9893,-1.429 -0.9893,-3.6823 0,-2.8029 1.374,-4.6166 1.4289,-1.8686 3.8471,-2.8029 2.4732,-0.9893 5.496,-0.9893 3.2975,0 5.8256,1.0443 2.5282,1.0442 4.122,2.9128 l -1.8137,2.5281 q -1.5388,-1.7587 -3.6822,-2.583 -2.0885,-0.8794 -4.6716,-0.8794 -1.7587,0 -3.3525,0.4946 -1.5938,0.4397 -2.638,1.5389 -0.9893,1.0442 -0.9893,2.9128 0,1.5389 0.7694,2.4182 0.7695,0.8244 2.3083,1.429 1.5389,0.5496 3.7922,1.2091 3.2426,0.8793 5.6608,1.8136 2.4182,0.8794 3.7372,2.3083 1.3191,1.429 1.3191,4.012 0,4.0121 -3.0228,6.2654 -3.0228,2.2533 -7.9691,2.2533 z"
       id="slogan"
       style="font-size:54.9592px;font-family:Raleway;-inkscape-font-specification:Raleway;white-space:pre;fill:#ffba49;stroke-width:16.7427"
       aria-label="optimisation for manufacturers" /><path
       id="name"
       style="font-weight:bold;font-size:166.993px;font-family:Montserrat;-inkscape-font-specification:'Montserrat Bold';letter-spacing:0.0978471px;white-space:pre;fill:#ffffff;stroke-width:10;paint-order:markers stroke fill"
       d="M 1241.3592 1376.2063 C 1229.113 1376.2063 1218.0916 1378.8235 1208.2947 1384.0559 C 1198.4978 1389.177 1190.8162 1396.3567 1185.2498 1405.5969 C 1179.7947 1414.7259 1177.0681 1425.0793 1177.0681 1436.6575 C 1177.0681 1448.2357 1179.7947 1458.6457 1185.2498 1467.886 C 1190.8162 1477.0149 1198.4431 1484.1945 1208.1287 1489.427 C 1217.8143 1494.5481 1228.7244 1497.1086 1240.8592 1497.1086 C 1249.3202 1497.1086 1257.7243 1495.8294 1266.074 1493.2688 C 1274.4237 1490.7083 1281.7712 1487.0344 1288.117 1482.2473 L 1288.117 1434.8215 L 1265.6502 1434.8215 L 1265.6502 1434.8196 L 1246.9256 1434.8196 L 1246.9256 1459.6418 L 1263.4021 1459.6418 L 1263.4021 1469.054 C 1257.1677 1472.3938 1250.1541 1474.0637 1242.3611 1474.0637 C 1235.0134 1474.0637 1228.4451 1472.5052 1222.656 1469.3879 C 1216.9783 1466.1595 1212.5252 1461.7064 1209.2967 1456.0286 C 1206.0681 1450.3508 1204.4549 1443.8939 1204.4549 1436.6575 C 1204.4549 1429.3098 1206.0681 1422.7982 1209.2967 1417.1204 C 1212.5252 1411.4426 1217.0349 1407.0442 1222.824 1403.927 C 1228.6131 1400.8098 1235.236 1399.2512 1242.6951 1399.2512 C 1254.4959 1399.2512 1264.572 1403.6497 1272.9217 1412.4446 L 1290.2888 1396.4133 C 1284.6111 1389.8449 1277.5975 1384.8352 1269.2478 1381.384 C 1260.8982 1377.9329 1251.6014 1376.2063 1241.3592 1376.2063 z M 1476.8513 1376.2063 C 1466.1638 1376.2063 1457.0916 1377.8215 1449.6326 1381.0501 C 1442.2849 1384.2785 1436.7733 1388.675 1433.0994 1394.2415 C 1429.4256 1399.6966 1427.5896 1405.8196 1427.5896 1412.6106 C 1427.5896 1420.4036 1429.5936 1426.6379 1433.6013 1431.3137 C 1437.7205 1435.9896 1442.6189 1439.386 1448.2967 1441.5012 C 1453.9745 1443.6165 1461.2654 1445.7317 1470.1717 1447.8469 C 1475.9607 1449.1829 1480.5252 1450.4075 1483.865 1451.5208 C 1487.3162 1452.634 1490.0994 1454.136 1492.2146 1456.0286 C 1494.4412 1457.8098 1495.5545 1460.093 1495.5545 1462.8762 C 1495.5545 1466.6614 1493.7185 1469.722 1490.0447 1472.0598 C 1486.3708 1474.2864 1480.6932 1475.3997 1473.0115 1475.3997 C 1466.1091 1475.3997 1459.2069 1474.2864 1452.3045 1472.0598 C 1445.4021 1469.8333 1439.4451 1466.8841 1434.4353 1463.2102 L 1425.2517 1483.5833 C 1430.4841 1487.5911 1437.3864 1490.8743 1445.9588 1493.4348 C 1454.6424 1495.8841 1463.6033 1497.1086 1472.8435 1497.1086 C 1483.5311 1497.1086 1492.6052 1495.4954 1500.0642 1492.2668 C 1507.5233 1489.0383 1513.0897 1484.6966 1516.7635 1479.2415 C 1520.5487 1473.6751 1522.4412 1467.552 1522.4412 1460.8723 C 1522.4412 1453.0793 1520.3806 1446.8997 1516.2615 1442.3352 C 1512.2536 1437.7707 1507.4119 1434.4309 1501.7342 1432.3157 C 1496.0564 1430.2004 1488.7635 1428.0852 1479.8572 1425.97 C 1471.2849 1424.0774 1464.8845 1422.1848 1460.6541 1420.2922 C 1456.535 1418.2883 1454.4744 1415.2825 1454.4744 1411.2747 C 1454.4744 1407.2668 1456.2557 1404.0383 1459.8181 1401.5891 C 1463.492 1399.1399 1469.115 1397.9153 1476.6853 1397.9153 C 1487.4842 1397.9153 1498.2829 1400.9777 1509.0818 1407.1008 L 1517.4314 1386.5598 C 1512.0876 1383.22 1505.8533 1380.6594 1498.7283 1378.8782 C 1491.6032 1377.097 1484.3103 1376.2063 1476.8513 1376.2063 z M 1863.9099 1386.0598 L 1863.9099 1407.9348 L 1850.0506 1407.9348 L 1850.0506 1427.9739 L 1863.9099 1427.9739 L 1863.9099 1464.8801 C 1863.9099 1475.4563 1866.8045 1483.4719 1872.5935 1488.927 C 1878.494 1494.3821 1886.7888 1497.1086 1897.4763 1497.1086 C 1901.5955 1497.1086 1905.4919 1496.6634 1909.1658 1495.7727 C 1912.951 1494.7708 1916.1228 1493.3235 1918.6834 1491.4309 L 1911.6697 1473.0618 C 1908.7752 1475.2883 1905.2694 1476.4016 1901.1502 1476.4016 C 1897.5877 1476.4016 1894.8045 1475.3996 1892.8006 1473.3958 C 1890.908 1471.2805 1889.9607 1468.3313 1889.9607 1464.5461 L 1889.9607 1427.9739 L 1912.3377 1427.9739 L 1912.3377 1407.9348 L 1889.9607 1407.9348 L 1889.9607 1386.0598 L 1863.9099 1386.0598 z M 1346.3357 1404.595 C 1336.8728 1404.595 1328.3553 1406.5988 1320.7849 1410.6067 C 1313.3259 1414.5032 1307.4823 1419.9582 1303.2517 1426.9719 C 1299.0213 1433.9857 1296.906 1441.9465 1296.906 1450.8528 C 1296.906 1459.759 1299.0213 1467.718 1303.2517 1474.7317 C 1307.4823 1481.7454 1313.3259 1487.2571 1320.7849 1491.2649 C 1328.3553 1495.1614 1336.8728 1497.1086 1346.3357 1497.1086 C 1355.7986 1497.1086 1364.2595 1495.1614 1371.7185 1491.2649 C 1379.1775 1487.2571 1385.0232 1481.7454 1389.2537 1474.7317 C 1393.4842 1467.718 1395.5994 1459.759 1395.5994 1450.8528 C 1395.5994 1441.9465 1393.4842 1433.9857 1389.2537 1426.9719 C 1385.0232 1419.9582 1379.1775 1414.5032 1371.7185 1410.6067 C 1364.2595 1406.5988 1355.7986 1404.595 1346.3357 1404.595 z M 1732.4705 1404.595 C 1725.2342 1404.595 1718.1658 1405.5422 1711.2635 1407.4348 C 1704.4724 1409.3274 1698.6268 1411.9992 1693.7283 1415.4504 L 1703.0799 1433.6516 C 1706.3084 1431.0911 1710.2049 1429.0872 1714.7693 1427.6399 C 1719.4452 1426.0813 1724.1775 1425.302 1728.9646 1425.302 C 1735.867 1425.302 1741.0427 1426.8606 1744.4939 1429.9778 C 1747.9451 1432.9837 1749.6717 1437.3255 1749.6717 1443.0032 L 1728.9646 1443.0032 C 1715.8278 1443.0032 1706.0857 1445.3977 1699.74 1450.1848 C 1693.5056 1454.9719 1690.3885 1461.5402 1690.3885 1469.8899 C 1690.3885 1475.1224 1691.7244 1479.7981 1694.3963 1483.9172 C 1697.0681 1488.0364 1700.9099 1491.2649 1705.9197 1493.6028 C 1711.0408 1495.9407 1717.0525 1497.1086 1723.9549 1497.1086 C 1737.3142 1497.1086 1746.4431 1492.9349 1751.3416 1484.5852 L 1751.3416 1495.7727 L 1775.7224 1495.7727 L 1775.7224 1444.5071 C 1775.7224 1431.1476 1771.9939 1421.1829 1764.5349 1414.6145 C 1757.0759 1407.9348 1746.3865 1404.595 1732.4705 1404.595 z M 1963.8709 1404.595 C 1954.8533 1404.595 1946.6717 1406.5988 1939.324 1410.6067 C 1932.0877 1414.5032 1926.3533 1420.0148 1922.1228 1427.1399 C 1918.0036 1434.1536 1915.9431 1442.0579 1915.9431 1450.8528 C 1915.9431 1459.759 1918.0603 1467.718 1922.2908 1474.7317 C 1926.5213 1481.7454 1932.533 1487.2571 1940.326 1491.2649 C 1948.1189 1495.1614 1957.0798 1497.1086 1967.2107 1497.1086 C 1983.4646 1497.1086 1995.822 1492.2669 2004.283 1482.5813 L 1990.4236 1467.552 C 1987.3064 1470.5579 1983.91 1472.7844 1980.2361 1474.2317 C 1976.6736 1475.5676 1972.5545 1476.2356 1967.8787 1476.2356 C 1961.0877 1476.2356 1955.4099 1474.6204 1950.8455 1471.3918 C 1946.281 1468.1633 1943.3865 1463.7668 1942.1619 1458.2004 L 2010.1287 1458.2004 C 2010.4626 1453.8586 2010.6287 1451.5208 2010.6287 1451.1868 C 2010.6287 1441.8352 2008.5701 1433.6517 2004.451 1426.6379 C 2000.4432 1419.513 1994.8768 1414.0579 1987.7517 1410.2727 C 1980.6267 1406.4875 1972.6659 1404.595 1963.8709 1404.595 z M 1586.6678 1405.9309 C 1580.8786 1405.9309 1575.535 1406.9328 1570.6365 1408.9368 C 1565.8494 1410.9406 1561.7869 1413.8352 1558.447 1417.6204 L 1558.447 1407.2668 L 1533.5642 1407.2668 L 1533.5642 1497.1086 L 1559.615 1497.1086 L 1559.615 1452.0208 C 1559.615 1444.2278 1561.3962 1438.384 1564.9588 1434.4876 C 1568.5212 1430.4797 1573.3083 1428.4758 1579.3201 1428.4758 C 1590.6756 1428.4758 1596.3533 1435.5441 1596.3533 1449.6829 L 1596.3533 1497.1086 L 1622.4041 1497.1086 L 1622.4041 1452.0208 C 1622.4041 1444.2278 1624.1854 1438.384 1627.7478 1434.4876 C 1631.3104 1430.4797 1636.1541 1428.4758 1642.2771 1428.4758 C 1647.7323 1428.4758 1651.906 1430.2571 1654.8006 1433.8196 C 1657.8064 1437.2708 1659.3103 1442.5579 1659.3103 1449.6829 L 1659.3103 1497.1086 L 1685.3611 1497.1086 L 1685.3611 1445.6751 C 1685.3611 1432.4269 1682.0213 1422.5188 1675.3416 1415.9504 C 1668.7733 1409.2707 1659.867 1405.9309 1648.6228 1405.9309 C 1641.9431 1405.9309 1635.7635 1407.2122 1630.0857 1409.7727 C 1624.5193 1412.3333 1619.9002 1415.9504 1616.2263 1420.6262 C 1613.1091 1415.8391 1608.9901 1412.222 1603.8689 1409.7727 C 1598.7479 1407.2122 1593.0135 1405.9309 1586.6678 1405.9309 z M 1843.5213 1405.9309 C 1836.6189 1405.9309 1830.4959 1407.0442 1825.1521 1409.2708 C 1819.9197 1411.4974 1815.7439 1414.7825 1812.6267 1419.1243 L 1812.6267 1407.2668 L 1787.7459 1407.2668 L 1787.7459 1497.1086 L 1813.7967 1497.1086 L 1813.7967 1454.6926 C 1813.7967 1446.343 1815.9119 1440.1087 1820.1424 1435.9895 C 1824.3729 1431.759 1830.2185 1429.6438 1837.6775 1429.6438 C 1838.6795 1429.6438 1840.6267 1429.7551 1843.5213 1429.9778 L 1843.5213 1405.9309 z M 2072.9334 1405.9309 C 2066.0311 1405.9309 2059.908 1407.0442 2054.5642 1409.2708 C 2049.3318 1411.4974 2045.156 1414.7825 2042.0388 1419.1243 L 2042.0388 1407.2668 L 2017.158 1407.2668 L 2017.158 1497.1086 L 2043.2088 1497.1086 L 2043.2088 1454.6926 C 2043.2088 1446.343 2045.324 1440.1087 2049.5545 1435.9895 C 2053.7849 1431.759 2059.6286 1429.6438 2067.0877 1429.6438 C 2068.0896 1429.6438 2070.0388 1429.7551 2072.9334 1429.9778 L 2072.9334 1405.9309 z M 1964.0388 1424.3001 C 1969.8279 1424.3001 1974.7263 1426.0266 1978.7342 1429.4778 C 1982.742 1432.8177 1985.1911 1437.3255 1986.0818 1443.0032 L 1941.8279 1443.0032 C 1942.7186 1437.2141 1945.1678 1432.6497 1949.1756 1429.3098 C 1953.1834 1425.97 1958.1385 1424.3001 1964.0388 1424.3001 z M 1346.3357 1425.97 C 1353.0154 1425.97 1358.4704 1428.2531 1362.701 1432.8176 C 1367.0428 1437.2708 1369.2146 1443.2825 1369.2146 1450.8528 C 1369.2146 1458.4231 1367.0428 1464.4895 1362.701 1469.054 C 1358.4704 1473.5072 1353.0154 1475.7336 1346.3357 1475.7336 C 1339.6561 1475.7336 1334.1463 1473.5072 1329.8045 1469.054 C 1325.4627 1464.4895 1323.2908 1458.4231 1323.2908 1450.8528 C 1323.2908 1443.2825 1325.4627 1437.2708 1329.8045 1432.8176 C 1334.1463 1428.2531 1339.6561 1425.97 1346.3357 1425.97 z M 1731.8025 1458.2004 L 1749.6717 1458.2004 L 1749.6717 1467.384 C 1748.2244 1471.3919 1745.7752 1474.4544 1742.324 1476.5696 C 1738.8728 1478.5735 1734.9197 1479.5754 1730.4666 1479.5754 C 1725.9021 1479.5754 1722.285 1478.6282 1719.6131 1476.7356 C 1717.0525 1474.7317 1715.7713 1472.0598 1715.7713 1468.72 C 1715.7713 1461.7062 1721.115 1458.2004 1731.8025 1458.2004 z " /><path
       id="icon"
       style="fill:#ffba49;fill-opacity:1;stroke:none;stroke-width:2.83599;paint-order:markers stroke fill"
       d="m 511.8538,2869.6276 -56.07471,97.1191 h 43.99411 l -8.60394,70.0648 56.07476,-97.1189 h -43.99415 z"
       transform="matrix(0.85647551,0,0,0.73331678,982.39406,-728.98733)" /></g></svg>
